<svg id="Laag_1" data-name="Laag 1" xmlns="http://www.w3.org/2000/svg" xmlns:xlink="http://www.w3.org/1999/xlink" viewBox="0 0 841.89 1190.55" ><defs><style>.cls-1{fill:none;}.cls-2{fill:#283044;}.cls-3{clip-path:url(#clip-path);}.cls-4{clip-path:url(#clip-path-2);}.cls-5{fill:#d1946a;}.cls-6{fill:#cbd6ef;}.cls-7{fill:#e2071a;}.cls-8{fill:#e12c88;}.cls-9{clip-path:url(#clip-path-3);}.cls-10{fill:#cfcccd;}.cls-10,.cls-11{stroke:#000;stroke-linejoin:round;stroke-width:5px;}.cls-11{fill:#4bb164;}</style><clipPath id="clip-path"><rect class="cls-1" x="152.43" y="-0.68" width="690.64" height="1007.28"/></clipPath><clipPath id="clip-path-2"><path class="cls-1" d="M702.9,440.1A435.54,435.54,0,0,0,627.64,572c-4.54,12.74-8.54,25.8-15.16,37.6-21.31,38-65.66,56.72-93.62,90.11-30.62,36.58-38.4,82.93-54.34,123.55-6.63,16.89-12.85,34.14-25.6,47.14-.89.94-10.31,11.8-11.54,12.22-5.51,1.9-8.19-12.28-7.13-18,.08-17.89,6.2-32.63,10.8-50.31,8.46-32.47,12.71-69,19.07-103.39-16.82,14.32-32.84,47.64-39.1,71.71-4.66,23.74-6.77,47.93-8.76,73-1.21,15.22,1.06,52.31-17.72,60-4.1,5.75-8.18,9.84-14.75,12.94a2.65,2.65,0,0,1-3.57-1.44c-5-13-2.71-26-4.18-38.16-4-32.57-9.53-63.28-7.24-103.18,1.23-21.48,12.61-38.67,21.58-58.23,3.84-8.36,3.84-8.36,8.18-17.74-8.36-6.42-21.27,24.06-49.63,73.08-7.2,30.76-11.86,68.4-15,110.7-2.23,29.64-10.85,34.52-14.75,39.25s-4.33,13.94-9.85,20.9c-6.31,2.79-10.5-.85-13.7-7-10.58-20.19-6.33-61.69-6.25-80.26-3.88,6.57-11,22.58-17.89,22.36-4.74,6-3,12.84-10,9.84-13.45-5.77-10.14-94.2-8.92-136.6-17.69,9.91-37.63,11.69-56.17,3.47,27.59-34.11,75.05-59.8,101.21-100.53a355,355,0,0,1,25.29-34.57c10-12.12,7.15-15.1,18.37-24.46,12.88-10.73,12.11-5.71,24.48-10.82,16.86-7,15.85-18.5,31.38-24,38.55-13.63,72-27.09,96.71-44.84,6.39-4.6,14.66-14,18.33-21,2.34-4.44,5.25-9.56,6.93-13.75,9.61-24,21.21-24.66,32.2-38,34.12-41.33,65.57-78.55,92.27-122.76l204.59-342h21.45l-2,287.49Z"/></clipPath><clipPath id="clip-path-3"><rect class="cls-1" x="127.92" y="-0.68" width="715.16" height="999.79"/></clipPath></defs><rect class="cls-2" x="1.18" y="-0.68" width="841.89" height="1191.91"/><g class="cls-3"><g class="cls-4"><rect class="cls-5" x="9.45" y="-42.25" width="889.53" height="1042.72"/></g></g><path class="cls-6" d="M286.78,155.6l1.56.94,1.56.94c1.23.75,2.24,1.43,3.05,2a13.93,13.93,0,0,1,5.55,15.66,14.66,14.66,0,0,1-5.63,8.59Q287.48,188,276.5,188a33.5,33.5,0,0,1-16.32-4.45l-1.29-.74a8.27,8.27,0,0,0-1.29-.63,4.85,4.85,0,0,0-2.81-.43c-2,0-3,1.72-2.78,5.16h-1.8V168.33H252v0a21.57,21.57,0,0,0,4.18,8.56,20.54,20.54,0,0,0,6.88,5.86,24,24,0,0,0,11.52,2.69,8.45,8.45,0,0,0,4.61-1.25A6,6,0,0,0,282,180.4a8.22,8.22,0,0,0-.58-5.82q-1.8-3.63-6.68-6.56c-1.12-.67-2.56-1.43-4.3-2.26l-2.15-1c-.88-.42-1.57-.75-2.07-1q-3.51-1.72-5.66-3a31.9,31.9,0,0,1-5.43-4q-5.59-5.26-4.22-11.6,1.51-6.92,9.57-10.78a33.66,33.66,0,0,1,14.61-3.16,32.71,32.71,0,0,1,12.3,2.38,42.65,42.65,0,0,1,3.91,1.8c.21.13.44.26.7.39l.32.19.31.16a8,8,0,0,0,.94.47c1.56.68,2.55.44,3-.71a26.29,26.29,0,0,0,.36-4.06h1.79V148h-1.83a14,14,0,0,0-1.64-5.78,12.87,12.87,0,0,0-5.75-5.62Q282,133,276.11,133a11.63,11.63,0,0,0-8.43,3.44,4.84,4.84,0,0,0-1.49,4.41,7.24,7.24,0,0,0,2.46,4.22,18.58,18.58,0,0,0,3.6,2.58c.54.31,1.19.66,1.95,1.06l2,1Q283.18,153.42,286.78,155.6Z"/><path class="cls-6" d="M358,186.81H333.11v-1.64h5.07v-16.8q0-6.68-.89-8.63-1.29-2.85-6-2.85t-6.8,2.42v25.9h5.12v1.64H304.67v-1.64h5.08v-56h-5.08v-1.64h19.8v29.14c2.87-2,7-3,12.39-3s9.25.93,11.68,2.81q4.36,3.36,4.37,11.72v16.95H358Z"/><path class="cls-6" d="M391.23,183.8l-.27.12a41.63,41.63,0,0,1-15.39,3.36q-9.22,0-12.54-4.18a5.91,5.91,0,0,1-1.53-4.18,7.12,7.12,0,0,1,2.82-5.23Q369,170,389,167.24v-5.66a7,7,0,0,0-.11-.78,6.75,6.75,0,0,0-1.06-2.31c-1.53-2.19-4.27-3.28-8.2-3.28a19.39,19.39,0,0,0-4.84.59c-1.31.36-1.85,1-1.64,1.95a2.92,2.92,0,0,0,.7,1.33,5.16,5.16,0,0,1,1.29,3.43,5.28,5.28,0,0,1-1.56,3.83,5.35,5.35,0,0,1-3.87,1.56,5.39,5.39,0,0,1-5.43-5.39,5.14,5.14,0,0,1,1.44-3.59l.12-.12,0-.07.47-.43a7.29,7.29,0,0,1,.86-.67A22.2,22.2,0,0,1,380,153.8h1q11.08,0,16.25,2.39,6.44,3,6.44,10.5v16.45a1.42,1.42,0,0,0,2.7.59,2.06,2.06,0,0,0,.19-.75l.08-.74h1.64a4.24,4.24,0,0,1-1.48,3.36,6.88,6.88,0,0,1-3.09,1.33,13.92,13.92,0,0,1-2.77.27h0c-.86,0-1.6,0-2.23-.08a13.88,13.88,0,0,1-2.58-.43A8.6,8.6,0,0,1,391.23,183.8Zm-17.46-5.5a6.76,6.76,0,0,0,1,3.78q3.51,4.77,15.31,0a13.23,13.23,0,0,1-1.1-5.93v-6.92Q373.77,172.51,373.77,178.3Z"/><path class="cls-6" d="M443.22,186.85v-1.6a5.56,5.56,0,0,0-.51.27,2.76,2.76,0,0,1-.62.31,11.15,11.15,0,0,1-1.72.67,17.8,17.8,0,0,1-5.47.78h-.39a23.65,23.65,0,0,1-15.08-4.92q-6.24-4.89-6.25-11.84t6.25-11.87a23.75,23.75,0,0,1,15.08-4.89h.39a18.46,18.46,0,0,1,5.47.75c.6.21,1.17.43,1.72.66.21.11.42.22.62.35a3.5,3.5,0,0,1,.51.28V130h-5.11v-1.64h19.8v56.84h5.35v1.64Zm0-29.49c-.41-.21-.82-.41-1.21-.59-.55-.23-1.11-.44-1.68-.62a14.24,14.24,0,0,0-4.49-.75,7.61,7.61,0,0,0-7.34,4.85c-1.15,2.47-1.72,5.9-1.72,10.27s.57,7.78,1.72,10.28a7.6,7.6,0,0,0,7.34,4.84,14.51,14.51,0,0,0,4.49-.74,13.36,13.36,0,0,0,1.68-.67,12.55,12.55,0,0,0,1.21-.54Z"/><path class="cls-6" d="M515.57,170.56q0,7-6.25,11.84a23.65,23.65,0,0,1-15.08,4.92h-4.77a23.65,23.65,0,0,1-15.08-4.92q-6.24-4.89-6.25-11.84t6.25-11.87a23.75,23.75,0,0,1,15.08-4.89h4.77a23.75,23.75,0,0,1,15.08,4.89Q515.56,163.61,515.57,170.56Zm-14.77,0q0-7.34-2.85-11.48-2.46-3.65-6.09-3.64t-6.18,3.64q-2.78,4.09-2.77,11.48v1.17q0,6.45,2.85,10.39,2.58,3.56,6.1,3.56t6.21-3.56q2.73-3.85,2.73-10.39Z"/><path class="cls-6" d="M552.6,168.22l-11,18.63h-2.65l-18.87-31h-3.52v-1.64h23.25v1.64H536l11.13,18.29,4.53-7.43-6.6-10.86h-3.52v-1.64h23.24v1.64H561l11.13,18.29,11.17-18.29h-4v-1.64h10.5v1.64h-4.65l-18.59,31h-2.69Z"/><path class="cls-6" d="M254.34,255.56q0,7-6.25,11.84A23.65,23.65,0,0,1,233,272.32h-4.77a23.65,23.65,0,0,1-15.08-4.92q-6.24-4.89-6.25-11.84t6.25-11.87a23.75,23.75,0,0,1,15.08-4.89H233a23.75,23.75,0,0,1,15.08,4.89Q254.33,248.61,254.34,255.56Zm-14.77,0q0-7.34-2.85-11.48-2.46-3.65-6.1-3.64t-6.17,3.64q-2.77,4.09-2.77,11.48v1.17q0,6.45,2.85,10.39,2.58,3.56,6.09,3.56,3.67,0,6.22-3.56,2.73-3.86,2.73-10.39Z"/><path class="cls-6" d="M259.22,240.8v-1.65h5.15v-5.93q0-9.15,4-14.49,4.53-6.1,13.51-6.1a17.2,17.2,0,0,1,10.24,3.28,19.31,19.31,0,0,1,1.72,1.45,14.36,14.36,0,0,1,3.47,4.41,6.88,6.88,0,0,1,.59,2.27,5.74,5.74,0,0,1-5.63,5.78,5.31,5.31,0,0,1-3.94-1.64,5.41,5.41,0,0,1-1.64-4,5,5,0,0,1,1.13-3.28l.39-.43.43-.47a5.7,5.7,0,0,0,.82-1,1.94,1.94,0,0,0,.16-2.27,2.55,2.55,0,0,0-1.37-.94,6,6,0,0,0-1.72-.19,7.31,7.31,0,0,0-5.27,2,7.18,7.18,0,0,0-2.23,5.47v16h5.16v1.65h-5.16v29.41h5.16v1.64h-25v-1.64h5.11V240.8Z"/><path class="cls-6" d="M350.86,268.8l-.27.12a41.63,41.63,0,0,1-15.39,3.36q-9.22,0-12.54-4.18a5.91,5.91,0,0,1-1.53-4.18,7.12,7.12,0,0,1,2.82-5.23q4.73-3.67,24.64-6.45v-5.66a7,7,0,0,0-.11-.78,6.75,6.75,0,0,0-1.06-2.31q-2.31-3.28-8.2-3.28a19.52,19.52,0,0,0-4.85.59c-1.3.36-1.84,1-1.64,1.95a3,3,0,0,0,.71,1.33,5.16,5.16,0,0,1,1.29,3.43,5.34,5.34,0,0,1-5.43,5.39,5.39,5.39,0,0,1-5.43-5.39,5.14,5.14,0,0,1,1.44-3.59l.12-.12,0-.07.47-.43a6.55,6.55,0,0,1,.86-.67,22.17,22.17,0,0,1,12.85-3.83h1q11.1,0,16.25,2.39,6.45,3,6.45,10.5v16.45a1.26,1.26,0,0,0,1.45,1.41,1.28,1.28,0,0,0,1.25-.82,2.29,2.29,0,0,0,.19-.75l.08-.74h1.64a4.27,4.27,0,0,1-1.48,3.36,6.88,6.88,0,0,1-3.09,1.33,13.92,13.92,0,0,1-2.77.27h0c-.86,0-1.6,0-2.23-.08a13.88,13.88,0,0,1-2.58-.43A8.6,8.6,0,0,1,350.86,268.8Zm-17.46-5.5a6.83,6.83,0,0,0,1,3.78q3.53,4.77,15.32,0a13.23,13.23,0,0,1-1.1-5.93v-6.92Q333.4,257.51,333.4,263.3Z"/><path class="cls-6" d="M420.94,271.85v-1.6a5.56,5.56,0,0,0-.51.27,3.06,3.06,0,0,1-.63.31,11,11,0,0,1-1.71.67,17.84,17.84,0,0,1-5.47.78h-.39a23.61,23.61,0,0,1-15.08-4.92q-6.25-4.89-6.25-11.84t6.25-11.87a23.71,23.71,0,0,1,15.08-4.89h.39a18.5,18.5,0,0,1,5.47.75c.59.21,1.17.43,1.71.66.21.11.42.22.63.35a3.5,3.5,0,0,1,.51.28V215h-5.12v-1.64h19.8v56.84H441v1.64Zm0-29.49c-.42-.21-.82-.41-1.21-.59-.55-.23-1.11-.44-1.68-.62a14.25,14.25,0,0,0-4.5-.75,7.62,7.62,0,0,0-7.34,4.85c-1.15,2.47-1.72,5.9-1.72,10.27s.57,7.78,1.72,10.28a7.61,7.61,0,0,0,7.34,4.84,14.52,14.52,0,0,0,4.5-.74,13.36,13.36,0,0,0,1.68-.67c.39-.15.79-.33,1.21-.54Z"/><path class="cls-6" d="M493.28,255.56q0,7-6.25,11.84A23.63,23.63,0,0,1,472,272.32h-4.76a23.63,23.63,0,0,1-15.08-4.92q-6.25-4.89-6.25-11.84t6.25-11.87a23.73,23.73,0,0,1,15.08-4.89H472A23.73,23.73,0,0,1,487,243.69Q493.29,248.61,493.28,255.56Zm-14.76,0q0-7.34-2.86-11.48-2.46-3.65-6.09-3.64t-6.17,3.64q-2.77,4.09-2.78,11.48v1.17q0,6.45,2.86,10.39,2.58,3.56,6.09,3.56a7.45,7.45,0,0,0,6.21-3.56q2.73-3.86,2.74-10.39Z"/><path class="cls-6" d="M529,269.31q-4.26,3-12.35,3t-11.72-2.81q-4.33-3.36-4.33-11.72h0v-17h-5.08v-1.64h19.8v18.44q0,6.72.9,8.67c.89,1.88,2.89,2.82,6,2.82s5.36-.81,6.8-2.43V240.8h-5.08v-1.65h19.8v31.06h5.12v1.64H529Z"/><path class="cls-6" d="M582.42,238.73a23.63,23.63,0,0,1,15.08,4.92q6.25,4.88,6.25,11.83t-6.25,11.84a23.63,23.63,0,0,1-15.08,4.92H582a17.71,17.71,0,0,1-5.43-.78,15.22,15.22,0,0,1-1.72-.63,6.47,6.47,0,0,1-.62-.35l-.51-.27v1.6h-20v-1.64H559V215h-5.07v-1.64h19.8v27.39c.18-.11.35-.2.51-.28a3.59,3.59,0,0,1,.62-.31,12.23,12.23,0,0,1,1.72-.66,17.71,17.71,0,0,1,5.43-.78Zm7.74,16.75q0-6.53-1.76-10.27a7.57,7.57,0,0,0-7.35-4.84,14.12,14.12,0,0,0-4.45.74c-.57.18-1.13.39-1.68.62l-1.21.59v26.33l1.21.58a17,17,0,0,0,1.68.63,14.41,14.41,0,0,0,4.45.74,7.57,7.57,0,0,0,7.35-4.84Q590.16,262,590.16,255.48Z"/><path class="cls-6" d="M626.41,240.83v27.82a1.26,1.26,0,0,0,.43,1.05,1.37,1.37,0,0,0,.86.28,1.4,1.4,0,0,0,1.32-.86,3.39,3.39,0,0,0,.32-1.53H631a4.28,4.28,0,0,1-1.49,3.4,6.94,6.94,0,0,1-3.08,1.41,15.78,15.78,0,0,1-2.78.23c-.65,0-1.2,0-1.64,0a13,13,0,0,1-1.87-.19,10.94,10.94,0,0,1-3.91-1.33q-4.41-2.65-4.41-10V240.83h-5.9v-1.64a29.23,29.23,0,0,0,7.46-3.51,31.47,31.47,0,0,0,6.17-5.16,25.7,25.7,0,0,0,5-8.12h1.92v16.79h6.05v1.64Z"/><path class="cls-6" d="M179,34.16h1l.14.69h12.54l.12-.69h1.07l2.15,6-1.32.47a7.56,7.56,0,0,0-2.25-3.37,5.43,5.43,0,0,0-3.34-1,3.73,3.73,0,0,0-1,.07.37.37,0,0,0-.23.23,4.56,4.56,0,0,0-.06,1V51.78a5.75,5.75,0,0,0,.1,1.36,1.27,1.27,0,0,0,.32.55,1.33,1.33,0,0,0,.56.27,11,11,0,0,0,1.61.09v1.23h-7.88V54.05a9.71,9.71,0,0,0,1.59-.09,1.13,1.13,0,0,0,.74-.56,3.68,3.68,0,0,0,.22-1.52V37.41a2.94,2.94,0,0,0-.07-.82.47.47,0,0,0-.25-.23,2.31,2.31,0,0,0-.75-.08,6.68,6.68,0,0,0-2.56.41,5.21,5.21,0,0,0-1.81,1.39,8.8,8.8,0,0,0-1.45,2.55l-1.32-.47Z"/><path class="cls-6" d="M209.38,51.5l.94.76a12.52,12.52,0,0,1-2.08,2,6.88,6.88,0,0,1-1.9,1,6.54,6.54,0,0,1-2.09.3,7,7,0,0,1-6.31-3.51,7.64,7.64,0,0,1-.93-3.84,8.16,8.16,0,0,1,.9-4,6.6,6.6,0,0,1,2.5-2.58,7.75,7.75,0,0,1,6.43-.46,5.11,5.11,0,0,1,2,1.48A6.49,6.49,0,0,1,210,45a8.62,8.62,0,0,1,.23,1.93H199.86c0,.48-.05.83-.05,1.07a8,8,0,0,0,.65,3.29,4.64,4.64,0,0,0,1.7,2.13,4.32,4.32,0,0,0,2.41.68,4.83,4.83,0,0,0,2.21-.53A10.67,10.67,0,0,0,209.38,51.5Zm-1.88-5.92a5.49,5.49,0,0,0-.62-2,2.83,2.83,0,0,0-1.14-1,3.53,3.53,0,0,0-1.66-.38,3.88,3.88,0,0,0-1.73.38,3.57,3.57,0,0,0-1.34,1,5.87,5.87,0,0,0-.93,2Z"/><path class="cls-6" d="M212.42,43.24V42a8.45,8.45,0,0,0,1.9-.36,10,10,0,0,0,1.9-.88h1.1v2.77a8.12,8.12,0,0,1,2.41-2,5.32,5.32,0,0,1,2.48-.75,2.59,2.59,0,0,1,1.71.52,1.54,1.54,0,0,1,.63,1.24,1.28,1.28,0,0,1-.41.93,1.4,1.4,0,0,1-1,.4,1.25,1.25,0,0,1-.45-.07,3,3,0,0,1-.56-.32,2.65,2.65,0,0,0-1.35-.53,2.92,2.92,0,0,0-1.61.62,9.12,9.12,0,0,0-1.74,1.55v6.75a5.19,5.19,0,0,0,.09,1.2,1.34,1.34,0,0,0,.32.54,1.36,1.36,0,0,0,.54.33,4.21,4.21,0,0,0,1.13.1H220v1.23h-7.57V54.05H213a2.66,2.66,0,0,0,1.17-.16,1.4,1.4,0,0,0,.57-.61,3.71,3.71,0,0,0,.18-1.4V43.24Z"/><path class="cls-6" d="M238.18,51.5l.93.76a12.12,12.12,0,0,1-2.07,2,6.88,6.88,0,0,1-1.9,1,6.54,6.54,0,0,1-2.09.3,7,7,0,0,1-6.31-3.51,7.64,7.64,0,0,1-.93-3.84,8.16,8.16,0,0,1,.9-4,6.57,6.57,0,0,1,2.49-2.58,7.2,7.2,0,0,1,3.72-1,7.06,7.06,0,0,1,2.72.49,5,5,0,0,1,2,1.48A6.34,6.34,0,0,1,238.78,45,8.62,8.62,0,0,1,239,47H228.66c0,.48,0,.83,0,1.07a8.15,8.15,0,0,0,.64,3.29A4.66,4.66,0,0,0,231,53.44a4.32,4.32,0,0,0,2.41.68,4.83,4.83,0,0,0,2.21-.53A10.67,10.67,0,0,0,238.18,51.5Zm-1.88-5.92a5.49,5.49,0,0,0-.62-2,2.83,2.83,0,0,0-1.14-1,3.54,3.54,0,0,0-1.67-.38,3.87,3.87,0,0,0-1.72.38,3.68,3.68,0,0,0-1.35,1,6.29,6.29,0,0,0-.93,2Z"/><path class="cls-6" d="M251.16,41.15h1l1.32,4.48-1.32.44A6.83,6.83,0,0,0,250,43.23a4.89,4.89,0,0,0-2.89-1,2.87,2.87,0,0,0-1.83.55,1.6,1.6,0,0,0-.71,1.27,1.5,1.5,0,0,0,.52,1.15,6.63,6.63,0,0,0,2.24,1.13l2.85,1a8.27,8.27,0,0,1,3.3,1.85,3.3,3.3,0,0,1,.86,2.25,3.7,3.7,0,0,1-.64,2.06,4.44,4.44,0,0,1-1.87,1.58,6.4,6.4,0,0,1-2.8.58,6.53,6.53,0,0,1-4.22-1.41l-.31,1.06h-1l-1.83-4.79,1.32-.53a11,11,0,0,0,2.52,3A5.86,5.86,0,0,0,249,54.2a3.21,3.21,0,0,0,2.1-.68,2,2,0,0,0,.82-1.52,1.85,1.85,0,0,0-.51-1.26,5.36,5.36,0,0,0-2-1.08L246,48.43a7.8,7.8,0,0,1-3-1.73,3.11,3.11,0,0,1-.85-2.16,3.32,3.32,0,0,1,1.39-2.61A5.34,5.34,0,0,1,247,40.79a6.46,6.46,0,0,1,2,.29,5.71,5.71,0,0,1,1.73,1Z"/><path class="cls-6" d="M267.38,46.8V45.2a2.77,2.77,0,0,0-.91-2.32,4.2,4.2,0,0,0-2.57-.69,4.79,4.79,0,0,0-1.44.19,2.75,2.75,0,0,0-1,.55,2,2,0,0,0-.55.78c-.05.11-.17.52-.36,1.24-.22.88-.67,1.32-1.36,1.32a1.21,1.21,0,0,1-.94-.39,1.45,1.45,0,0,1-.36-1,3.07,3.07,0,0,1,.72-1.9,5.13,5.13,0,0,1,2.19-1.54,9.16,9.16,0,0,1,3.47-.61,8.15,8.15,0,0,1,3.21.58,4.08,4.08,0,0,1,2,1.66,5.92,5.92,0,0,1,.44,2.72v5.64A10.07,10.07,0,0,0,270,53a1.5,1.5,0,0,0,1.61,1.26,5.13,5.13,0,0,0,1.61-.31v1.28a8.12,8.12,0,0,1-2.18.35,4.71,4.71,0,0,1-1.75-.29,2.91,2.91,0,0,1-1.17-.86,2.81,2.81,0,0,1-.58-1.34A13.09,13.09,0,0,1,264.34,55a7.67,7.67,0,0,1-2.87.56,4.82,4.82,0,0,1-3.28-1.1,3.32,3.32,0,0,1-1.26-2.58,3.37,3.37,0,0,1,.46-1.7,4.24,4.24,0,0,1,1.41-1.42,9.63,9.63,0,0,1,3-1.08A49,49,0,0,1,267.38,46.8Zm0,1.27q-3.39.51-4.2.69a8,8,0,0,0-2.29.81,2.87,2.87,0,0,0-1,.94,2.09,2.09,0,0,0,0,2.19,2.37,2.37,0,0,0,.93.84,2.8,2.8,0,0,0,1.27.31,6.27,6.27,0,0,0,2.16-.46,15.1,15.1,0,0,0,3.08-1.77Z"/><path class="cls-6" d="M283.14,34.85h7.32v1.23h-.78a2.71,2.71,0,0,0-1,.14.77.77,0,0,0-.42.71,4.24,4.24,0,0,0,.23,1.08l4.2,13.62,3.64-11.22-.86-2.68a2,2,0,0,0-2.27-1.65V34.85h7.26v1.23h-.68a2.19,2.19,0,0,0-1.2.22.7.7,0,0,0-.31.6,4.77,4.77,0,0,0,.23,1.11l4.21,13.71L306.9,38a4,4,0,0,0,.22-1.09.74.74,0,0,0-.29-.64,2.32,2.32,0,0,0-1.16-.2h-.73V34.85h6.24v1.23a3,3,0,0,0-1.18.15,1.74,1.74,0,0,0-.64.49,4.68,4.68,0,0,0-.54,1.29l-5.64,17.27h-2.13L297.12,43l-4,12.26h-2.11L285.51,38a3.06,3.06,0,0,0-1-1.65,2.63,2.63,0,0,0-1.39-.28Z"/><path class="cls-6" d="M312.62,43.24V42a8.56,8.56,0,0,0,1.9-.36,10.28,10.28,0,0,0,1.9-.88h1.09v2.77a8.16,8.16,0,0,1,2.42-2,5.28,5.28,0,0,1,2.48-.75,2.59,2.59,0,0,1,1.71.52,1.54,1.54,0,0,1,.63,1.24,1.26,1.26,0,0,1-.42.93,1.38,1.38,0,0,1-1,.4,1.27,1.27,0,0,1-.46-.07,3,3,0,0,1-.55-.32A2.68,2.68,0,0,0,321,43a2.87,2.87,0,0,0-1.61.62,9.21,9.21,0,0,0-1.75,1.55v6.75a5,5,0,0,0,.1,1.2,1.25,1.25,0,0,0,.86.87,4.13,4.13,0,0,0,1.12.1h.49v1.23H312.6V54.05h.64a2.72,2.72,0,0,0,1.17-.16,1.38,1.38,0,0,0,.56-.61,3.71,3.71,0,0,0,.18-1.4V43.24Z"/><path class="cls-6" d="M325.72,43.24V42a12,12,0,0,0,2-.41,10.66,10.66,0,0,0,1.88-.83h1.07V52.54a1.84,1.84,0,0,0,.18.92,1,1,0,0,0,.49.45,3.26,3.26,0,0,0,1.15.14h.69v1.23h-7.5V54.05h.6a3.14,3.14,0,0,0,1.31-.18,1,1,0,0,0,.48-.49,5,5,0,0,0,.14-1.51V43.24Zm3.72-9.05a1.68,1.68,0,0,1,1.2,2.88,1.7,1.7,0,0,1-2.9-1.2,1.58,1.58,0,0,1,.5-1.19A1.63,1.63,0,0,1,329.44,34.19Z"/><path class="cls-6" d="M346.16,42.3a4.71,4.71,0,0,1,1.34-1.14,2.79,2.79,0,0,1,1.26-.37,1.29,1.29,0,0,1,.88.32,1,1,0,0,1,.36.77,1.06,1.06,0,0,1-.32.79,1.12,1.12,0,0,1-.82.32,2.8,2.8,0,0,1-.56-.07,2.79,2.79,0,0,0-.69-.1,1.23,1.23,0,0,0-.76.33,3.89,3.89,0,0,1,.91,2.58,4.52,4.52,0,0,1-1.7,3.5,6.31,6.31,0,0,1-4.3,1.48,7.36,7.36,0,0,1-2.89-.61,9.07,9.07,0,0,0-1.1.86.78.78,0,0,0-.2.52.81.81,0,0,0,.44.71,6.29,6.29,0,0,0,2.2.62l4.23.63a14.74,14.74,0,0,1,2.83.73,4.36,4.36,0,0,1,2.06,1.33,3.08,3.08,0,0,1,.64,2,3.51,3.51,0,0,1-1.79,3.09Q345.92,62,341.44,62a12.16,12.16,0,0,1-3.81-.49,5.26,5.26,0,0,1-2.28-1.41,2,2,0,0,1-.58-1.36,3.1,3.1,0,0,1,.59-1.77,13.16,13.16,0,0,1,2.75-2.47,5.34,5.34,0,0,1-2-.82,1.72,1.72,0,0,1-.77-1.36,1.89,1.89,0,0,1,.14-.72A2.4,2.4,0,0,1,336,51a8.92,8.92,0,0,1,1.15-.92q.52-.36.75-.54a5.4,5.4,0,0,1-1.62-1.7,4.1,4.1,0,0,1-.54-2.07,4.38,4.38,0,0,1,1.44-3.25,6.46,6.46,0,0,1,4.71-1.7,7.2,7.2,0,0,1,2.3.33A6.58,6.58,0,0,1,346.16,42.3Zm-6.79,12.57a9.57,9.57,0,0,0-1.87,2,2.73,2.73,0,0,0-.46,1.44,1.73,1.73,0,0,0,.46,1.13,3.26,3.26,0,0,0,1.58.9,9.23,9.23,0,0,0,2.8.35,11.82,11.82,0,0,0,3.42-.43,4.59,4.59,0,0,0,2.05-1.1,1.89,1.89,0,0,0,.46-1.25,1.51,1.51,0,0,0-.38-1,3.14,3.14,0,0,0-1.41-.74,15.22,15.22,0,0,0-1.93-.46Zm2.33-12.71a3.23,3.23,0,0,0-2.43,1,3.57,3.57,0,0,0-1,2.58,3.81,3.81,0,0,0,.45,1.85,3.4,3.4,0,0,0,1.28,1.3,3.49,3.49,0,0,0,1.73.47,3.41,3.41,0,0,0,1.74-.48,3.33,3.33,0,0,0,1.28-1.3,3.77,3.77,0,0,0,.45-1.84,3.58,3.58,0,0,0-1-2.61A3.35,3.35,0,0,0,341.7,42.16Z"/><path class="cls-6" d="M351,36.28V35a12.71,12.71,0,0,0,2.21-.44,8.54,8.54,0,0,0,1.66-.79H356v9.68a13.25,13.25,0,0,1,3.14-2,7.07,7.07,0,0,1,2.83-.65A4.61,4.61,0,0,1,365.25,42a3.74,3.74,0,0,1,1.26,2.85V52a3.66,3.66,0,0,0,.17,1.39,1,1,0,0,0,.56.49,6.43,6.43,0,0,0,1.78.15v1.23h-7.58V54.05H362a3.83,3.83,0,0,0,1.41-.17,1.06,1.06,0,0,0,.49-.55,5.46,5.46,0,0,0,.15-1.61v-5a11.86,11.86,0,0,0-.12-2.16,2.37,2.37,0,0,0-.91-1.36,2.84,2.84,0,0,0-1.75-.51,6.23,6.23,0,0,0-2.52.59A12.19,12.19,0,0,0,356,45.07v7.34a2.9,2.9,0,0,0,.14,1.1.92.92,0,0,0,.49.41,4.3,4.3,0,0,0,1.34.13h.61v1.23H351V54.05h.45a3.49,3.49,0,0,0,1.55-.26.76.76,0,0,0,.38-.51,10.32,10.32,0,0,0,.12-2.11V36.28Z"/><path class="cls-6" d="M374.7,36.17h1v5h4.35v1.46h-4.35v8.83a4.68,4.68,0,0,0,.2,1.61,1.67,1.67,0,0,0,.67.8,2,2,0,0,0,1.06.3,5.33,5.33,0,0,0,3.08-1.24v1.42a6.86,6.86,0,0,1-3.89,1.3,4,4,0,0,1-2-.5A2.8,2.8,0,0,1,373.61,54a5.83,5.83,0,0,1-.33-2.34v-9h-2.56V41.38a5.14,5.14,0,0,0,2-.86A4.42,4.42,0,0,0,373.93,39,9.85,9.85,0,0,0,374.7,36.17Z"/><path class="cls-6" d="M402.37,46.8V45.2a2.74,2.74,0,0,0-.91-2.32,4.18,4.18,0,0,0-2.57-.69,4.79,4.79,0,0,0-1.44.19,2.75,2.75,0,0,0-1,.55,2.1,2.1,0,0,0-.55.78,11.85,11.85,0,0,0-.35,1.24c-.23.88-.68,1.32-1.36,1.32a1.24,1.24,0,0,1-.95-.39,1.45,1.45,0,0,1-.36-1,3.07,3.07,0,0,1,.72-1.9,5.25,5.25,0,0,1,2.19-1.54,9.17,9.17,0,0,1,3.48-.61,8.15,8.15,0,0,1,3.21.58,4.06,4.06,0,0,1,2,1.66,5.92,5.92,0,0,1,.44,2.72v5.64A10.07,10.07,0,0,0,405,53a1.71,1.71,0,0,0,.57.95,1.66,1.66,0,0,0,1.05.31,5.24,5.24,0,0,0,1.61-.31v1.28a8.12,8.12,0,0,1-2.19.35,4.75,4.75,0,0,1-1.75-.29,2.87,2.87,0,0,1-1.16-.86A2.92,2.92,0,0,1,402.5,53,12.9,12.9,0,0,1,399.32,55a7.6,7.6,0,0,1-2.87.56,4.82,4.82,0,0,1-3.28-1.1,3.32,3.32,0,0,1-1.26-2.58,3.47,3.47,0,0,1,.46-1.7,4.33,4.33,0,0,1,1.41-1.42,9.63,9.63,0,0,1,3-1.08A48.9,48.9,0,0,1,402.37,46.8Zm0,1.27c-2.27.34-3.67.57-4.21.69a8,8,0,0,0-2.28.81,2.87,2.87,0,0,0-1,.94,2.06,2.06,0,0,0,0,2.19,2.37,2.37,0,0,0,.93.84,2.84,2.84,0,0,0,1.28.31,6.26,6.26,0,0,0,2.15-.46,14.84,14.84,0,0,0,3.08-1.77Z"/><path class="cls-6" d="M409.24,43.24V42a7.81,7.81,0,0,0,3.81-1.24h1.05v2.79a14,14,0,0,1,3.3-2.21,7.17,7.17,0,0,1,2.77-.58,5.29,5.29,0,0,1,2.13.41,4,4,0,0,1,1.49,1.09,3.46,3.46,0,0,1,.77,1.57,8.16,8.16,0,0,1,.12,1.64v6.44a4.09,4.09,0,0,0,.17,1.49,1,1,0,0,0,.53.47,6.36,6.36,0,0,0,1.8.15v1.23h-7.52V54.05h.41a3.54,3.54,0,0,0,1.43-.19,1.15,1.15,0,0,0,.55-.56,4.25,4.25,0,0,0,.17-1.49V46.42a6.7,6.7,0,0,0-.27-2.31,2.27,2.27,0,0,0-.92-1,3.1,3.1,0,0,0-1.65-.41,6.31,6.31,0,0,0-2.54.61,9.67,9.67,0,0,0-2.6,1.8v6.75a4.53,4.53,0,0,0,.16,1.52,1.13,1.13,0,0,0,.55.57,3.83,3.83,0,0,0,1.41.15h.42v1.23h-7.55V54.05h.36a4.1,4.1,0,0,0,1.49-.18,1,1,0,0,0,.56-.65,7.52,7.52,0,0,0,.09-1.61V43.24Z"/><path class="cls-6" d="M438.16,36.27V35a8.92,8.92,0,0,0,1.82-.34,14,14,0,0,0,2.07-.89h1.1V51.56a10,10,0,0,0,.06,1.49,1.19,1.19,0,0,0,.5.78,2.8,2.8,0,0,0,1.36.22h.63v1.23l-5.08.24V53.19a10.52,10.52,0,0,1-2.75,1.89,6.39,6.39,0,0,1-2.57.55,5.46,5.46,0,0,1-4.4-2.13,7.8,7.8,0,0,1-1.75-5.13,8.34,8.34,0,0,1,.93-3.92,6.84,6.84,0,0,1,2.45-2.72,6.31,6.31,0,0,1,3.34-.94,6.57,6.57,0,0,1,4.75,1.94V36.27Zm2.46,15.47V46.2A3.28,3.28,0,0,0,438.71,43a4.34,4.34,0,0,0-2.09-.56,4.2,4.2,0,0,0-2.35.7,4.65,4.65,0,0,0-1.69,2,7.65,7.65,0,0,0-.6,3.18,7.38,7.38,0,0,0,.56,3,4.4,4.4,0,0,0,1.52,2,3.3,3.3,0,0,0,1.94.67,5.57,5.57,0,0,0,2.23-.56A9.18,9.18,0,0,0,440.62,51.74Z"/><path class="cls-6" d="M465.14,34.85H473v1.23h-.78a2.75,2.75,0,0,0-1.12.16,1.1,1.1,0,0,0-.5.52,2.41,2.41,0,0,0-.18,1.06v10.8a7.75,7.75,0,0,1-.79,3.83,5.94,5.94,0,0,1-2.52,2.28,8.77,8.77,0,0,1-4.08.9A7.37,7.37,0,0,1,458,54a5,5,0,0,1-1.9-3.86,2.58,2.58,0,0,1,.5-1.69,1.56,1.56,0,0,1,1.25-.6,1.22,1.22,0,0,1,1,.44,1.64,1.64,0,0,1,.39,1.14,5.79,5.79,0,0,1-.12.83,5.29,5.29,0,0,0-.13.93,2.55,2.55,0,0,0,1.1,2,4.47,4.47,0,0,0,2.87.88,5.25,5.25,0,0,0,2.6-.64,4,4,0,0,0,1.67-1.61,6.32,6.32,0,0,0,.5-2.8V38.29a4,4,0,0,0-.17-1.47,1.11,1.11,0,0,0-.53-.56,3.41,3.41,0,0,0-1.35-.18h-.48Z"/><path class="cls-6" d="M482.63,40.79a7.38,7.38,0,0,1,3.73.9,6.23,6.23,0,0,1,2.48,2.6,8.22,8.22,0,0,1,.91,3.92,8.1,8.1,0,0,1-.93,3.91,6.45,6.45,0,0,1-2.54,2.61,7.69,7.69,0,0,1-3.83.9,6.41,6.41,0,0,1-5.32-2.21,8.53,8.53,0,0,1-.86-9.07,6.56,6.56,0,0,1,2.59-2.63A7.58,7.58,0,0,1,482.63,40.79Zm-.12,1.42a3.64,3.64,0,0,0-2.83,1.32,7,7,0,0,0-1.46,4.78,7.33,7.33,0,0,0,1.25,4.6,3.7,3.7,0,0,0,3.06,1.4,3.86,3.86,0,0,0,2.22-.65,4.53,4.53,0,0,0,1.57-2.11,8.78,8.78,0,0,0,.6-3.39,8.6,8.6,0,0,0-.64-3.41,4.17,4.17,0,0,0-1.5-1.87A4.06,4.06,0,0,0,482.51,42.21Z"/><path class="cls-6" d="M502,41.15h1l1.31,4.48-1.31.44a6.83,6.83,0,0,0-2.22-2.84,4.92,4.92,0,0,0-2.9-1,2.87,2.87,0,0,0-1.83.55,1.59,1.59,0,0,0-.7,1.27,1.52,1.52,0,0,0,.51,1.15,6.63,6.63,0,0,0,2.24,1.13l2.86,1a8.27,8.27,0,0,1,3.3,1.85,3.35,3.35,0,0,1,.86,2.25,3.7,3.7,0,0,1-.64,2.06,4.5,4.5,0,0,1-1.87,1.58,6.45,6.45,0,0,1-2.81.58,6.55,6.55,0,0,1-4.22-1.41l-.3,1.06h-1.05l-1.82-4.79L493.7,50a10.84,10.84,0,0,0,2.53,3,5.84,5.84,0,0,0,3.58,1.25,3.21,3.21,0,0,0,2.1-.68,2,2,0,0,0,.82-1.52,1.81,1.81,0,0,0-.52-1.26,5.28,5.28,0,0,0-2-1.08l-3.38-1.23a7.65,7.65,0,0,1-3-1.73,3.11,3.11,0,0,1-.85-2.16,3.33,3.33,0,0,1,1.38-2.61,5.36,5.36,0,0,1,3.52-1.14,6.48,6.48,0,0,1,2,.29,5.83,5.83,0,0,1,1.73,1Z"/><path class="cls-6" d="M520.17,51.5l.94.76a12.12,12.12,0,0,1-2.07,2,6.88,6.88,0,0,1-1.9,1,6.54,6.54,0,0,1-2.09.3,7,7,0,0,1-6.32-3.51,7.74,7.74,0,0,1-.92-3.84,8.27,8.27,0,0,1,.89-4,6.67,6.67,0,0,1,2.5-2.58,7.19,7.19,0,0,1,3.71-1,7.08,7.08,0,0,1,2.73.49,5,5,0,0,1,2,1.48A6.17,6.17,0,0,1,520.77,45,8,8,0,0,1,521,47H510.65c0,.48,0,.83,0,1.07a8,8,0,0,0,.64,3.29A4.66,4.66,0,0,0,513,53.44a4.32,4.32,0,0,0,2.41.68,4.83,4.83,0,0,0,2.21-.53A10.66,10.66,0,0,0,520.17,51.5Zm-1.87-5.92a5.91,5.91,0,0,0-.62-2,2.79,2.79,0,0,0-1.15-1,3.47,3.47,0,0,0-1.66-.38,3.91,3.91,0,0,0-1.73.38,3.65,3.65,0,0,0-1.34,1,6.29,6.29,0,0,0-.93,2Z"/><path class="cls-6" d="M523.09,43.24V42a6.46,6.46,0,0,0,1.95-.28,7.52,7.52,0,0,0,1.86-1h1.15v2.45a13.5,13.5,0,0,1,3.05-2,6.41,6.41,0,0,1,2.43-.5,5.53,5.53,0,0,1,4.27,2,7.34,7.34,0,0,1,1.77,5.11,8.19,8.19,0,0,1-2,5.71,6,6,0,0,1-4.72,2.05,6.77,6.77,0,0,1-2.69-.54,8.71,8.71,0,0,1-2.1-1.36v4.82a7,7,0,0,0,.06,1.27.91.91,0,0,0,.3.47,1.08,1.08,0,0,0,.55.25c.17,0,.72,0,1.67,0v1.23h-7.54V60.58h.66a3.57,3.57,0,0,0,1.31-.15.9.9,0,0,0,.44-.48,6.83,6.83,0,0,0,.09-1.52V43.24Zm5,1.51v5a6.74,6.74,0,0,0,.12,1.48,3.16,3.16,0,0,0,.68,1.34,4,4,0,0,0,1.38,1,4.13,4.13,0,0,0,1.82.43,4.44,4.44,0,0,0,3.29-1.44,6,6,0,0,0,1.4-4.35,6.65,6.65,0,0,0-1.16-4.21,3.38,3.38,0,0,0-2.73-1.49,5.45,5.45,0,0,0-2.22.54A12.9,12.9,0,0,0,528.05,44.75Z"/><path class="cls-6" d="M541.84,36.28V35a12.71,12.71,0,0,0,2.21-.44,8.54,8.54,0,0,0,1.66-.79h1.14v9.68a13.25,13.25,0,0,1,3.14-2,7.1,7.1,0,0,1,2.83-.65A4.61,4.61,0,0,1,556.06,42a3.74,3.74,0,0,1,1.26,2.85V52a3.66,3.66,0,0,0,.17,1.39,1,1,0,0,0,.56.49,6.43,6.43,0,0,0,1.78.15v1.23h-7.58V54.05h.56a3.83,3.83,0,0,0,1.41-.17,1.06,1.06,0,0,0,.49-.55,5.46,5.46,0,0,0,.15-1.61v-5a11.86,11.86,0,0,0-.12-2.16,2.37,2.37,0,0,0-.91-1.36,2.84,2.84,0,0,0-1.75-.51,6.15,6.15,0,0,0-2.51.59,12,12,0,0,0-2.72,1.78v7.34a2.9,2.9,0,0,0,.14,1.1.92.92,0,0,0,.49.41,4.33,4.33,0,0,0,1.35.13h.6v1.23h-7.59V54.05h.45a3.49,3.49,0,0,0,1.55-.26.81.81,0,0,0,.39-.51,11.56,11.56,0,0,0,.11-2.11V36.28Z"/><path class="cls-6" d="M587.85,34.85h1.06l1.85,6.81L589.4,42a23.88,23.88,0,0,0-1.67-3.17,7,7,0,0,0-2.33-2.06,6.37,6.37,0,0,0-3.09-.76,6.61,6.61,0,0,0-3.64,1.06A7.61,7.61,0,0,0,576,40.23a10.06,10.06,0,0,0-1,4.61,10.27,10.27,0,0,0,1,4.71,7.73,7.73,0,0,0,2.84,3.18,7.16,7.16,0,0,0,3.85,1.12,8.27,8.27,0,0,0,4-1.12,10.93,10.93,0,0,0,3.53-3.13l1.17.8a12.07,12.07,0,0,1-2,2.29,11.74,11.74,0,0,1-3.47,2.23,10.75,10.75,0,0,1-3.95.71,9.61,9.61,0,0,1-7.74-3.53,10.47,10.47,0,0,1-2.46-7,10.7,10.7,0,0,1,1.36-5.38,10.16,10.16,0,0,1,3.76-3.83,9.93,9.93,0,0,1,5.16-1.42,9,9,0,0,1,2.75.4,10.14,10.14,0,0,1,2.57,1.29Z"/><path class="cls-6" d="M600.83,40.79a7.41,7.41,0,0,1,3.73.9,6.29,6.29,0,0,1,2.48,2.6,8.33,8.33,0,0,1,.91,3.92,8.1,8.1,0,0,1-.93,3.91,6.45,6.45,0,0,1-2.54,2.61,7.69,7.69,0,0,1-3.83.9,6.4,6.4,0,0,1-5.32-2.21,8,8,0,0,1-1.78-5.2,7.88,7.88,0,0,1,.92-3.87,6.49,6.49,0,0,1,2.59-2.63A7.55,7.55,0,0,1,600.83,40.79Zm-.12,1.42a3.64,3.64,0,0,0-2.83,1.32,7,7,0,0,0-1.46,4.78,7.33,7.33,0,0,0,1.24,4.6,3.72,3.72,0,0,0,3.07,1.4,3.83,3.83,0,0,0,2.21-.65,4.54,4.54,0,0,0,1.58-2.11,8.78,8.78,0,0,0,.6-3.39,8.6,8.6,0,0,0-.64-3.41A4.13,4.13,0,0,0,603,42.88,4,4,0,0,0,600.71,42.21Z"/><path class="cls-6" d="M614.1,36.17h1v5h4.35v1.46h-4.35v8.83a4.45,4.45,0,0,0,.2,1.61,1.67,1.67,0,0,0,.67.8,2,2,0,0,0,1.06.3,5.33,5.33,0,0,0,3.08-1.24v1.42a6.86,6.86,0,0,1-3.89,1.3,4,4,0,0,1-2-.5A2.8,2.8,0,0,1,613,54a5.83,5.83,0,0,1-.33-2.34v-9h-2.57V41.38a5.12,5.12,0,0,0,2-.86A4.42,4.42,0,0,0,613.33,39,9.85,9.85,0,0,0,614.1,36.17Z"/><path class="cls-6" d="M625.49,36.17h1v5h4.35v1.46h-4.35v8.83a4.74,4.74,0,0,0,.19,1.61,1.75,1.75,0,0,0,.68.8,1.93,1.93,0,0,0,1.06.3,5.35,5.35,0,0,0,3.08-1.24v1.42a6.89,6.89,0,0,1-3.89,1.3,4,4,0,0,1-2-.5A2.75,2.75,0,0,1,624.41,54a5.66,5.66,0,0,1-.33-2.34v-9h-2.57V41.38a5.08,5.08,0,0,0,2-.86A4.34,4.34,0,0,0,624.73,39,9.9,9.9,0,0,0,625.49,36.17Z"/><path class="cls-6" d="M645.56,51.5l.94.76a12.12,12.12,0,0,1-2.07,2,6.88,6.88,0,0,1-1.9,1,6.54,6.54,0,0,1-2.09.3,7,7,0,0,1-6.32-3.51,7.74,7.74,0,0,1-.92-3.84,8.27,8.27,0,0,1,.89-4,6.67,6.67,0,0,1,2.5-2.58,7.2,7.2,0,0,1,3.72-1,7.06,7.06,0,0,1,2.72.49,5,5,0,0,1,2,1.48A6.17,6.17,0,0,1,646.16,45,8,8,0,0,1,646.4,47H636c0,.48,0,.83,0,1.07a8,8,0,0,0,.64,3.29,4.66,4.66,0,0,0,1.71,2.13,4.32,4.32,0,0,0,2.41.68,4.83,4.83,0,0,0,2.21-.53A10.66,10.66,0,0,0,645.56,51.5Zm-1.87-5.92a5.91,5.91,0,0,0-.62-2,2.79,2.79,0,0,0-1.15-1,3.47,3.47,0,0,0-1.66-.38,3.94,3.94,0,0,0-1.73.38,3.65,3.65,0,0,0-1.34,1,6.29,6.29,0,0,0-.93,2Z"/><path class="cls-6" d="M648.64,43.24V42a7.81,7.81,0,0,0,3.81-1.24h1v2.79a14,14,0,0,1,3.3-2.21,7.17,7.17,0,0,1,2.77-.58,5.29,5.29,0,0,1,2.13.41,4,4,0,0,1,1.49,1.09,3.46,3.46,0,0,1,.77,1.57,8.16,8.16,0,0,1,.12,1.64v6.44a4.09,4.09,0,0,0,.17,1.49,1,1,0,0,0,.53.47,6.36,6.36,0,0,0,1.8.15v1.23h-7.52V54.05h.41a3.54,3.54,0,0,0,1.43-.19,1.11,1.11,0,0,0,.55-.56,4.25,4.25,0,0,0,.17-1.49V46.42a6.7,6.7,0,0,0-.27-2.31,2.24,2.24,0,0,0-.93-1,3,3,0,0,0-1.64-.41,6.31,6.31,0,0,0-2.54.61,9.67,9.67,0,0,0-2.6,1.8v6.75a4.53,4.53,0,0,0,.16,1.52,1.13,1.13,0,0,0,.55.57,3.83,3.83,0,0,0,1.41.15h.42v1.23h-7.55V54.05H649a4.1,4.1,0,0,0,1.49-.18,1,1,0,0,0,.56-.65,7.52,7.52,0,0,0,.09-1.61V43.24Z"/><path class="cls-6" d="M271.72,79.24V78a12,12,0,0,0,2-.41,10.72,10.72,0,0,0,1.89-.83h1.07V88.54a1.86,1.86,0,0,0,.17.92,1,1,0,0,0,.49.45,3.3,3.3,0,0,0,1.15.14h.69v1.23h-7.5V90.05h.6a3.2,3.2,0,0,0,1.32-.18,1,1,0,0,0,.48-.49,5.13,5.13,0,0,0,.13-1.51V79.24Zm3.72-9a1.63,1.63,0,0,1,1.2.49,1.58,1.58,0,0,1,.5,1.19,1.7,1.7,0,0,1-2.9,1.2,1.64,1.64,0,0,1-.5-1.2,1.69,1.69,0,0,1,1.7-1.68Z"/><path class="cls-6" d="M280.85,79.24V78a10.73,10.73,0,0,0,1.95-.36,11.18,11.18,0,0,0,1.86-.88h1v2.79a14,14,0,0,1,3.3-2.21,7.13,7.13,0,0,1,2.77-.58,5.21,5.21,0,0,1,2.12.41,3.94,3.94,0,0,1,1.5,1.09,3.56,3.56,0,0,1,.77,1.57,8.16,8.16,0,0,1,.12,1.64v6.44a4.17,4.17,0,0,0,.16,1.49,1,1,0,0,0,.54.47,6.26,6.26,0,0,0,1.8.15v1.23h-7.53V90.05h.41a3.6,3.6,0,0,0,1.44-.19,1.19,1.19,0,0,0,.55-.56,4.25,4.25,0,0,0,.17-1.49V82.42a6.4,6.4,0,0,0-.28-2.31,2.21,2.21,0,0,0-.92-1,3.06,3.06,0,0,0-1.65-.41,6.27,6.27,0,0,0-2.53.61,9.71,9.71,0,0,0-2.61,1.8v6.75a4.46,4.46,0,0,0,.17,1.52,1.09,1.09,0,0,0,.55.57,3.79,3.79,0,0,0,1.41.15h.42v1.23h-7.56V90.05h.37a4.13,4.13,0,0,0,1.49-.18,1.08,1.08,0,0,0,.56-.65,7.52,7.52,0,0,0,.09-1.61V79.24Z"/><path class="cls-6" d="M318.16,70.85h2.4l6.36,17.08a4.29,4.29,0,0,0,.94,1.7,1.89,1.89,0,0,0,1.29.42h.32v1.23H322.2V90.05l.68,0a1.89,1.89,0,0,0,.93-.15.81.81,0,0,0,.42-.7,7.15,7.15,0,0,0-.41-1.51l-1.35-4h-7.4l-1.6,4.42a3.75,3.75,0,0,0-.25,1,.85.85,0,0,0,.16.52,1,1,0,0,0,.41.33,2.48,2.48,0,0,0,.85.11h.65v1.23h-6.11V90.05a3.22,3.22,0,0,0,1.22-.17,1.68,1.68,0,0,0,.66-.54,7.69,7.69,0,0,0,.73-1.57Zm-2.58,11.42h6.31l-3.14-8.79Z"/><path class="cls-6" d="M330.48,72.24V71a8.9,8.9,0,0,0,3.88-1.23h1.08v18a4.08,4.08,0,0,0,.15,1.44,1.26,1.26,0,0,0,.56.6,3.37,3.37,0,0,0,1.4.19H338v1.23h-7.54V90.05h.76a2,2,0,0,0,1.07-.22,1.24,1.24,0,0,0,.52-.59,5,5,0,0,0,.15-1.52V72.24Z"/><path class="cls-6" d="M339.54,77.15h2.51V75a5,5,0,0,1,1.5-3.72,5.43,5.43,0,0,1,3.92-1.44,4.11,4.11,0,0,1,2.51.68,1.86,1.86,0,0,1,.9,1.46,1.23,1.23,0,0,1-1.26,1.25,1.78,1.78,0,0,1-.83-.18,5.42,5.42,0,0,1-1.09-.88,2.22,2.22,0,0,0-1.48-.73,1.39,1.39,0,0,0-.87.3,1.87,1.87,0,0,0-.6.88,5.57,5.57,0,0,0-.21,1.78v2.8h2.75v1.49h-2.75v9.51a4.07,4.07,0,0,0,.14,1.31.9.9,0,0,0,.44.46,4.23,4.23,0,0,0,1.37.13h.6v1.23h-7.55V90.05H340a4.33,4.33,0,0,0,1.47-.15.83.83,0,0,0,.45-.47,4.46,4.46,0,0,0,.13-1.5V78.64h-2.51Z"/><path class="cls-6" d="M349.21,79.24V78a8.45,8.45,0,0,0,1.9-.36,10.28,10.28,0,0,0,1.9-.88h1.09v2.77a8.16,8.16,0,0,1,2.42-2,5.28,5.28,0,0,1,2.48-.75,2.59,2.59,0,0,1,1.71.52,1.54,1.54,0,0,1,.63,1.24,1.26,1.26,0,0,1-.42.93,1.38,1.38,0,0,1-1,.4,1.18,1.18,0,0,1-.45-.07,2.71,2.71,0,0,1-.56-.32,2.68,2.68,0,0,0-1.35-.53,2.9,2.9,0,0,0-1.61.62,9.12,9.12,0,0,0-1.74,1.55v6.75a5.19,5.19,0,0,0,.09,1.2,1.34,1.34,0,0,0,.32.54,1.23,1.23,0,0,0,.54.33,4.16,4.16,0,0,0,1.13.1h.48v1.23H349.2V90.05h.63a2.72,2.72,0,0,0,1.17-.16,1.38,1.38,0,0,0,.56-.61,3.71,3.71,0,0,0,.18-1.4V79.24Z"/><path class="cls-6" d="M375,87.5l.94.76a12.12,12.12,0,0,1-2.07,2,6.88,6.88,0,0,1-1.9,1,6.58,6.58,0,0,1-2.09.3,7,7,0,0,1-6.32-3.51,7.74,7.74,0,0,1-.92-3.84,8.27,8.27,0,0,1,.89-4,6.67,6.67,0,0,1,2.5-2.58,7.19,7.19,0,0,1,3.71-.95,7.08,7.08,0,0,1,2.73.49,5.08,5.08,0,0,1,2,1.48A6.17,6.17,0,0,1,375.56,81,8,8,0,0,1,375.8,83H365.44c0,.48,0,.83,0,1.07a8,8,0,0,0,.64,3.29,4.66,4.66,0,0,0,1.71,2.13,4.32,4.32,0,0,0,2.41.68,4.83,4.83,0,0,0,2.21-.53A10.66,10.66,0,0,0,375,87.5Zm-1.87-5.92a5.91,5.91,0,0,0-.62-2,2.79,2.79,0,0,0-1.15-1,3.47,3.47,0,0,0-1.66-.38,3.94,3.94,0,0,0-1.73.38,3.73,3.73,0,0,0-1.34,1.05,6.07,6.07,0,0,0-.93,2Z"/><path class="cls-6" d="M387.15,72.27V71a8.79,8.79,0,0,0,1.82-.34,13.64,13.64,0,0,0,2.08-.89h1.1V87.56a10.73,10.73,0,0,0,.05,1.49,1.23,1.23,0,0,0,.5.78,2.85,2.85,0,0,0,1.37.22h.62v1.23l-5.08.24V89.19a10.49,10.49,0,0,1-2.74,1.89,6.47,6.47,0,0,1-2.58.55,5.48,5.48,0,0,1-4.4-2.13,7.86,7.86,0,0,1-1.75-5.13,8.34,8.34,0,0,1,.93-3.92,6.79,6.79,0,0,1,2.46-2.72,6.29,6.29,0,0,1,3.34-.94,6.61,6.61,0,0,1,2.57.49,6.41,6.41,0,0,1,2.17,1.45V72.27Zm2.46,15.47V82.2a3.74,3.74,0,0,0-.45-1.94A3.64,3.64,0,0,0,387.7,79a4.31,4.31,0,0,0-2.09-.56,4.2,4.2,0,0,0-2.35.7,4.56,4.56,0,0,0-1.68,2,8.54,8.54,0,0,0-.05,6.21,4.47,4.47,0,0,0,1.52,2,3.31,3.31,0,0,0,1.95.67,5.57,5.57,0,0,0,2.22-.56A9.18,9.18,0,0,0,389.61,87.74Z"/><path class="cls-6" d="M406.56,70.85h7.88v1.23h-.54a3.83,3.83,0,0,0-1.34.17,1.06,1.06,0,0,0-.57.62,4.83,4.83,0,0,0-.13,1.38v5.69h10.59V74.39a7,7,0,0,0-.07-1.37,1.13,1.13,0,0,0-.51-.71,2.37,2.37,0,0,0-1.17-.23h-.81V70.85h7.82v1.23H427a2.73,2.73,0,0,0-1.17.18,1.05,1.05,0,0,0-.48.5,4.26,4.26,0,0,0-.14,1.37V88a4.36,4.36,0,0,0,.15,1.48A.87.87,0,0,0,426,90a9,9,0,0,0,1.76.09v1.23h-7.82V90.05h.57a4.85,4.85,0,0,0,1.44-.14.78.78,0,0,0,.47-.47,8.28,8.28,0,0,0,.08-1.56V81.53H411.86V88a4,4,0,0,0,.16,1.48.84.84,0,0,0,.59.44,10.18,10.18,0,0,0,1.83.09v1.23h-7.88V90.05h.5a5,5,0,0,0,1.43-.12.92.92,0,0,0,.45-.48,3.23,3.23,0,0,0,.17-1.25V74.13A3.7,3.7,0,0,0,409,72.8a1,1,0,0,0-.48-.55,2.59,2.59,0,0,0-1.09-.17h-.82Z"/><path class="cls-6" d="M430.1,79.24V78a12,12,0,0,0,2-.41,10.72,10.72,0,0,0,1.89-.83h1.06V88.54a1.84,1.84,0,0,0,.18.92,1,1,0,0,0,.49.45,3.26,3.26,0,0,0,1.15.14h.69v1.23h-7.5V90.05h.6a3.23,3.23,0,0,0,1.32-.18,1,1,0,0,0,.47-.49,4.69,4.69,0,0,0,.14-1.51V79.24Zm3.72-9a1.68,1.68,0,0,1,1.2,2.88,1.69,1.69,0,0,1-2.4,0,1.64,1.64,0,0,1-.5-1.2,1.69,1.69,0,0,1,1.7-1.68Z"/><path class="cls-6" d="M443.08,72.17h1v5h4.35v1.46h-4.35v8.83a4.45,4.45,0,0,0,.2,1.61,1.67,1.67,0,0,0,.67.8,2,2,0,0,0,1.06.3,5.35,5.35,0,0,0,3.08-1.24v1.42a6.86,6.86,0,0,1-3.89,1.3,4,4,0,0,1-2-.5A2.8,2.8,0,0,1,442,90a5.83,5.83,0,0,1-.33-2.34v-9h-2.57V77.38a5.12,5.12,0,0,0,2-.86A4.42,4.42,0,0,0,442.31,75,9.85,9.85,0,0,0,443.08,72.17Z"/><path class="cls-6" d="M463.56,87.19l.93.77a8.05,8.05,0,0,1-6.6,3.67,6.77,6.77,0,0,1-5.07-2.14,7.32,7.32,0,0,1-2.07-5.31,7.61,7.61,0,0,1,1-3.82,6.75,6.75,0,0,1,2.67-2.63,8.06,8.06,0,0,1,3.92-.94A6.92,6.92,0,0,1,462.5,78a3.33,3.33,0,0,1,1.69,2.5,1.32,1.32,0,0,1-.4,1,1.29,1.29,0,0,1-.89.37,1,1,0,0,1-.51-.14,1.88,1.88,0,0,1-.52-.42,4.14,4.14,0,0,1-.42-.82,7,7,0,0,0-.62-1.14,3.17,3.17,0,0,0-2.6-1.26,4.17,4.17,0,0,0-2.31.69,4.67,4.67,0,0,0-1.69,2,7.64,7.64,0,0,0-.62,3.2,6.55,6.55,0,0,0,1.54,4.59,4.14,4.14,0,0,0,3.18,1.46,5.52,5.52,0,0,0,1.72-.28A6.12,6.12,0,0,0,461.7,89,14.62,14.62,0,0,0,463.56,87.19Z"/><path class="cls-6" d="M466.21,72.28V71a12.71,12.71,0,0,0,2.21-.44,8.54,8.54,0,0,0,1.66-.79h1.14v9.68a13.25,13.25,0,0,1,3.14-2,7.07,7.07,0,0,1,2.83-.65A4.61,4.61,0,0,1,480.43,78a3.74,3.74,0,0,1,1.26,2.85V88a3.66,3.66,0,0,0,.17,1.39,1,1,0,0,0,.56.49,6.43,6.43,0,0,0,1.78.15v1.23h-7.58V90.05h.56a3.83,3.83,0,0,0,1.41-.17,1.06,1.06,0,0,0,.49-.55,5.46,5.46,0,0,0,.15-1.61v-5a11.86,11.86,0,0,0-.12-2.16,2.4,2.4,0,0,0-.9-1.36,2.89,2.89,0,0,0-1.76-.51,6.15,6.15,0,0,0-2.51.59,12,12,0,0,0-2.72,1.78v7.34a2.9,2.9,0,0,0,.14,1.1.92.92,0,0,0,.49.41,4.33,4.33,0,0,0,1.35.13h.6v1.23h-7.59V90.05h.45a3.54,3.54,0,0,0,1.56-.26.83.83,0,0,0,.38-.51,11.56,11.56,0,0,0,.11-2.11V72.28Z"/><path class="cls-6" d="M499,87.19l.94.77q-2.76,3.67-6.61,3.67a6.73,6.73,0,0,1-5.06-2.14,7.32,7.32,0,0,1-2.07-5.31,7.61,7.61,0,0,1,1-3.82,6.75,6.75,0,0,1,2.67-2.63,8,8,0,0,1,3.91-.94A7,7,0,0,1,497.91,78a3.34,3.34,0,0,1,1.68,2.5,1.35,1.35,0,0,1-.39,1,1.32,1.32,0,0,1-.9.37,1.09,1.09,0,0,1-.51-.14,1.72,1.72,0,0,1-.51-.42,4.55,4.55,0,0,1-.43-.82,7.21,7.21,0,0,0-.61-1.14,3.47,3.47,0,0,0-1.12-.93,3.33,3.33,0,0,0-1.49-.33,4.17,4.17,0,0,0-2.31.69,4.65,4.65,0,0,0-1.68,2,7.49,7.49,0,0,0-.62,3.2,6.59,6.59,0,0,0,1.53,4.59,4.14,4.14,0,0,0,3.18,1.46,5.48,5.48,0,0,0,1.72-.28A6,6,0,0,0,497.1,89,14.62,14.62,0,0,0,499,87.19Z"/><path class="cls-6" d="M509,76.79a7.38,7.38,0,0,1,3.73.9,6.23,6.23,0,0,1,2.48,2.6,8.22,8.22,0,0,1,.91,3.92,8.1,8.1,0,0,1-.93,3.91,6.43,6.43,0,0,1-2.53,2.61,7.73,7.73,0,0,1-3.84.9,6.41,6.41,0,0,1-5.32-2.21,8.53,8.53,0,0,1-.86-9.07,6.56,6.56,0,0,1,2.59-2.63A7.58,7.58,0,0,1,509,76.79Zm-.12,1.42a3.61,3.61,0,0,0-2.82,1.32,7,7,0,0,0-1.47,4.78,7.33,7.33,0,0,0,1.25,4.6,3.7,3.7,0,0,0,3.06,1.4,3.86,3.86,0,0,0,2.22-.65,4.53,4.53,0,0,0,1.57-2.11,8.78,8.78,0,0,0,.6-3.39,8.6,8.6,0,0,0-.64-3.41,4,4,0,0,0-3.77-2.54Z"/><path class="cls-6" d="M531.36,87.19l.94.77a8.06,8.06,0,0,1-6.6,3.67,6.74,6.74,0,0,1-5.07-2.14,7.32,7.32,0,0,1-2.07-5.31,7.61,7.61,0,0,1,1-3.82,6.75,6.75,0,0,1,2.67-2.63,8.06,8.06,0,0,1,3.92-.94,6.92,6.92,0,0,1,4.2,1.24,3.34,3.34,0,0,1,1.68,2.5,1.35,1.35,0,0,1-.39,1,1.31,1.31,0,0,1-.89.37,1.1,1.1,0,0,1-.52-.14,2,2,0,0,1-.51-.42,4.55,4.55,0,0,1-.43-.82,6.45,6.45,0,0,0-.61-1.14,3.36,3.36,0,0,0-1.12-.93,3.3,3.3,0,0,0-1.49-.33,4.11,4.11,0,0,0-2.3.69,4.67,4.67,0,0,0-1.69,2,7.64,7.64,0,0,0-.62,3.2A6.55,6.55,0,0,0,523,88.66a4.13,4.13,0,0,0,3.18,1.46,5.52,5.52,0,0,0,1.72-.28A5.93,5.93,0,0,0,529.5,89,14,14,0,0,0,531.36,87.19Z"/><path class="cls-6" d="M533.8,72.24V71a9.56,9.56,0,0,0,3.87-1.23h1.12V84.41l5.39-4.28c.86-.68,1.29-1.13,1.29-1.36s-.09-.24-.28-.32a3,3,0,0,0-.86-.07h-.78V77.15H551v1.23a6.35,6.35,0,0,0-2,.25,6.5,6.5,0,0,0-1.73,1L543,82.9l5,5.45a7.36,7.36,0,0,0,1.17,1.11,2.66,2.66,0,0,0,.91.45,6.34,6.34,0,0,0,1.42.14v1.23h-7.8V90.05h.6a2.81,2.81,0,0,0,1.13-.14.43.43,0,0,0,.23-.37c0-.16-.14-.38-.44-.68l-.16-.17-3.89-4.47L538.79,86V88a3.79,3.79,0,0,0,.16,1.4,1.05,1.05,0,0,0,.51.51,3.23,3.23,0,0,0,1.32.18h.55v1.23H533.8V90.05a8,8,0,0,0,1.56-.1,1.21,1.21,0,0,0,.74-.57,3.73,3.73,0,0,0,.23-1.59V72.24Z"/><path class="cls-6" d="M554.79,78.42l-.79-1q3-2.45,3-4.08a4.38,4.38,0,0,0,0-.47,3.85,3.85,0,0,1-.48.16,1.85,1.85,0,0,1-.44.06,1.45,1.45,0,0,1-1.13-.46A1.71,1.71,0,0,1,555,70.3a1.68,1.68,0,0,1,1.23-.51,2.2,2.2,0,0,1,1.7.8,3,3,0,0,1,.72,2.06,5,5,0,0,1-.34,1.72,5.77,5.77,0,0,1-1,1.67A23.66,23.66,0,0,1,554.79,78.42Z"/><path class="cls-6" d="M569.14,77.15h1l1.32,4.48-1.32.44A6.83,6.83,0,0,0,568,79.23a4.89,4.89,0,0,0-2.89-1,2.83,2.83,0,0,0-1.83.55,1.6,1.6,0,0,0-.71,1.27,1.52,1.52,0,0,0,.51,1.15,6.71,6.71,0,0,0,2.25,1.13l2.85,1a8.27,8.27,0,0,1,3.3,1.85,3.35,3.35,0,0,1,.86,2.25,3.7,3.7,0,0,1-.64,2.06,4.44,4.44,0,0,1-1.87,1.58,6.43,6.43,0,0,1-2.8.58,6.51,6.51,0,0,1-4.22-1.41l-.31,1.06h-1l-1.83-4.79L560.9,86a11,11,0,0,0,2.52,3A5.84,5.84,0,0,0,567,90.2a3.21,3.21,0,0,0,2.1-.68,2,2,0,0,0,.82-1.52,1.85,1.85,0,0,0-.51-1.26,5.36,5.36,0,0,0-2-1.08L564,84.43a7.8,7.8,0,0,1-3-1.73,3.11,3.11,0,0,1-.85-2.16,3.33,3.33,0,0,1,1.38-2.61A5.38,5.38,0,0,1,565,76.79a6.46,6.46,0,0,1,2,.29,5.83,5.83,0,0,1,1.73,1Z"/><path class="cls-6" d="M78.86,1035h9v2.82a5.52,5.52,0,0,0-1.08.06.7.7,0,0,0-.36.26.67.67,0,0,0-.16.45,5.88,5.88,0,0,0,.19.95l2.73,10.57,2.39-7.53-.93-3a3.23,3.23,0,0,1-.12-.37,1.82,1.82,0,0,0-.57-1,1.87,1.87,0,0,0-1.1-.33V1035H97.4v2.82h-.69a1.69,1.69,0,0,0-1,.18.78.78,0,0,0-.31.63,5.53,5.53,0,0,0,.22,1.13l2.41,9.45,2.5-9.45a9.14,9.14,0,0,0,.28-1.22.6.6,0,0,0-.27-.53,1.85,1.85,0,0,0-1-.19h-.75V1035h7.76v2.82a3.08,3.08,0,0,0-1.19.17,1.58,1.58,0,0,0-.6.52,6.6,6.6,0,0,0-.58,1.48l-4.53,15.44H95.27l-2.38-8.17-2.54,8.17h-4.6l-4.57-15.67a5.33,5.33,0,0,0-.51-1.33,1.43,1.43,0,0,0-.61-.46,3.33,3.33,0,0,0-1.2-.15Z"/><path class="cls-6" d="M114.9,1034v8.13a12.49,12.49,0,0,1,2.56-1.24,7,7,0,0,1,2.16-.36,5.08,5.08,0,0,1,2.48.6,3.91,3.91,0,0,1,1.6,1.48,4.71,4.71,0,0,1,.52,2.39v6.11a4.43,4.43,0,0,0,.07,1.08.75.75,0,0,0,.44.41,3.93,3.93,0,0,0,1,.08h.69v2.82h-8.63v-2.82h.44a2.07,2.07,0,0,0,.86-.12.66.66,0,0,0,.33-.33,4.06,4.06,0,0,0,.08-1v-5.06a4.63,4.63,0,0,0-.12-1.32,1.13,1.13,0,0,0-.45-.55,1.42,1.42,0,0,0-.8-.21,4,4,0,0,0-1.44.28,9,9,0,0,0-1.83,1v5.83a3.52,3.52,0,0,0,.09,1,.64.64,0,0,0,.33.32,2.45,2.45,0,0,0,.93.12h.32v2.82h-8.51v-2.82h.82a2.65,2.65,0,0,0,.91-.1.56.56,0,0,0,.3-.32,2.46,2.46,0,0,0,.11-.9V1038h-2.14v-2.83a17.09,17.09,0,0,0,2.73-.41,18.8,18.8,0,0,0,2.73-.83Z"/><path class="cls-6" d="M137.21,1046.61v-1.08a3.73,3.73,0,0,0-.16-1.34,1.36,1.36,0,0,0-.59-.6,2,2,0,0,0-1.05-.25,2.42,2.42,0,0,0-.88.16,1.86,1.86,0,0,0-.63.41,3.43,3.43,0,0,0-.54,1,3.13,3.13,0,0,1-1,1.31,2.17,2.17,0,0,1-1.29.39,2.07,2.07,0,0,1-1.54-.59,1.94,1.94,0,0,1-.6-1.45,2.7,2.7,0,0,1,.61-1.74,5.87,5.87,0,0,1,2.45-1.65,9.82,9.82,0,0,1,3.66-.65,8.18,8.18,0,0,1,3.46.66,4.44,4.44,0,0,1,2,1.58,5.5,5.5,0,0,1,.56,2.79v5.24a4.5,4.5,0,0,0,.1,1.24,1,1,0,0,0,.44.47,1.42,1.42,0,0,0,.75.21,3.59,3.59,0,0,0,1.1-.24v2.86a8,8,0,0,1-2.39.4,5.52,5.52,0,0,1-2.3-.44,4.14,4.14,0,0,1-1.59-1.32,12.12,12.12,0,0,1-2.66,1.35,7.22,7.22,0,0,1-2.31.41,4.81,4.81,0,0,1-3.38-1.18,3.8,3.8,0,0,1-1.29-2.91,3.66,3.66,0,0,1,.44-1.8,4.15,4.15,0,0,1,1.34-1.44,8.85,8.85,0,0,1,2.73-1.09A26.85,26.85,0,0,1,137.21,1046.61Zm0,2.43a15.94,15.94,0,0,0-2.71.57,2.53,2.53,0,0,0-1.13.71,1.48,1.48,0,0,0-.34.89,1.27,1.27,0,0,0,.44,1,1.75,1.75,0,0,0,1.19.4,3.27,3.27,0,0,0,1.12-.25,9.71,9.71,0,0,0,1.43-.73Z"/><path class="cls-6" d="M152.34,1035.83v5h4.72V1044h-4.72v5.1a8.28,8.28,0,0,0,.18,2.22,1.49,1.49,0,0,0,.69.78,2.81,2.81,0,0,0,1.5.4,5.48,5.48,0,0,0,3-1v3.13a12.54,12.54,0,0,1-2.31.85,9.84,9.84,0,0,1-2.23.24,7.65,7.65,0,0,1-2.41-.35,5.07,5.07,0,0,1-1.79-1,3.61,3.61,0,0,1-1-1.35,5.94,5.94,0,0,1-.28-2.08v-7h-2.2v-2.81a5.89,5.89,0,0,0,2-1.09,5.5,5.5,0,0,0,1.34-1.71,7.47,7.47,0,0,0,.69-2.53Z"/><path class="cls-6" d="M184.93,1034v17a4.59,4.59,0,0,0,.09,1.23.6.6,0,0,0,.3.31,3.38,3.38,0,0,0,1.12.11h.69v2.82l-6.36.22v-1.51a10.7,10.7,0,0,1-2.41,1.29,6.63,6.63,0,0,1-2.08.35,5.57,5.57,0,0,1-3.1-.91,6.75,6.75,0,0,1-2.32-2.72,9.31,9.31,0,0,1,0-8,6.72,6.72,0,0,1,2.39-2.74,6.11,6.11,0,0,1,3.29-.92,7,7,0,0,1,1.8.23,8.55,8.55,0,0,1,1.9.8V1038h-2.14v-2.83a21.63,21.63,0,0,0,2.95-.44,18.24,18.24,0,0,0,2.45-.8Zm-4.68,17.31v-4.9a4.46,4.46,0,0,0-.13-1.31,1.83,1.83,0,0,0-.8-1,2.51,2.51,0,0,0-2.85.07,3.1,3.1,0,0,0-1.07,1.45,6.48,6.48,0,0,0-.4,2.45,5.42,5.42,0,0,0,.9,3.27,2.15,2.15,0,0,0,1.83,1,2.54,2.54,0,0,0,1-.17A9.58,9.58,0,0,0,180.25,1051.28Z"/><path class="cls-6" d="M197.09,1040.5a9.3,9.3,0,0,1,4.37,1,7.12,7.12,0,0,1,2.86,2.68,7.6,7.6,0,0,1,1,4,7.41,7.41,0,0,1-2.23,5.57,9.45,9.45,0,0,1-12,0,7.27,7.27,0,0,1-2.17-5.55,7.61,7.61,0,0,1,1-4,7.13,7.13,0,0,1,2.86-2.65A8.94,8.94,0,0,1,197.09,1040.5Zm.06,3.21a2.76,2.76,0,0,0-1.57.5,3.19,3.19,0,0,0-1.13,1.46,6.46,6.46,0,0,0-.4,2.46,7.12,7.12,0,0,0,.39,2.55,3.17,3.17,0,0,0,1.09,1.5,2.66,2.66,0,0,0,1.53.48,2.79,2.79,0,0,0,2.21-1.09,5.16,5.16,0,0,0,.93-3.39,5.47,5.47,0,0,0-.86-3.35A2.63,2.63,0,0,0,197.15,1043.71Z"/><path class="cls-6" d="M220.81,1050.05l2,2a11.71,11.71,0,0,1-3.53,2.87,8.62,8.62,0,0,1-3.87.88,7.69,7.69,0,0,1-5.63-2.26,7.42,7.42,0,0,1-2.28-5.47,7.53,7.53,0,0,1,1-3.86,7.27,7.27,0,0,1,2.84-2.74,8.48,8.48,0,0,1,4.12-1,7.79,7.79,0,0,1,2.67.43,6.09,6.09,0,0,1,3.55,3.12,8.14,8.14,0,0,1,.75,2.33,14.2,14.2,0,0,1,.09,1.9h-9.86a4.41,4.41,0,0,0,1.09,3,3.4,3.4,0,0,0,2.6,1.15,4.78,4.78,0,0,0,2.14-.59A8.68,8.68,0,0,0,220.81,1050.05Zm-2.93-4.23a3.31,3.31,0,0,0-.42-1.38,2.36,2.36,0,0,0-2-1.11,2.43,2.43,0,0,0-1.19.31,2.53,2.53,0,0,0-.92.83,3.16,3.16,0,0,0-.44,1.35Z"/><path class="cls-6" d="M234.9,1040.85h1.92l1.18,4.08-2.76,1.11a6,6,0,0,0-2-2,4.54,4.54,0,0,0-2.36-.73,2,2,0,0,0-1.16.27.75.75,0,0,0-.38.63.8.8,0,0,0,.27.57,3.41,3.41,0,0,0,1.12.56l4,1.43a13.12,13.12,0,0,1,2,1,4.05,4.05,0,0,1,1.47,1.4,3.71,3.71,0,0,1,.49,1.94,4.09,4.09,0,0,1-1.52,3.27,6.69,6.69,0,0,1-4.45,1.49,6.91,6.91,0,0,1-4-1.15l-.41.8h-1.95l-1.8-4.8,2.77-1.17a8,8,0,0,0,2.56,2.55,5.48,5.48,0,0,0,2.8.93,2.34,2.34,0,0,0,1.33-.36.84.84,0,0,0,.41-.69.88.88,0,0,0-.32-.65,4.57,4.57,0,0,0-1.42-.69l-3.16-1.09a9,9,0,0,1-3.57-2,3.6,3.6,0,0,1-.95-2.49,3.93,3.93,0,0,1,1.48-3.1,6.19,6.19,0,0,1,4.16-1.44,6.84,6.84,0,0,1,3.77,1Z"/><path class="cls-6" d="M257.71,1034v8.13a12.25,12.25,0,0,1,2.56-1.24,7,7,0,0,1,2.15-.36,5.1,5.1,0,0,1,2.49.6,4,4,0,0,1,1.6,1.48A4.82,4.82,0,0,1,267,1045v6.11a4.22,4.22,0,0,0,.08,1.08.72.72,0,0,0,.44.41,3.88,3.88,0,0,0,1,.08h.68v2.82h-8.62v-2.82h.44a2.11,2.11,0,0,0,.86-.12.64.64,0,0,0,.32-.33,3.48,3.48,0,0,0,.09-1v-5.06a4.63,4.63,0,0,0-.12-1.32,1.25,1.25,0,0,0-.45-.55,1.42,1.42,0,0,0-.8-.21,4,4,0,0,0-1.44.28,9,9,0,0,0-1.83,1v5.83a4.1,4.1,0,0,0,.08,1,.67.67,0,0,0,.34.32,2.38,2.38,0,0,0,.93.12h.32v2.82h-8.51v-2.82h.82a2.69,2.69,0,0,0,.91-.1.63.63,0,0,0,.3-.32,2.53,2.53,0,0,0,.1-.9V1038h-2.13v-2.83a17.09,17.09,0,0,0,2.73-.41,18.8,18.8,0,0,0,2.73-.83Z"/><path class="cls-6" d="M284.41,1050.05l2,2a11.69,11.69,0,0,1-3.52,2.87,8.66,8.66,0,0,1-3.88.88,7.65,7.65,0,0,1-5.62-2.26,7.71,7.71,0,0,1-1.26-9.33,7.2,7.2,0,0,1,2.84-2.74,8.44,8.44,0,0,1,4.11-1,7.79,7.79,0,0,1,2.67.43,6.25,6.25,0,0,1,2.1,1.21,6.08,6.08,0,0,1,1.45,1.91,8.48,8.48,0,0,1,.76,2.33,14.2,14.2,0,0,1,.09,1.9H276.3a4.37,4.37,0,0,0,1.09,3,3.39,3.39,0,0,0,2.6,1.15,4.85,4.85,0,0,0,2.14-.59A8.65,8.65,0,0,0,284.41,1050.05Zm-2.93-4.23a3.31,3.31,0,0,0-.42-1.38,2.36,2.36,0,0,0-2-1.11,2.43,2.43,0,0,0-1.19.31,2.38,2.38,0,0,0-.92.83,3.16,3.16,0,0,0-.45,1.35Z"/><path class="cls-6" d="M313.94,1034v17a4.59,4.59,0,0,0,.09,1.23.6.6,0,0,0,.3.31,3.38,3.38,0,0,0,1.12.11h.69v2.82l-6.36.22v-1.51a10.92,10.92,0,0,1-2.41,1.29,6.63,6.63,0,0,1-2.08.35,5.57,5.57,0,0,1-3.1-.91,6.67,6.67,0,0,1-2.32-2.72,9.31,9.31,0,0,1,0-8,6.72,6.72,0,0,1,2.39-2.74,6.11,6.11,0,0,1,3.29-.92,7,7,0,0,1,1.8.23,8.55,8.55,0,0,1,1.9.8V1038h-2.14v-2.83a21.63,21.63,0,0,0,2.95-.44,17.68,17.68,0,0,0,2.44-.8Zm-4.68,17.31v-4.9a4.46,4.46,0,0,0-.13-1.31,1.83,1.83,0,0,0-.8-1,2.51,2.51,0,0,0-1.39-.41,2.48,2.48,0,0,0-1.46.48,3.1,3.1,0,0,0-1.07,1.45,6.48,6.48,0,0,0-.4,2.45,5.42,5.42,0,0,0,.9,3.27,2.15,2.15,0,0,0,1.83,1,2.54,2.54,0,0,0,.95-.17A9.58,9.58,0,0,0,309.26,1051.28Z"/><path class="cls-6" d="M326.1,1040.5a9.3,9.3,0,0,1,4.37,1,7.12,7.12,0,0,1,2.86,2.68,7.59,7.59,0,0,1,1,4,7.4,7.4,0,0,1-2.22,5.57,8.26,8.26,0,0,1-5.95,2.13,8.34,8.34,0,0,1-6-2.15,7.3,7.3,0,0,1-2.16-5.55,7.61,7.61,0,0,1,1-4,7.07,7.07,0,0,1,2.86-2.65A8.94,8.94,0,0,1,326.1,1040.5Zm.06,3.21a2.76,2.76,0,0,0-1.57.5,3.19,3.19,0,0,0-1.13,1.46,6.45,6.45,0,0,0-.41,2.46,7.1,7.1,0,0,0,.4,2.55,3.17,3.17,0,0,0,1.09,1.5,2.62,2.62,0,0,0,1.53.48,2.79,2.79,0,0,0,2.21-1.09,5.16,5.16,0,0,0,.93-3.39,5.47,5.47,0,0,0-.86-3.35A2.63,2.63,0,0,0,326.16,1043.71Z"/><path class="cls-6" d="M344.35,1049.25h-2.79v-5.58h.91a19.41,19.41,0,0,0,3.93-.28,3.17,3.17,0,0,0,1.67-.86,1.94,1.94,0,0,0,.5-1.3,2.88,2.88,0,0,0-1.51-2.49,5.09,5.09,0,0,0-2.83-.86,2.79,2.79,0,0,0-1.41.36,4.93,4.93,0,0,0-1.35,1.36,4.27,4.27,0,0,1-1.07,1.16,2.56,2.56,0,0,1-1.23.32,2.2,2.2,0,0,1-1.58-.62,2.1,2.1,0,0,1-.63-1.55,3.47,3.47,0,0,1,2.18-3,10.43,10.43,0,0,1,5.07-1.18,11.48,11.48,0,0,1,4.87,1,7.87,7.87,0,0,1,3.29,2.59,5.83,5.83,0,0,1,1.06,3.35,5,5,0,0,1-1.19,3.35,6.71,6.71,0,0,1-3.29,2.07,19.87,19.87,0,0,1-4.6.48Zm-1.4,1a2.65,2.65,0,0,1,1.94.8,2.7,2.7,0,0,1,0,3.84,2.74,2.74,0,0,1-3.87,0,2.72,2.72,0,0,1,1.93-4.64Z"/><path class="cls-6" d="M377.53,1034.69a10.74,10.74,0,0,1,7.88,3,10.2,10.2,0,0,1,3,7.6,10.93,10.93,0,0,1-1.37,5.53,9.47,9.47,0,0,1-3.8,3.73,12.1,12.1,0,0,1-5.85,1.31,11,11,0,0,1-7.42-2.49,10.05,10.05,0,0,1-3.48-8,10.18,10.18,0,0,1,3.05-7.65A11,11,0,0,1,377.53,1034.69Zm.06,3.25a4.49,4.49,0,0,0-3.71,1.74,8.93,8.93,0,0,0-1.72,5.67,8.53,8.53,0,0,0,1.61,5.49,4.77,4.77,0,0,0,7.35,0,8.68,8.68,0,0,0,1.63-5.52,10.68,10.68,0,0,0-.7-4.09,5.49,5.49,0,0,0-1.88-2.47A4.42,4.42,0,0,0,377.59,1037.94Z"/><path class="cls-6" d="M397.51,1034v8.13a12.3,12.3,0,0,1,2.57-1.24,7,7,0,0,1,2.15-.36,5.06,5.06,0,0,1,2.48.6,4,4,0,0,1,1.61,1.48,4.82,4.82,0,0,1,.51,2.39v6.11a4.43,4.43,0,0,0,.07,1.08.77.77,0,0,0,.44.41,4,4,0,0,0,1,.08h.69v2.82h-8.63v-2.82h.44a2.07,2.07,0,0,0,.86-.12.66.66,0,0,0,.33-.33,3.48,3.48,0,0,0,.09-1v-5.06a4.52,4.52,0,0,0-.13-1.32,1.16,1.16,0,0,0-.44-.55,1.48,1.48,0,0,0-.81-.21,4.12,4.12,0,0,0-1.44.28,9,9,0,0,0-1.83,1v5.83a3.52,3.52,0,0,0,.09,1,.69.69,0,0,0,.33.32,2.45,2.45,0,0,0,.93.12h.32v2.82h-8.51v-2.82h.82a2.73,2.73,0,0,0,.92-.1.63.63,0,0,0,.3-.32,2.53,2.53,0,0,0,.1-.9V1038h-2.14v-2.83a17.09,17.09,0,0,0,2.73-.41,19,19,0,0,0,2.74-.83Z"/><path class="cls-6" d="M413.77,1061l-1.65-1.81a22.83,22.83,0,0,0,2.44-2.44,5.72,5.72,0,0,0,.82-1.68,2,2,0,0,1-.57.31,1.69,1.69,0,0,1-.58.1,2,2,0,0,1-1.48-.7,2.44,2.44,0,0,1-.65-1.7,2.66,2.66,0,0,1,.81-2,2.76,2.76,0,0,1,2-.8,3.23,3.23,0,0,1,1.67.49,3.39,3.39,0,0,1,1.25,1.35,4.31,4.31,0,0,1,.43,2,6.29,6.29,0,0,1-1.23,3.63A13.69,13.69,0,0,1,413.77,1061Z"/><path class="cls-6" d="M438.31,1034v8.13a12.25,12.25,0,0,1,2.56-1.24,7,7,0,0,1,2.15-.36,5.1,5.1,0,0,1,2.49.6,3.91,3.91,0,0,1,1.6,1.48,4.82,4.82,0,0,1,.51,2.39v6.11a4.22,4.22,0,0,0,.08,1.08.75.75,0,0,0,.44.41,3.88,3.88,0,0,0,1,.08h.69v2.82h-8.63v-2.82h.44a2.07,2.07,0,0,0,.86-.12.6.6,0,0,0,.32-.33,3.48,3.48,0,0,0,.09-1v-5.06a4.63,4.63,0,0,0-.12-1.32,1.19,1.19,0,0,0-.45-.55,1.42,1.42,0,0,0-.8-.21,4,4,0,0,0-1.44.28,9,9,0,0,0-1.83,1v5.83a3.52,3.52,0,0,0,.09,1,.61.61,0,0,0,.33.32,2.38,2.38,0,0,0,.93.12H440v2.82h-8.51v-2.82h.82a2.65,2.65,0,0,0,.91-.1.63.63,0,0,0,.3-.32,2.46,2.46,0,0,0,.11-.9V1038h-2.14v-2.83a17.09,17.09,0,0,0,2.73-.41,18.8,18.8,0,0,0,2.73-.83Z"/><path class="cls-6" d="M465,1050.05l2,2a11.69,11.69,0,0,1-3.52,2.87,8.66,8.66,0,0,1-3.88.88,7.67,7.67,0,0,1-5.62-2.26,7.71,7.71,0,0,1-1.26-9.33,7.2,7.2,0,0,1,2.84-2.74,8.44,8.44,0,0,1,4.11-1,7.79,7.79,0,0,1,2.67.43,6.25,6.25,0,0,1,2.1,1.21,6.08,6.08,0,0,1,1.45,1.91,8.48,8.48,0,0,1,.76,2.33,14.62,14.62,0,0,1,.08,1.9H456.9a4.37,4.37,0,0,0,1.09,3,3.39,3.39,0,0,0,2.6,1.15,4.81,4.81,0,0,0,2.14-.59A8.65,8.65,0,0,0,465,1050.05Zm-2.93-4.23a3.31,3.31,0,0,0-.42-1.38,2.36,2.36,0,0,0-2-1.11,2.43,2.43,0,0,0-1.19.31,2.46,2.46,0,0,0-.92.83,3.16,3.16,0,0,0-.45,1.35Z"/><path class="cls-6" d="M471.06,1043.08l-.92-4.91a8.09,8.09,0,0,1-.19-1.37,2.29,2.29,0,0,1,.5-1.51,1.53,1.53,0,0,1,1.2-.6,1.48,1.48,0,0,1,1.18.6,2.25,2.25,0,0,1,.5,1.52,5.94,5.94,0,0,1-.11,1l-.08.33-.92,4.91Z"/><path class="cls-6" d="M486.3,1040.85h1.92l1.18,4.08-2.77,1.11a5.92,5.92,0,0,0-2-2,4.6,4.6,0,0,0-2.37-.73,2,2,0,0,0-1.15.27.74.74,0,0,0-.39.63.78.78,0,0,0,.28.57,3.41,3.41,0,0,0,1.12.56l4,1.43a12.82,12.82,0,0,1,2.06,1,4.05,4.05,0,0,1,1.47,1.4,3.8,3.8,0,0,1,.49,1.94,4.09,4.09,0,0,1-1.52,3.27,6.71,6.71,0,0,1-4.46,1.49,6.9,6.9,0,0,1-4-1.15l-.41.8h-1.95l-1.8-4.8,2.77-1.17a7.89,7.89,0,0,0,2.56,2.55,5.48,5.48,0,0,0,2.8.93,2.36,2.36,0,0,0,1.33-.36.86.86,0,0,0,.41-.69.92.92,0,0,0-.32-.65,4.69,4.69,0,0,0-1.42-.69L481,1049.5a9,9,0,0,1-3.56-2,3.6,3.6,0,0,1-.95-2.49,3.9,3.9,0,0,1,1.48-3.1,6.18,6.18,0,0,1,4.16-1.44,6.78,6.78,0,0,1,3.76,1Z"/><path class="cls-6" d="M509.09,1040.5v15.6a7.1,7.1,0,0,1-.65,3.39,4.82,4.82,0,0,1-2.12,1.92,7.64,7.64,0,0,1-3.54.76,6.6,6.6,0,0,1-2.54-.44,3.52,3.52,0,0,1-1.58-1.15,2.46,2.46,0,0,1-.53-1.47,1.75,1.75,0,0,1,.65-1.37,2.06,2.06,0,0,1,2.51-.26,5.07,5.07,0,0,1,1.28,1.16,1.17,1.17,0,0,0,.81.51.88.88,0,0,0,.76-.4,2.63,2.63,0,0,0,.28-1.42v-12.8h-2.17v-2.78a14.17,14.17,0,0,0,2.84-.33,12.22,12.22,0,0,0,2.62-.92Zm-2.37-6.53a2.67,2.67,0,0,1,1.89,4.57,2.55,2.55,0,0,1-1.89.79,2.68,2.68,0,0,1,0-5.36Z"/><path class="cls-6" d="M512,1040.85l6.84-.13v9.51a4.89,4.89,0,0,0,.12,1.35,1.21,1.21,0,0,0,.46.55,1.53,1.53,0,0,0,.83.21,4,4,0,0,0,1.55-.35c.21-.1.79-.45,1.71-1v-5.72a3.22,3.22,0,0,0-.11-1,.8.8,0,0,0-.34-.4,1.88,1.88,0,0,0-.86-.13h-.86v-2.83l6.88-.13v10.49a3.43,3.43,0,0,0,.09,1,.59.59,0,0,0,.31.31,3.28,3.28,0,0,0,1,.1h.77v2.82l-6.43.18v-1.73a10.6,10.6,0,0,1-2.59,1.43,7.51,7.51,0,0,1-2.62.47,5.26,5.26,0,0,1-1.93-.34,4.53,4.53,0,0,1-1.49-.92,3.74,3.74,0,0,1-.89-1.36,5.62,5.62,0,0,1-.29-2v-6a3.2,3.2,0,0,0-.1-1.05.61.61,0,0,0-.32-.33,2.57,2.57,0,0,0-.94-.11H512Z"/><path class="cls-6" d="M542.09,1040.85H544l1.19,4.08-2.77,1.11a6,6,0,0,0-2-2,4.54,4.54,0,0,0-2.36-.73,2,2,0,0,0-1.16.27.75.75,0,0,0-.38.63.8.8,0,0,0,.27.57,3.52,3.52,0,0,0,1.12.56l4,1.43a12.71,12.71,0,0,1,2,1,4,4,0,0,1,1.47,1.4,3.71,3.71,0,0,1,.49,1.94,4.06,4.06,0,0,1-1.52,3.27,6.69,6.69,0,0,1-4.45,1.49,6.93,6.93,0,0,1-4-1.15l-.41.8h-1.94l-1.81-4.8,2.77-1.17a8.09,8.09,0,0,0,2.56,2.55,5.48,5.48,0,0,0,2.8.93,2.39,2.39,0,0,0,1.34-.36.86.86,0,0,0,.41-.69.9.9,0,0,0-.33-.65,4.45,4.45,0,0,0-1.42-.69l-3.16-1.09a9,9,0,0,1-3.57-2,3.59,3.59,0,0,1-.94-2.49,3.9,3.9,0,0,1,1.48-3.1,6.18,6.18,0,0,1,4.16-1.44,6.81,6.81,0,0,1,3.76,1Z"/><path class="cls-6" d="M554.34,1035.83v5h4.72V1044h-4.72v5.1a8.28,8.28,0,0,0,.18,2.22,1.47,1.47,0,0,0,.68.78,2.84,2.84,0,0,0,1.51.4,5.43,5.43,0,0,0,3-1v3.13a12.47,12.47,0,0,1-2.3.85,9.93,9.93,0,0,1-2.24.24,7.69,7.69,0,0,1-2.41-.35,5.11,5.11,0,0,1-1.78-1,3.51,3.51,0,0,1-1-1.35,5.9,5.9,0,0,1-.29-2.08v-7h-2.19v-2.81a5.89,5.89,0,0,0,2-1.09,5.5,5.5,0,0,0,1.34-1.71,8,8,0,0,0,.69-2.53Z"/><path class="cls-6" d="M578.63,1040.5v10.83a3.35,3.35,0,0,0,.08,1,.58.58,0,0,0,.32.27,3.37,3.37,0,0,0,1,.1h.79v2.82h-9.06v-2.82h.78a3.79,3.79,0,0,0,1-.08.61.61,0,0,0,.31-.28,1.81,1.81,0,0,0,.1-.76v-7h-2.17v-2.75a16.92,16.92,0,0,0,2.22-.25,17.26,17.26,0,0,0,1.9-.45,8.58,8.58,0,0,0,1.33-.59Zm-2.38-6.53a2.69,2.69,0,1,1-1.89,4.59,2.71,2.71,0,0,1,1.89-4.59Z"/><path class="cls-6" d="M589,1040.5v2a13.18,13.18,0,0,1,2.83-1.54,7.4,7.4,0,0,1,2.41-.41,5.16,5.16,0,0,1,2.52.6,4,4,0,0,1,1.59,1.5,5.41,5.41,0,0,1,.49,2.56v6.09a2.87,2.87,0,0,0,.11,1,.68.68,0,0,0,.35.32,3.92,3.92,0,0,0,1,.08h.72v2.82h-8.6v-2.82a9.41,9.41,0,0,0,1.1-.05.72.72,0,0,0,.48-.33,2.7,2.7,0,0,0,.12-1v-5.37a2.65,2.65,0,0,0-.22-1.35,1.24,1.24,0,0,0-1.11-.51,3.67,3.67,0,0,0-1.35.28,10.27,10.27,0,0,0-1.93,1.14v5.81a2.11,2.11,0,0,0,.2,1.17,1.51,1.51,0,0,0,1,.22h.48v2.82h-8.51v-2.82h.42a5,5,0,0,0,1.25-.09.67.67,0,0,0,.37-.31,2,2,0,0,0,.12-.86v-6.82h-2.16v-2.82a20,20,0,0,0,4.92-1.25Z"/><path class="cls-6" d="M618.83,1034v7.89a10.39,10.39,0,0,1,2.17-1.06,6.22,6.22,0,0,1,1.89-.3,5.31,5.31,0,0,1,4.12,1.82,8.1,8.1,0,0,1,1.89,5.62,8.32,8.32,0,0,1-1.9,5.72,5.92,5.92,0,0,1-4.6,2.16,6.28,6.28,0,0,1-2.11-.36,8,8,0,0,1-2.11-1.22l-.79,1.23h-3.23V1038H612v-2.83a16.87,16.87,0,0,0,5.38-1.24Zm0,11.07v4.46a5.46,5.46,0,0,0,.22,1.85,1.78,1.78,0,0,0,.75.84,2.4,2.4,0,0,0,3.18-.66,5.71,5.71,0,0,0,.91-3.44,5.55,5.55,0,0,0-.78-3.19,1.92,1.92,0,0,0-1.65-.91,3.35,3.35,0,0,0-1.22.26A7.31,7.31,0,0,0,618.83,1045Z"/><path class="cls-6" d="M630.79,1040.85l6.84-.13v9.51a4.89,4.89,0,0,0,.12,1.35,1.21,1.21,0,0,0,.46.55,1.5,1.5,0,0,0,.83.21,4.06,4.06,0,0,0,1.55-.35c.21-.1.78-.45,1.71-1v-5.72a2.88,2.88,0,0,0-.12-1,.76.76,0,0,0-.34-.4,1.81,1.81,0,0,0-.85-.13h-.86v-2.83l6.87-.13v10.49a3.31,3.31,0,0,0,.1,1,.56.56,0,0,0,.31.31,3.24,3.24,0,0,0,1,.1h.78v2.82l-6.43.18v-1.73a10.6,10.6,0,0,1-2.59,1.43,7.51,7.51,0,0,1-2.62.47,5.26,5.26,0,0,1-1.93-.34,4.53,4.53,0,0,1-1.49-.92,3.61,3.61,0,0,1-.89-1.36,5.62,5.62,0,0,1-.29-2v-6a3.52,3.52,0,0,0-.1-1.05.61.61,0,0,0-.32-.33,2.57,2.57,0,0,0-.94-.11h-.81Z"/><path class="cls-6" d="M660.89,1040.85h1.92l1.19,4.08-2.77,1.11a6,6,0,0,0-2-2,4.54,4.54,0,0,0-2.36-.73,2,2,0,0,0-1.16.27.75.75,0,0,0-.38.63.8.8,0,0,0,.27.57,3.41,3.41,0,0,0,1.12.56l4,1.43a12.71,12.71,0,0,1,2,1,4.05,4.05,0,0,1,1.47,1.4,3.71,3.71,0,0,1,.49,1.94,4.09,4.09,0,0,1-1.52,3.27,6.69,6.69,0,0,1-4.45,1.49,6.91,6.91,0,0,1-4-1.15l-.41.8h-1.95l-1.8-4.8,2.77-1.17a8,8,0,0,0,2.56,2.55,5.48,5.48,0,0,0,2.8.93,2.34,2.34,0,0,0,1.33-.36.84.84,0,0,0,.41-.69.88.88,0,0,0-.32-.65,4.57,4.57,0,0,0-1.42-.69l-3.16-1.09a9,9,0,0,1-3.57-2,3.59,3.59,0,0,1-.94-2.49,3.92,3.92,0,0,1,1.47-3.1,6.19,6.19,0,0,1,4.16-1.44,6.82,6.82,0,0,1,3.77,1Z"/><path class="cls-6" d="M673.43,1040.5v10.83a2.88,2.88,0,0,0,.09,1,.56.56,0,0,0,.31.27,3.37,3.37,0,0,0,1,.1h.79v2.82h-9v-2.82h.78a3.7,3.7,0,0,0,1-.08.63.63,0,0,0,.32-.28,2,2,0,0,0,.1-.76v-7h-2.17v-2.75a17.39,17.39,0,0,0,4.12-.7,9,9,0,0,0,1.33-.59Zm-2.37-6.53a2.73,2.73,0,1,1-1.88.8A2.57,2.57,0,0,1,671.06,1034Z"/><path class="cls-6" d="M683.84,1040.5v2a13.22,13.22,0,0,1,2.84-1.54,7.4,7.4,0,0,1,2.41-.41,5.12,5.12,0,0,1,2.51.6,3.86,3.86,0,0,1,1.59,1.5,5.4,5.4,0,0,1,.5,2.56v6.09a2.87,2.87,0,0,0,.11,1,.66.66,0,0,0,.34.32,4,4,0,0,0,1.06.08h.71v2.82h-8.59v-2.82a9.14,9.14,0,0,0,1.09-.05.74.74,0,0,0,.49-.33,2.7,2.7,0,0,0,.12-1v-5.37a2.76,2.76,0,0,0-.22-1.35,1.27,1.27,0,0,0-1.12-.51,3.67,3.67,0,0,0-1.35.28,10.6,10.6,0,0,0-1.93,1.14v5.81a2,2,0,0,0,.21,1.17,1.51,1.51,0,0,0,1,.22h.47v2.82h-8.51v-2.82H678a5,5,0,0,0,1.25-.09.65.65,0,0,0,.36-.31,1.86,1.86,0,0,0,.13-.86v-6.82h-2.17v-2.82a19.92,19.92,0,0,0,4.93-1.25Z"/><path class="cls-6" d="M711,1050.05l2,2a11.69,11.69,0,0,1-3.52,2.87,8.66,8.66,0,0,1-3.88.88,7.67,7.67,0,0,1-5.62-2.26,7.71,7.71,0,0,1-1.26-9.33,7.2,7.2,0,0,1,2.84-2.74,8.45,8.45,0,0,1,4.12-1,7.77,7.77,0,0,1,2.66.43,6.25,6.25,0,0,1,2.1,1.21,6.11,6.11,0,0,1,1.46,1.91,8.81,8.81,0,0,1,.75,2.33,14.2,14.2,0,0,1,.09,1.9h-9.86a4.37,4.37,0,0,0,1.09,3,3.39,3.39,0,0,0,2.6,1.15,4.81,4.81,0,0,0,2.14-.59A8.65,8.65,0,0,0,711,1050.05Zm-2.93-4.23a3.32,3.32,0,0,0-.41-1.38,2.39,2.39,0,0,0-.86-.81,2.24,2.24,0,0,0-1.12-.3,2.43,2.43,0,0,0-1.19.31,2.46,2.46,0,0,0-.92.83,3.16,3.16,0,0,0-.45,1.35Z"/><path class="cls-6" d="M725.09,1040.85H727l1.19,4.08-2.77,1.11a5.92,5.92,0,0,0-2-2,4.6,4.6,0,0,0-2.37-.73,2,2,0,0,0-1.16.27.75.75,0,0,0-.38.63.78.78,0,0,0,.28.57,3.33,3.33,0,0,0,1.11.56l4,1.43a12.33,12.33,0,0,1,2,1,4,4,0,0,1,1.48,1.4,3.8,3.8,0,0,1,.49,1.94,4.07,4.07,0,0,1-1.53,3.27,6.67,6.67,0,0,1-4.45,1.49,6.9,6.9,0,0,1-4-1.15l-.41.8h-2l-1.8-4.8,2.76-1.17a8,8,0,0,0,2.57,2.55,5.45,5.45,0,0,0,2.8.93,2.36,2.36,0,0,0,1.33-.36.86.86,0,0,0,.41-.69.92.92,0,0,0-.32-.65,4.69,4.69,0,0,0-1.42-.69l-3.17-1.09a9.12,9.12,0,0,1-3.57-2,3.64,3.64,0,0,1-.94-2.49,3.9,3.9,0,0,1,1.48-3.1,6.18,6.18,0,0,1,4.16-1.44,6.81,6.81,0,0,1,3.76,1Z"/><path class="cls-6" d="M740.7,1040.85h1.91l1.19,4.08L741,1046a6,6,0,0,0-2-2,4.6,4.6,0,0,0-2.37-.73,2,2,0,0,0-1.16.27.75.75,0,0,0-.38.63.8.8,0,0,0,.27.57,3.49,3.49,0,0,0,1.13.56l4,1.43a12.33,12.33,0,0,1,2.05,1,4,4,0,0,1,1.48,1.4,3.8,3.8,0,0,1,.49,1.94,4.07,4.07,0,0,1-1.53,3.27,6.67,6.67,0,0,1-4.45,1.49,6.9,6.9,0,0,1-4-1.15l-.41.8h-2l-1.8-4.8,2.77-1.17a7.89,7.89,0,0,0,2.56,2.55,5.45,5.45,0,0,0,2.8.93,2.36,2.36,0,0,0,1.33-.36.86.86,0,0,0,.41-.69.92.92,0,0,0-.32-.65,4.69,4.69,0,0,0-1.42-.69l-3.17-1.09a9.12,9.12,0,0,1-3.57-2,3.64,3.64,0,0,1-.94-2.49,3.9,3.9,0,0,1,1.48-3.1,6.18,6.18,0,0,1,4.16-1.44,6.87,6.87,0,0,1,3.77,1Z"/><path class="cls-6" d="M749.16,1061l-1.65-1.81a22.83,22.83,0,0,0,2.44-2.44,5.72,5.72,0,0,0,.82-1.68,2,2,0,0,1-.57.31,1.69,1.69,0,0,1-.58.1,2,2,0,0,1-1.48-.7,2.44,2.44,0,0,1-.65-1.7,2.63,2.63,0,0,1,.82-2,2.72,2.72,0,0,1,2-.8,3.23,3.23,0,0,1,1.67.49,3.39,3.39,0,0,1,1.25,1.35,4.31,4.31,0,0,1,.44,2,6.24,6.24,0,0,1-1.24,3.63A13.69,13.69,0,0,1,749.16,1061Z"/><path class="cls-6" d="M202.76,1076.85h9.14v2.83h-.6a3,3,0,0,0-1,.11.34.34,0,0,0-.21.32,3.76,3.76,0,0,0,.31.92l2.2,5.3,2.3-5.3a2.42,2.42,0,0,0,.26-.87.38.38,0,0,0-.21-.35,2.41,2.41,0,0,0-1-.13h-.83v-2.83H221v2.83a7.06,7.06,0,0,0-1.23.07,1,1,0,0,0-.41.22,4.64,4.64,0,0,0-.53.9l-6.62,13.58a7.61,7.61,0,0,1-2.27,3,5.1,5.1,0,0,1-3,.85,4,4,0,0,1-2.7-.89,2.58,2.58,0,0,1-1-2,2.09,2.09,0,0,1,.61-1.51,2,2,0,0,1,1.48-.64,2.47,2.47,0,0,1,1.14.29,2.42,2.42,0,0,1,.75.65,1.77,1.77,0,0,0,.37.37.51.51,0,0,0,.27.08.85.85,0,0,0,.6-.29,6.16,6.16,0,0,0,1-1.66l.56-1.2L205,1081a4.65,4.65,0,0,0-.57-1,1.1,1.1,0,0,0-.44-.28,6.2,6.2,0,0,0-1.25-.07Z"/><path class="cls-6" d="M230.39,1076.5a9.26,9.26,0,0,1,4.36,1,7.15,7.15,0,0,1,2.87,2.68,7.59,7.59,0,0,1,1,4,7.37,7.37,0,0,1-2.23,5.57,8.22,8.22,0,0,1-5.94,2.13,8.34,8.34,0,0,1-6-2.15,7.3,7.3,0,0,1-2.17-5.55,7.61,7.61,0,0,1,1-4,7.16,7.16,0,0,1,2.87-2.65A8.94,8.94,0,0,1,230.39,1076.5Zm.06,3.21a2.76,2.76,0,0,0-1.57.5,3.2,3.2,0,0,0-1.14,1.46,6.66,6.66,0,0,0-.4,2.46,6.89,6.89,0,0,0,.4,2.55,3.11,3.11,0,0,0,1.09,1.5,2.62,2.62,0,0,0,1.53.48,2.79,2.79,0,0,0,2.21-1.09,5.16,5.16,0,0,0,.92-3.39,5.48,5.48,0,0,0-.85-3.35A2.64,2.64,0,0,0,230.45,1079.71Z"/><path class="cls-6" d="M240.49,1076.85l6.85-.13v9.51a4.89,4.89,0,0,0,.12,1.35,1.19,1.19,0,0,0,.45.55,1.53,1.53,0,0,0,.83.21,4.06,4.06,0,0,0,1.56-.35c.21-.1.78-.45,1.71-1v-5.72a2.88,2.88,0,0,0-.12-1,.76.76,0,0,0-.34-.4,1.81,1.81,0,0,0-.85-.13h-.86v-2.83l6.87-.13v10.49a3,3,0,0,0,.1,1,.57.57,0,0,0,.3.31,3.32,3.32,0,0,0,1,.1h.78v2.82l-6.43.18v-1.73a10.6,10.6,0,0,1-2.59,1.43,7.51,7.51,0,0,1-2.62.47,5.31,5.31,0,0,1-1.94-.34,4.48,4.48,0,0,1-1.48-.92,3.61,3.61,0,0,1-.89-1.36,5.6,5.6,0,0,1-.3-2v-6a3.65,3.65,0,0,0-.09-1.05.64.64,0,0,0-.32-.33,2.61,2.61,0,0,0-.94-.11h-.82Z"/><path class="cls-6" d="M277.83,1070v13.19l2.82-2.38a4.17,4.17,0,0,0,.53-.49.33.33,0,0,0,.08-.21.31.31,0,0,0-.2-.29,2.09,2.09,0,0,0-.84-.11h-.56v-2.83h9v2.83a4.27,4.27,0,0,0-1.32.13,9,9,0,0,0-1.54,1l-2.85,2.08,4,4.7a3.21,3.21,0,0,0,1,.9,4.69,4.69,0,0,0,1.53.19v2.82h-9.08v-2.82h.51a1.58,1.58,0,0,0,.72-.11.3.3,0,0,0,.18-.26,2,2,0,0,0-.47-.82l-1.68-2.16-1.84,1.37v.79a2.06,2.06,0,0,0,.09.75.66.66,0,0,0,.3.32,1.43,1.43,0,0,0,.67.12h.51v2.82H271v-2.82l.68,0a3.15,3.15,0,0,0,1.05-.11.65.65,0,0,0,.34-.37,5.84,5.84,0,0,0,.07-1.28V1074H271v-2.86a17.75,17.75,0,0,0,5.42-1.21Z"/><path class="cls-6" d="M297.16,1076.5v2a13,13,0,0,1,2.83-1.54,7.4,7.4,0,0,1,2.41-.41,5.12,5.12,0,0,1,2.51.6,3.86,3.86,0,0,1,1.59,1.5,5.4,5.4,0,0,1,.5,2.56v6.09a2.87,2.87,0,0,0,.11,1,.66.66,0,0,0,.34.32,4,4,0,0,0,1.06.08h.72v2.82h-8.6v-2.82a9.58,9.58,0,0,0,1.1-.05.74.74,0,0,0,.48-.33,2.7,2.7,0,0,0,.12-1v-5.37a2.76,2.76,0,0,0-.22-1.35A1.27,1.27,0,0,0,301,1080a3.58,3.58,0,0,0-1.34.28,10.29,10.29,0,0,0-1.94,1.14v5.81a2,2,0,0,0,.21,1.17,1.51,1.51,0,0,0,1,.22h.47v2.82h-8.51v-2.82h.43a5,5,0,0,0,1.25-.09.65.65,0,0,0,.36-.31,1.86,1.86,0,0,0,.13-.86v-6.82h-2.17v-2.82a19.92,19.92,0,0,0,4.93-1.25Z"/><path class="cls-6" d="M319.2,1076.5a9.3,9.3,0,0,1,4.37,1,7.12,7.12,0,0,1,2.86,2.68,7.59,7.59,0,0,1,1,4,7.4,7.4,0,0,1-2.22,5.57,9.45,9.45,0,0,1-12,0,7.27,7.27,0,0,1-2.17-5.55,7.61,7.61,0,0,1,1-4,7.07,7.07,0,0,1,2.86-2.65A8.94,8.94,0,0,1,319.2,1076.5Zm.06,3.21a2.76,2.76,0,0,0-1.57.5,3.19,3.19,0,0,0-1.13,1.46,6.46,6.46,0,0,0-.4,2.46,7.12,7.12,0,0,0,.39,2.55,3.17,3.17,0,0,0,1.09,1.5,2.66,2.66,0,0,0,1.53.48,2.79,2.79,0,0,0,2.21-1.09,5.16,5.16,0,0,0,.93-3.39,5.47,5.47,0,0,0-.86-3.35A2.63,2.63,0,0,0,319.26,1079.71Z"/><path class="cls-6" d="M328.78,1076.85h7.75v2.83h-.32a1.39,1.39,0,0,0-.72.12.45.45,0,0,0-.2.39,2.12,2.12,0,0,0,.13.63l2,6.32,1.77-5-.46-1.37a1.78,1.78,0,0,0-.5-.86,1.47,1.47,0,0,0-.89-.28v-2.83h7.37v2.83h-.6a1.13,1.13,0,0,0-.69.15.5.5,0,0,0-.19.42,2.65,2.65,0,0,0,.17.76l1.76,5.26L347,1081a2.5,2.5,0,0,0,.17-.77.46.46,0,0,0-.21-.42,1.82,1.82,0,0,0-.87-.14h-.34v-2.83h6.58v2.83a3,3,0,0,0-.93.09.94.94,0,0,0-.38.28,3.9,3.9,0,0,0-.46,1l-3.94,10.46h-3.88l-2.18-5.87-2.22,5.87h-3.91L330.57,1081a3.19,3.19,0,0,0-.5-.92.83.83,0,0,0-.37-.32,3.57,3.57,0,0,0-.92-.09Z"/><path class="cls-6" d="M356.47,1097l-1.66-1.81a22.83,22.83,0,0,0,2.44-2.44,5.73,5.73,0,0,0,.83-1.68,2.29,2.29,0,0,1-.57.31,1.74,1.74,0,0,1-.59.1,2,2,0,0,1-1.48-.7,2.43,2.43,0,0,1-.64-1.7,2.66,2.66,0,0,1,.81-2,2.72,2.72,0,0,1,2-.8,3.2,3.2,0,0,1,1.67.49,3.32,3.32,0,0,1,1.25,1.35,4.31,4.31,0,0,1,.44,2,6.29,6.29,0,0,1-1.23,3.63A13.69,13.69,0,0,1,356.47,1097Z"/><path class="cls-6" d="M380.64,1071.83v5h4.71V1080h-4.71v5.1a8.28,8.28,0,0,0,.18,2.22,1.47,1.47,0,0,0,.68.78,2.82,2.82,0,0,0,1.51.4,5.43,5.43,0,0,0,3-1v3.13a12.74,12.74,0,0,1-2.3.85,9.93,9.93,0,0,1-2.24.24,7.69,7.69,0,0,1-2.41-.35,5,5,0,0,1-1.78-1,3.51,3.51,0,0,1-1-1.35A5.9,5.9,0,0,1,376,1087v-7h-2.19v-2.81a5.75,5.75,0,0,0,2-1.09,5.23,5.23,0,0,0,1.34-1.71,7.7,7.7,0,0,0,.7-2.53Z"/><path class="cls-6" d="M394.8,1070v8.13a12.3,12.3,0,0,1,2.57-1.24,7,7,0,0,1,2.15-.36,5.06,5.06,0,0,1,2.48.6,4,4,0,0,1,1.61,1.48,4.82,4.82,0,0,1,.51,2.39v6.11a4.43,4.43,0,0,0,.07,1.08.77.77,0,0,0,.44.41,3.93,3.93,0,0,0,1,.08h.69v2.82h-8.63v-2.82h.44a2.16,2.16,0,0,0,.87-.12.68.68,0,0,0,.32-.33,3.48,3.48,0,0,0,.09-1v-5.06a4.52,4.52,0,0,0-.13-1.32,1.16,1.16,0,0,0-.44-.55,1.48,1.48,0,0,0-.81-.21,4.12,4.12,0,0,0-1.44.28,9,9,0,0,0-1.83,1v5.83a3.52,3.52,0,0,0,.09,1,.69.69,0,0,0,.33.32,2.45,2.45,0,0,0,.93.12h.32v2.82H388v-2.82h.82a2.73,2.73,0,0,0,.92-.1.63.63,0,0,0,.3-.32,2.53,2.53,0,0,0,.1-.9V1074H388v-2.83a17.09,17.09,0,0,0,2.73-.41,18.8,18.8,0,0,0,2.73-.83Z"/><path class="cls-6" d="M421.51,1086.05l2,2a11.57,11.57,0,0,1-3.52,2.87,8.65,8.65,0,0,1-3.87.88,7.68,7.68,0,0,1-5.63-2.26,7.42,7.42,0,0,1-2.28-5.47,7.53,7.53,0,0,1,1-3.86,7.2,7.2,0,0,1,2.84-2.74,8.48,8.48,0,0,1,4.12-1,7.77,7.77,0,0,1,2.66.43,6.07,6.07,0,0,1,3.56,3.12,8.81,8.81,0,0,1,.75,2.33,14.2,14.2,0,0,1,.09,1.9h-9.86a4.37,4.37,0,0,0,1.09,3,3.4,3.4,0,0,0,2.6,1.15,4.78,4.78,0,0,0,2.14-.59A8.85,8.85,0,0,0,421.51,1086.05Zm-2.93-4.23a3.31,3.31,0,0,0-.42-1.38,2.36,2.36,0,0,0-.85-.81,2.3,2.3,0,0,0-1.13-.3,2.43,2.43,0,0,0-1.19.31,2.46,2.46,0,0,0-.92.83,3,3,0,0,0-.44,1.35Z"/><path class="cls-6" d="M435,1076.85h7.75v2.83h-.32a1.34,1.34,0,0,0-.72.12.46.46,0,0,0-.21.39,2.5,2.5,0,0,0,.13.63l2,6.32,1.77-5-.46-1.37a1.86,1.86,0,0,0-.51-.86,1.44,1.44,0,0,0-.88-.28v-2.83h7.36v2.83h-.6a1.17,1.17,0,0,0-.69.15.52.52,0,0,0-.19.42,2.42,2.42,0,0,0,.18.76l1.76,5.26,1.79-5.26a2.85,2.85,0,0,0,.17-.77.46.46,0,0,0-.21-.42,1.84,1.84,0,0,0-.88-.14h-.33v-2.83h6.58v2.83a3,3,0,0,0-.93.09,1,1,0,0,0-.39.28,4,4,0,0,0-.45,1l-3.95,10.46h-3.88l-2.18-5.87-2.21,5.87h-3.91L436.75,1081a3.18,3.18,0,0,0-.49-.92.8.8,0,0,0-.38-.32,3.47,3.47,0,0,0-.91-.09Z"/><path class="cls-6" d="M468.7,1082.61v-1.08a3.73,3.73,0,0,0-.16-1.34,1.34,1.34,0,0,0-.58-.6,2.05,2.05,0,0,0-1.06-.25,2.5,2.5,0,0,0-.88.16,2,2,0,0,0-.63.41,4,4,0,0,0-.54,1,3.12,3.12,0,0,1-.94,1.31,2.2,2.2,0,0,1-1.3.39,2.09,2.09,0,0,1-1.54-.59,1.94,1.94,0,0,1-.6-1.45,2.71,2.71,0,0,1,.62-1.74,5.83,5.83,0,0,1,2.44-1.65,9.9,9.9,0,0,1,3.66-.65,8.23,8.23,0,0,1,3.47.66,4.41,4.41,0,0,1,2,1.58,5.39,5.39,0,0,1,.57,2.79v5.24a4.5,4.5,0,0,0,.1,1.24.94.94,0,0,0,.44.47,1.36,1.36,0,0,0,.74.21,3.54,3.54,0,0,0,1.1-.24v2.86a8,8,0,0,1-2.38.4,5.57,5.57,0,0,1-2.31-.44,4.21,4.21,0,0,1-1.59-1.32,11.9,11.9,0,0,1-2.66,1.35,7.22,7.22,0,0,1-2.31.41,4.85,4.85,0,0,1-3.38-1.18,3.8,3.8,0,0,1-1.29-2.91,3.67,3.67,0,0,1,.45-1.8,4.11,4.11,0,0,1,1.33-1.44,8.82,8.82,0,0,1,2.74-1.09A26.72,26.72,0,0,1,468.7,1082.61Zm0,2.43a15.94,15.94,0,0,0-2.71.57,2.49,2.49,0,0,0-1.12.71,1.42,1.42,0,0,0-.34.89,1.24,1.24,0,0,0,.44,1,1.73,1.73,0,0,0,1.19.4,3.32,3.32,0,0,0,1.12-.25,9.65,9.65,0,0,0,1.42-.73Z"/><path class="cls-6" d="M476.36,1076.85h9.14v2.83h-.6a3,3,0,0,0-1,.11.34.34,0,0,0-.21.32,3.76,3.76,0,0,0,.31.92l2.2,5.3,2.3-5.3a2.49,2.49,0,0,0,.27-.87.38.38,0,0,0-.22-.35,2.39,2.39,0,0,0-1-.13h-.84v-2.83h7.91v2.83a6.91,6.91,0,0,0-1.22.07.85.85,0,0,0-.41.22,4.16,4.16,0,0,0-.53.9l-6.63,13.58a7.61,7.61,0,0,1-2.27,3,5.08,5.08,0,0,1-3,.85,4,4,0,0,1-2.7-.89,2.58,2.58,0,0,1-1-2,2.09,2.09,0,0,1,.61-1.51,2,2,0,0,1,1.48-.64,2.55,2.55,0,0,1,1.15.29,2.52,2.52,0,0,1,.74.65,1.55,1.55,0,0,0,.38.37.47.47,0,0,0,.27.08.89.89,0,0,0,.6-.29,6.46,6.46,0,0,0,1-1.66l.56-1.2-5-10.44a4.34,4.34,0,0,0-.56-1,1.13,1.13,0,0,0-.45-.28,6.13,6.13,0,0,0-1.25-.07Z"/><path class="cls-6" d="M512.72,1076.5v2a10.13,10.13,0,0,1,2.59-1.47,7.77,7.77,0,0,1,2.68-.48,5.39,5.39,0,0,1,1.66.26,3.75,3.75,0,0,1,2.31,1.78,10.68,10.68,0,0,1,2.72-1.56,7.61,7.61,0,0,1,2.65-.48,5,5,0,0,1,2.12.43,4,4,0,0,1,1.55,1.15,3.54,3.54,0,0,1,.76,1.57,7.45,7.45,0,0,1,.12,1.54v6.06a2.74,2.74,0,0,0,.11,1,.75.75,0,0,0,.38.34,3.45,3.45,0,0,0,1.06.09h.65v2.82h-8.54v-2.82a4.41,4.41,0,0,0,1.19-.1.65.65,0,0,0,.36-.31,2.25,2.25,0,0,0,.12-.93V1082a3.58,3.58,0,0,0-.13-1.22,1.12,1.12,0,0,0-.48-.52,1.69,1.69,0,0,0-.86-.21,3.44,3.44,0,0,0-1.23.26,11.13,11.13,0,0,0-2,1.12v5.74a2.84,2.84,0,0,0,.12,1.07.72.72,0,0,0,.4.34,4.84,4.84,0,0,0,1.15.09v2.82h-8v-2.82a4.59,4.59,0,0,0,1.21-.11.62.62,0,0,0,.34-.32,2.88,2.88,0,0,0,.12-1.07v-5a3.71,3.71,0,0,0-.21-1.54,1.19,1.19,0,0,0-1.14-.57,4.47,4.47,0,0,0-.87.1,4.09,4.09,0,0,0-.9.33c-.15.07-.56.33-1.2.76l-.34.22v5.71a3.43,3.43,0,0,0,.09,1,.68.68,0,0,0,.34.33,2.06,2.06,0,0,0,.89.14h.39v2.82h-8.55v-2.82H507a4.06,4.06,0,0,0,1.14-.1.66.66,0,0,0,.34-.34,2.88,2.88,0,0,0,.12-1.06v-6.58h-2.17v-2.82a16.14,16.14,0,0,0,5-1.25Z"/><path class="cls-6" d="M549.3,1086.05l2,2a11.71,11.71,0,0,1-3.53,2.87,8.59,8.59,0,0,1-3.87.88,7.69,7.69,0,0,1-5.63-2.26,7.42,7.42,0,0,1-2.28-5.47,7.53,7.53,0,0,1,1-3.86,7.29,7.29,0,0,1,2.85-2.74,8.44,8.44,0,0,1,4.11-1,7.79,7.79,0,0,1,2.67.43,6.09,6.09,0,0,1,3.55,3.12,8.14,8.14,0,0,1,.75,2.33,14.2,14.2,0,0,1,.09,1.9h-9.86a4.37,4.37,0,0,0,1.1,3,3.37,3.37,0,0,0,2.6,1.15,4.77,4.77,0,0,0,2.13-.59A8.53,8.53,0,0,0,549.3,1086.05Zm-2.93-4.23a3.31,3.31,0,0,0-.42-1.38,2.36,2.36,0,0,0-2-1.11,2.46,2.46,0,0,0-1.19.31,2.43,2.43,0,0,0-.91.83,3.16,3.16,0,0,0-.45,1.35Z"/><path class="cls-6" d="M560,1076.5v2a13.18,13.18,0,0,1,2.83-1.54,7.4,7.4,0,0,1,2.41-.41,5.09,5.09,0,0,1,2.51.6,3.86,3.86,0,0,1,1.59,1.5,5.28,5.28,0,0,1,.5,2.56v6.09a2.87,2.87,0,0,0,.11,1,.68.68,0,0,0,.35.32,3.87,3.87,0,0,0,1,.08H572v2.82h-8.6v-2.82a9.41,9.41,0,0,0,1.1-.05.74.74,0,0,0,.48-.33,2.7,2.7,0,0,0,.12-1v-5.37a2.65,2.65,0,0,0-.22-1.35,1.27,1.27,0,0,0-1.11-.51,3.67,3.67,0,0,0-1.35.28,10.61,10.61,0,0,0-1.94,1.14v5.81a2,2,0,0,0,.21,1.17,1.51,1.51,0,0,0,1,.22h.47v2.82h-8.51v-2.82h.43a5,5,0,0,0,1.25-.09.7.7,0,0,0,.37-.31,2,2,0,0,0,.12-.86v-6.82h-2.17v-2.82a19.92,19.92,0,0,0,4.93-1.25Z"/><path class="cls-6" d="M592.91,1082.61v-1.08a4,4,0,0,0-.16-1.34,1.36,1.36,0,0,0-.59-.6,2,2,0,0,0-1-.25,2.42,2.42,0,0,0-.88.16,1.77,1.77,0,0,0-.63.41,3.43,3.43,0,0,0-.54,1,3.13,3.13,0,0,1-.95,1.31,2.2,2.2,0,0,1-1.3.39,2.06,2.06,0,0,1-1.53-.59,2,2,0,0,1-.61-1.45,2.71,2.71,0,0,1,.62-1.74,5.87,5.87,0,0,1,2.45-1.65,9.82,9.82,0,0,1,3.66-.65,8.18,8.18,0,0,1,3.46.66,4.44,4.44,0,0,1,2,1.58,5.5,5.5,0,0,1,.56,2.79v5.24a4.5,4.5,0,0,0,.1,1.24,1,1,0,0,0,.44.47,1.39,1.39,0,0,0,.75.21,3.59,3.59,0,0,0,1.1-.24v2.86a8,8,0,0,1-2.39.4,5.49,5.49,0,0,1-2.3-.44,4.24,4.24,0,0,1-1.6-1.32,11.7,11.7,0,0,1-2.66,1.35,7.12,7.12,0,0,1-2.3.41,4.86,4.86,0,0,1-3.39-1.18,3.8,3.8,0,0,1-1.29-2.91,3.67,3.67,0,0,1,.45-1.8,4.21,4.21,0,0,1,1.33-1.44,8.93,8.93,0,0,1,2.74-1.09A26.85,26.85,0,0,1,592.91,1082.61Zm0,2.43a15.94,15.94,0,0,0-2.71.57,2.47,2.47,0,0,0-1.13.71,1.42,1.42,0,0,0-.34.89,1.27,1.27,0,0,0,.44,1,1.75,1.75,0,0,0,1.19.4,3.32,3.32,0,0,0,1.12-.25,10.23,10.23,0,0,0,1.43-.73Z"/><path class="cls-6" d="M607.94,1076.5v2.13a8.56,8.56,0,0,1,2-1.68,3.54,3.54,0,0,1,1.65-.45,2.53,2.53,0,0,1,1.29.33,2.4,2.4,0,0,1,.89,1,2.74,2.74,0,0,1,.33,1.31,2.53,2.53,0,0,1-.61,1.67,2.06,2.06,0,0,1-1.71.75,2.75,2.75,0,0,1-.52,0,9.69,9.69,0,0,1-1-.3,2.52,2.52,0,0,0-.63-.11,3.22,3.22,0,0,0-1.27.48v5.73a2.37,2.37,0,0,0,.12,1,.65.65,0,0,0,.35.32,3.45,3.45,0,0,0,1.09.11h.64v2.82h-9v-2.82h.76a3.31,3.31,0,0,0,1-.09.61.61,0,0,0,.3-.31,2.85,2.85,0,0,0,.1-1v-6.73h-2.17v-2.81a15.33,15.33,0,0,0,5-1.23Z"/><path class="cls-6" d="M628.5,1086.05l2,2a11.69,11.69,0,0,1-3.52,2.87,8.66,8.66,0,0,1-3.88.88,7.67,7.67,0,0,1-5.62-2.26,7.71,7.71,0,0,1-1.26-9.33,7.2,7.2,0,0,1,2.84-2.74,8.45,8.45,0,0,1,4.12-1,7.77,7.77,0,0,1,2.66.43,6.25,6.25,0,0,1,2.1,1.21,6.11,6.11,0,0,1,1.46,1.91,8.81,8.81,0,0,1,.75,2.33,14.2,14.2,0,0,1,.09,1.9h-9.86a4.37,4.37,0,0,0,1.09,3,3.39,3.39,0,0,0,2.6,1.15,4.81,4.81,0,0,0,2.14-.59A8.65,8.65,0,0,0,628.5,1086.05Zm-2.93-4.23a3.32,3.32,0,0,0-.41-1.38,2.39,2.39,0,0,0-.86-.81,2.24,2.24,0,0,0-1.12-.3,2.43,2.43,0,0,0-1.19.31,2.46,2.46,0,0,0-.92.83,3.16,3.16,0,0,0-.45,1.35Z"/><path class="cls-6" d="M636.65,1086.26a2.73,2.73,0,0,1,1.93,4.65,2.74,2.74,0,0,1-3.87,0,2.73,2.73,0,0,1,1.94-4.65Z"/><path class="cls-6" d="M232.23,1131.52h1.05l1.57,6.3-1.37.41a10.83,10.83,0,0,0-3.42-4.17,6.48,6.48,0,0,0-3.89-1.28,5.67,5.67,0,0,0-2.31.46,3.61,3.61,0,0,0-1.54,1.2,2.45,2.45,0,0,0-.12,2.82,3.49,3.49,0,0,0,1.21,1.13,11.5,11.5,0,0,0,2.64,1l3.82,1.13a17.56,17.56,0,0,1,2,.8,8.4,8.4,0,0,1,2.09,1.23,4.84,4.84,0,0,1,1.17,1.6,5,5,0,0,1,.42,2,5.45,5.45,0,0,1-2.13,4.25,8.16,8.16,0,0,1-5.51,1.83,8.88,8.88,0,0,1-3.12-.51,10.67,10.67,0,0,1-3-1.79l-.67,2h-1l-1.36-7.34,1.36-.28a10.91,10.91,0,0,0,2,3.46,8.45,8.45,0,0,0,2.74,2.14,6.87,6.87,0,0,0,3.05.73,5.74,5.74,0,0,0,3.69-1.27,3.19,3.19,0,0,0,1.32-2.52,2.82,2.82,0,0,0-.95-2.19,9.77,9.77,0,0,0-3.46-1.58l-3.66-1a9.35,9.35,0,0,1-4.34-2.29,4.62,4.62,0,0,1-1.26-3.19,4.53,4.53,0,0,1,.82-2.6,6.19,6.19,0,0,1,2.52-2,8.58,8.58,0,0,1,3.72-.81,9.19,9.19,0,0,1,3.26.59,7,7,0,0,1,2,1.17Z"/><path class="cls-6" d="M237.72,1132.92v-1.22a9.88,9.88,0,0,0,3.87-1.23h1.12v14.62l5.39-4.28c.86-.68,1.29-1.14,1.29-1.36s-.09-.25-.28-.32a2.82,2.82,0,0,0-.86-.08h-.78v-1.23h7.43v1.23a6.31,6.31,0,0,0-2,.26,6.71,6.71,0,0,0-1.73,1l-4.23,3.26,5,5.46a7.36,7.36,0,0,0,1.17,1.11,2.66,2.66,0,0,0,.91.45,6.34,6.34,0,0,0,1.42.14V1152h-7.8v-1.23h.6a2.81,2.81,0,0,0,1.13-.14.41.41,0,0,0,.23-.38c0-.15-.14-.38-.44-.67l-.16-.18-3.89-4.46-2.41,1.81v1.92a4.06,4.06,0,0,0,.16,1.41,1.1,1.1,0,0,0,.51.51,3.23,3.23,0,0,0,1.32.18h.55V1152h-7.53v-1.23a9,9,0,0,0,1.56-.1,1.19,1.19,0,0,0,.74-.58,3.68,3.68,0,0,0,.23-1.58v-15.55Z"/><path class="cls-6" d="M256.42,1139.92v-1.22a9.31,9.31,0,0,0,3.93-1.23h1.07v11.75a2,2,0,0,0,.17.92,1,1,0,0,0,.49.45,3.3,3.3,0,0,0,1.15.14h.69V1152h-7.5v-1.23h.6a3.17,3.17,0,0,0,1.32-.18.94.94,0,0,0,.48-.5,4.88,4.88,0,0,0,.14-1.5v-8.63Zm3.72-9.06a1.64,1.64,0,0,1,1.2.5,1.56,1.56,0,0,1,.5,1.19,1.6,1.6,0,0,1-.5,1.2,1.7,1.7,0,0,1-2.9-1.2,1.6,1.6,0,0,1,.5-1.19A1.64,1.64,0,0,1,260.14,1130.86Z"/><path class="cls-6" d="M265.52,1139.92v-1.22a8.58,8.58,0,0,0,1.9-.35,10.28,10.28,0,0,0,1.9-.88h1.09v2.77a8.16,8.16,0,0,1,2.42-2,5.28,5.28,0,0,1,2.47-.75,2.65,2.65,0,0,1,1.72.51,1.57,1.57,0,0,1,.63,1.25,1.26,1.26,0,0,1-.42.93,1.38,1.38,0,0,1-1,.4,1.27,1.27,0,0,1-.46-.07,3.76,3.76,0,0,1-.55-.32,2.68,2.68,0,0,0-1.35-.53,2.85,2.85,0,0,0-1.61.61,9.23,9.23,0,0,0-1.75,1.56v6.75a4.92,4.92,0,0,0,.1,1.19,1.43,1.43,0,0,0,.31.55,1.33,1.33,0,0,0,.55.33,4.59,4.59,0,0,0,1.12.1h.49V1152H265.5v-1.23h.63a2.91,2.91,0,0,0,1.18-.16,1.38,1.38,0,0,0,.56-.61,3.74,3.74,0,0,0,.18-1.4v-8.64Z"/><path class="cls-6" d="M278.47,1132.92v-1.22a8.83,8.83,0,0,0,1.87-.35,11.81,11.81,0,0,0,2-.88h1.07v8.93a10.38,10.38,0,0,1,2.66-1.45,8.25,8.25,0,0,1,2.78-.48,5.54,5.54,0,0,1,3,.88,6,6,0,0,1,2.19,2.48,8.44,8.44,0,0,1,.8,3.79,8.08,8.08,0,0,1-2,5.64,6.07,6.07,0,0,1-4.71,2,6.41,6.41,0,0,1-3.07-.72,6.85,6.85,0,0,1-1.93-1.62l-.8,2H281v-19Zm5,7.94v5.63a6.51,6.51,0,0,0,.19,1.87,3,3,0,0,0,.79,1.1,4.36,4.36,0,0,0,1.39.89,4.26,4.26,0,0,0,1.65.33,4.34,4.34,0,0,0,2.37-.68,4.66,4.66,0,0,0,1.69-2,7.77,7.77,0,0,0,.61-3.24,6.52,6.52,0,0,0-1.3-4.25,3.54,3.54,0,0,0-2.92-1.31,6,6,0,0,0-2,.35A13.07,13.07,0,0,0,283.43,1140.86Z"/><path class="cls-6" d="M307.88,1143.48v-1.6a2.73,2.73,0,0,0-.91-2.32,4.09,4.09,0,0,0-2.57-.7,4.86,4.86,0,0,0-1.44.2,2.6,2.6,0,0,0-1,.54,2.13,2.13,0,0,0-.55.79c-.05.1-.16.52-.35,1.24-.22.88-.68,1.32-1.36,1.32a1.24,1.24,0,0,1-.95-.39,1.48,1.48,0,0,1-.35-1,3.05,3.05,0,0,1,.71-1.89,5.17,5.17,0,0,1,2.19-1.54,9,9,0,0,1,3.48-.61,8,8,0,0,1,3.21.58,4,4,0,0,1,2,1.66,5.76,5.76,0,0,1,.44,2.72v5.64a9.71,9.71,0,0,0,.08,1.56,1.62,1.62,0,0,0,.56.94,1.66,1.66,0,0,0,1,.32,5.19,5.19,0,0,0,1.61-.31v1.28a8.12,8.12,0,0,1-2.18.35,4.56,4.56,0,0,1-1.76-.3,2.85,2.85,0,0,1-1.16-.85,3,3,0,0,1-.59-1.34,13.05,13.05,0,0,1-3.17,1.93,7.89,7.89,0,0,1-2.88.56,4.83,4.83,0,0,1-3.28-1.1,3.32,3.32,0,0,1-1.26-2.58,3.38,3.38,0,0,1,.47-1.7,4.11,4.11,0,0,1,1.4-1.42,9.63,9.63,0,0,1,3-1.08A47.1,47.1,0,0,1,307.88,1143.48Zm0,1.27c-2.26.33-3.67.56-4.2.69a7.39,7.39,0,0,0-2.29.81,2.78,2.78,0,0,0-1,.94,2.1,2.1,0,0,0-.3,1.08,2,2,0,0,0,.33,1.1,2.29,2.29,0,0,0,.94.85,2.79,2.79,0,0,0,1.27.3,6.18,6.18,0,0,0,2.15-.45,14.59,14.59,0,0,0,3.08-1.77Z"/><path class="cls-6" d="M314.58,1132.92v-1.22a9.13,9.13,0,0,0,3.88-1.23h1.08v18a4.12,4.12,0,0,0,.15,1.44,1.26,1.26,0,0,0,.56.6,3.55,3.55,0,0,0,1.4.19h.47V1152h-7.54v-1.23h.76a2.11,2.11,0,0,0,1.07-.22,1.21,1.21,0,0,0,.52-.6,4.84,4.84,0,0,0,.15-1.51v-15.48Z"/><path class="cls-6" d="M323.57,1132.92v-1.22a9.13,9.13,0,0,0,3.88-1.23h1.09v18a4.49,4.49,0,0,0,.14,1.44,1.31,1.31,0,0,0,.56.6,3.58,3.58,0,0,0,1.41.19h.47V1152h-7.55v-1.23h.76a2.18,2.18,0,0,0,1.08-.22,1.24,1.24,0,0,0,.51-.6,4.75,4.75,0,0,0,.16-1.51v-15.48Z"/><path class="cls-6" d="M342.58,1131.52h8.08a18.46,18.46,0,0,1,5.08.47,6.13,6.13,0,0,1,2.88,1.91,5.16,5.16,0,0,1,1.13,3.42,5.42,5.42,0,0,1-.86,3.07,5.94,5.94,0,0,1-2.53,2.2,12.37,12.37,0,0,1-4.69.65h-3.74v5.25a5.25,5.25,0,0,0,.13,1.48,1.13,1.13,0,0,0,.49.59,3,3,0,0,0,1.24.17h.7V1152h-7.91v-1.23h.49a3.86,3.86,0,0,0,1.38-.17,1.05,1.05,0,0,0,.53-.53,3.66,3.66,0,0,0,.17-1.35v-14a3.37,3.37,0,0,0-.16-1.3.94.94,0,0,0-.51-.49,4.22,4.22,0,0,0-1.41-.16h-.49Zm5.35,1.6v8.57h3.16a9.29,9.29,0,0,0,3.35-.42,3.57,3.57,0,0,0,1.59-1.48,4.65,4.65,0,0,0,.63-2.45,4.31,4.31,0,0,0-.73-2.57,3.6,3.6,0,0,0-2-1.4,14.85,14.85,0,0,0-3.43-.25Z"/><path class="cls-6" d="M360.91,1139.92v-1.22a8.58,8.58,0,0,0,1.9-.35,10.28,10.28,0,0,0,1.9-.88h1.09v2.77a8.16,8.16,0,0,1,2.42-2,5.28,5.28,0,0,1,2.48-.75,2.64,2.64,0,0,1,1.71.51,1.57,1.57,0,0,1,.63,1.25,1.26,1.26,0,0,1-.42.93,1.38,1.38,0,0,1-1,.4,1.27,1.27,0,0,1-.46-.07,3.76,3.76,0,0,1-.55-.32,2.68,2.68,0,0,0-1.35-.53,2.85,2.85,0,0,0-1.61.61,9.14,9.14,0,0,0-1.74,1.56v6.75a5.09,5.09,0,0,0,.09,1.19,1.33,1.33,0,0,0,.32.55,1.23,1.23,0,0,0,.54.33,4.63,4.63,0,0,0,1.13.1h.48V1152H360.9v-1.23h.63a2.89,2.89,0,0,0,1.17-.16,1.38,1.38,0,0,0,.56-.61,3.74,3.74,0,0,0,.18-1.4v-8.64Z"/><path class="cls-6" d="M381.52,1137.47a7.49,7.49,0,0,1,3.73.89,6.32,6.32,0,0,1,2.48,2.61,8.17,8.17,0,0,1,.91,3.91,8,8,0,0,1-.93,3.91,6.42,6.42,0,0,1-2.54,2.62,7.67,7.67,0,0,1-3.83.9,6.44,6.44,0,0,1-5.32-2.21,8.55,8.55,0,0,1-.86-9.08,6.59,6.59,0,0,1,2.59-2.62A7.58,7.58,0,0,1,381.52,1137.47Zm-.12,1.42a3.61,3.61,0,0,0-2.82,1.32,6.94,6.94,0,0,0-1.47,4.78,7.33,7.33,0,0,0,1.25,4.6,3.73,3.73,0,0,0,3.06,1.4,3.87,3.87,0,0,0,2.22-.66,4.55,4.55,0,0,0,1.57-2.1,8.78,8.78,0,0,0,.6-3.39,8.57,8.57,0,0,0-.64-3.41,4.06,4.06,0,0,0-1.5-1.87A4,4,0,0,0,381.4,1138.89Z"/><path class="cls-6" d="M400.05,1132.94v-1.24a8.92,8.92,0,0,0,1.82-.34,14.74,14.74,0,0,0,2.08-.89h1.1v17.77a12.8,12.8,0,0,0,.05,1.49,1.29,1.29,0,0,0,.5.78,3,3,0,0,0,1.36.22h.63V1152l-5.08.23v-2.33a10.13,10.13,0,0,1-2.75,1.89,6.41,6.41,0,0,1-2.57.56,5.48,5.48,0,0,1-4.4-2.13A7.87,7.87,0,0,1,391,1145a8.3,8.3,0,0,1,.93-3.91,6.72,6.72,0,0,1,2.46-2.72,6.17,6.17,0,0,1,3.34-.94,6.5,6.5,0,0,1,4.74,1.93v-6.46Zm2.46,15.47v-5.53a3.84,3.84,0,0,0-.44-1.94,3.76,3.76,0,0,0-1.47-1.32,4.3,4.3,0,0,0-4.44.14,4.65,4.65,0,0,0-1.68,2,7.41,7.41,0,0,0-.61,3.17,7.6,7.6,0,0,0,.56,3,4.53,4.53,0,0,0,1.52,2,3.38,3.38,0,0,0,1.95.67,5.44,5.44,0,0,0,2.22-.57A8.71,8.71,0,0,0,402.51,1148.41Z"/><path class="cls-6" d="M408.74,1137.82l5.55-.22V1147a4.65,4.65,0,0,0,.34,2,2.49,2.49,0,0,0,1.06,1.14,3.29,3.29,0,0,0,1.66.4,6.93,6.93,0,0,0,2.66-.63,11.87,11.87,0,0,0,3-1.87v-6.83a3.86,3.86,0,0,0-.17-1.42,1.16,1.16,0,0,0-.57-.54,3,3,0,0,0-1.29-.21h-1.07v-1.23l5.56-.22v10.93a4.11,4.11,0,0,0,.17,1.46,1.08,1.08,0,0,0,.52.57,3.74,3.74,0,0,0,1.39.17H428V1152l-4.86.25v-2.71a15.15,15.15,0,0,1-3.5,2.2,7.93,7.93,0,0,1-3,.61,5.64,5.64,0,0,1-2-.31,4.06,4.06,0,0,1-1.48-.92,3.93,3.93,0,0,1-1-1.48,4.94,4.94,0,0,1-.34-1.85v-6.66a3.53,3.53,0,0,0-.16-1.25,1.24,1.24,0,0,0-.54-.57,2,2,0,0,0-1-.22h-1.34Z"/><path class="cls-6" d="M442.88,1147.87l.94.76q-2.76,3.67-6.61,3.68a6.73,6.73,0,0,1-5.06-2.14,7.34,7.34,0,0,1-2.07-5.32,7.59,7.59,0,0,1,1-3.81,6.69,6.69,0,0,1,2.67-2.63,7.91,7.91,0,0,1,3.91-.94,6.91,6.91,0,0,1,4.21,1.24,3.33,3.33,0,0,1,1.68,2.5,1.36,1.36,0,0,1-.39,1,1.3,1.3,0,0,1-.9.36,1.07,1.07,0,0,1-.51-.13,1.89,1.89,0,0,1-.51-.42,5,5,0,0,1-.43-.82,8,8,0,0,0-.61-1.15,3.24,3.24,0,0,0-2.61-1.26,4.17,4.17,0,0,0-2.31.69,4.74,4.74,0,0,0-1.68,2,7.46,7.46,0,0,0-.62,3.2,6.61,6.61,0,0,0,1.53,4.59,4.18,4.18,0,0,0,3.18,1.46,5.48,5.48,0,0,0,1.72-.28,6.3,6.3,0,0,0,1.65-.85A13.64,13.64,0,0,0,442.88,1147.87Z"/><path class="cls-6" d="M449.4,1132.84h1v5h4.35v1.47h-4.35v8.83a4.68,4.68,0,0,0,.2,1.61,1.65,1.65,0,0,0,.67.79,1.88,1.88,0,0,0,1.06.31,5.33,5.33,0,0,0,3.08-1.24V1151a6.86,6.86,0,0,1-3.89,1.3,4.17,4.17,0,0,1-2-.5,2.8,2.8,0,0,1-1.23-1.17,5.83,5.83,0,0,1-.33-2.34v-9h-2.56v-1.23a5.15,5.15,0,0,0,2-.87,4.53,4.53,0,0,0,1.23-1.52A10.43,10.43,0,0,0,449.4,1132.84Z"/><path class="cls-6" d="M456.81,1139.92v-1.22a11.27,11.27,0,0,0,2.05-.4,11.45,11.45,0,0,0,1.88-.83h1.07v11.75a2,2,0,0,0,.17.92,1,1,0,0,0,.5.45,3.2,3.2,0,0,0,1.14.14h.69V1152h-7.5v-1.23h.6a3.17,3.17,0,0,0,1.32-.18.94.94,0,0,0,.48-.5,4.88,4.88,0,0,0,.14-1.5v-8.63Zm3.72-9.06a1.68,1.68,0,0,1,1.21.5,1.59,1.59,0,0,1,.49,1.19,1.63,1.63,0,0,1-.49,1.2,1.68,1.68,0,0,1-1.21.5,1.71,1.71,0,0,1-1.7-1.7,1.6,1.6,0,0,1,.5-1.19A1.66,1.66,0,0,1,460.53,1130.86Z"/><path class="cls-6" d="M473.32,1137.47a7.49,7.49,0,0,1,3.73.89,6.32,6.32,0,0,1,2.48,2.61,8.17,8.17,0,0,1,.91,3.91,8,8,0,0,1-.93,3.91,6.4,6.4,0,0,1-2.53,2.62,7.72,7.72,0,0,1-3.83.9,6.45,6.45,0,0,1-5.33-2.21A8.55,8.55,0,0,1,467,1141a6.59,6.59,0,0,1,2.59-2.62A7.61,7.61,0,0,1,473.32,1137.47Zm-.12,1.42a3.61,3.61,0,0,0-2.82,1.32,6.94,6.94,0,0,0-1.47,4.78,7.33,7.33,0,0,0,1.25,4.6,3.73,3.73,0,0,0,3.06,1.4,3.87,3.87,0,0,0,2.22-.66,4.55,4.55,0,0,0,1.57-2.1,8.78,8.78,0,0,0,.6-3.39,8.57,8.57,0,0,0-.64-3.41,4,4,0,0,0-3.77-2.54Z"/><path class="cls-6" d="M482.74,1139.92v-1.22a10.91,10.91,0,0,0,1.95-.35,11.65,11.65,0,0,0,1.86-.88h1.05v2.78a14.25,14.25,0,0,1,3.3-2.2,7,7,0,0,1,2.77-.58,5.47,5.47,0,0,1,2.13.4,4.12,4.12,0,0,1,1.5,1.1,3.51,3.51,0,0,1,.76,1.56,8.23,8.23,0,0,1,.12,1.64v6.45a4.09,4.09,0,0,0,.17,1.49,1,1,0,0,0,.53.47,6.4,6.4,0,0,0,1.81.15V1152h-7.53v-1.23h.41a3.73,3.73,0,0,0,1.43-.19,1.11,1.11,0,0,0,.55-.56,4.25,4.25,0,0,0,.17-1.49v-5.39a6.77,6.77,0,0,0-.27-2.32,2.27,2.27,0,0,0-.92-1,3.2,3.2,0,0,0-1.65-.4,6.15,6.15,0,0,0-2.54.61,9.55,9.55,0,0,0-2.6,1.79v6.76a4.21,4.21,0,0,0,.17,1.52,1.15,1.15,0,0,0,.54.57,3.83,3.83,0,0,0,1.41.15h.43V1152h-7.56v-1.23h.36a3.83,3.83,0,0,0,1.49-.19,1,1,0,0,0,.56-.65,7.38,7.38,0,0,0,.09-1.61v-8.36Z"/><path class="cls-6" d="M512.45,1137.82h1l1.31,4.49-1.32.43a6.64,6.64,0,0,0-2.22-2.83,4.87,4.87,0,0,0-2.89-1,2.87,2.87,0,0,0-1.83.55,1.57,1.57,0,0,0-.7,1.26,1.54,1.54,0,0,0,.51,1.16,6.82,6.82,0,0,0,2.24,1.13l2.86,1a8.14,8.14,0,0,1,3.29,1.85,3.31,3.31,0,0,1,.87,2.25,3.74,3.74,0,0,1-.65,2.06,4.42,4.42,0,0,1-1.87,1.57,6.4,6.4,0,0,1-2.8.59,6.53,6.53,0,0,1-4.22-1.41l-.31,1.06h-1l-1.83-4.79,1.32-.53a11.17,11.17,0,0,0,2.52,3,5.85,5.85,0,0,0,3.58,1.24,3.14,3.14,0,0,0,2.1-.68,1.94,1.94,0,0,0,.82-1.51,1.85,1.85,0,0,0-.51-1.26,5.41,5.41,0,0,0-2-1.09l-3.38-1.23a7.54,7.54,0,0,1-3-1.73,3.13,3.13,0,0,1-.85-2.15,3.32,3.32,0,0,1,1.39-2.61,5.36,5.36,0,0,1,3.52-1.14,6.41,6.41,0,0,1,2,.29,5.56,5.56,0,0,1,1.73.94Z"/><path class="cls-6" d="M536.72,1131.52h1.1v17A4.81,4.81,0,0,0,538,1150a1,1,0,0,0,.51.52,3.51,3.51,0,0,0,1.39.18h1.44V1152h-9.66v-1.23h1.6a3.23,3.23,0,0,0,1.38-.19,1.22,1.22,0,0,0,.54-.58,4,4,0,0,0,.19-1.47v-14h-3.71v-1.26A12.22,12.22,0,0,0,536.72,1131.52Z"/><path class="cls-6" d="M548.69,1152.31V1151a14.93,14.93,0,0,0,5.87-1,6.63,6.63,0,0,0,3.28-3,12,12,0,0,0,1.18-4.94,7.61,7.61,0,0,1-1.53,1.76,5.89,5.89,0,0,1-1.84,1,7.6,7.6,0,0,1-5.83-.53,6.34,6.34,0,0,1-2.42-2.37,6.88,6.88,0,0,1-.86-3.52,6.64,6.64,0,0,1,1.94-5.07,8.85,8.85,0,0,1,9.77-1,7,7,0,0,1,2.7,3.13,12.19,12.19,0,0,1,1,5.19,13.82,13.82,0,0,1-1,5.49,9.82,9.82,0,0,1-2.91,3.88,10.23,10.23,0,0,1-4.11,1.94,19.62,19.62,0,0,1-4.06.48Zm5.36-8.83a4.32,4.32,0,0,0,3.45-1.59,5.75,5.75,0,0,0,1.35-3.84,6.69,6.69,0,0,0-.65-2.93,4.75,4.75,0,0,0-1.7-2,4.49,4.49,0,0,0-5.7.88,6,6,0,0,0-1.35,4.11,5.6,5.6,0,0,0,1.31,3.91A4.25,4.25,0,0,0,554.05,1143.48Z"/><path class="cls-6" d="M574.72,1131.52h2.46v11.88H581v1.83h-3.84V1152h-2.46v-6.73h-9.63v-2.57Zm0,11.88v-9.61l-8.29,9.61Z"/><path class="cls-6" d="M586.42,1137l-1.4-.22a6.37,6.37,0,0,1,.82-2.62,5.62,5.62,0,0,1,2.36-2.19,7.43,7.43,0,0,1,3.5-.79,7.86,7.86,0,0,1,3.42.7,5.31,5.31,0,0,1,2.24,1.84,4.48,4.48,0,0,1,.75,2.48,3.94,3.94,0,0,1-.57,2.1,5.45,5.45,0,0,1-1.69,1.65,8.15,8.15,0,0,1-2.06.89,7.35,7.35,0,0,1,2.22.63,5.65,5.65,0,0,1,2.21,2,5.11,5.11,0,0,1,.8,2.77,5.53,5.53,0,0,1-2.12,4.26,8.09,8.09,0,0,1-5.5,1.84,8.81,8.81,0,0,1-5.59-1.77,4.11,4.11,0,0,1-1.91-3,1.4,1.4,0,0,1,.39-1,1.29,1.29,0,0,1,1-.4,1.39,1.39,0,0,1,1.09.5,4,4,0,0,1,.58,1.32,4.11,4.11,0,0,0,1.53,2.25,4.51,4.51,0,0,0,2.7.78,5.21,5.21,0,0,0,2.57-.63,4.53,4.53,0,0,0,1.79-1.79,5,5,0,0,0,.66-2.53,4.21,4.21,0,0,0-.47-2,4.32,4.32,0,0,0-1.36-1.5,4.13,4.13,0,0,0-1.72-.67,10.31,10.31,0,0,0-1.88-.19H589.4v-1.42h.86a10,10,0,0,0,2.47-.31,3.33,3.33,0,0,0,1.88-1.23,3.64,3.64,0,0,0,.21-4,3.53,3.53,0,0,0-1.44-1.31,4.85,4.85,0,0,0-2.2-.48,5,5,0,0,0-2.24.5,4.33,4.33,0,0,0-1.64,1.33A5.51,5.51,0,0,0,586.42,1137Z"/><g id="BloodDrop"><path class="cls-7" d="M372.19,900.94c-1.34,3.49-2.62,8.52-3.95,12a35.87,35.87,0,0,0-2.62,9.25c-.23,2.35.22,5.1,2.25,6.33,2.68,1.62,6.16-.57,7.82-3.23a14.38,14.38,0,0,0,2-9.68c-.79-5.19-4.36-9.57-5.49-14.69"/><path d="M369.78,900.27c-1.62,4.31-2.74,8.79-4.36,13.1s-3.56,9.89-1.39,14.47a6.56,6.56,0,0,0,5.39,3.73,8.79,8.79,0,0,0,6.29-2.46c3.76-3.25,5.11-9,4.43-13.73-.76-5.42-4.31-9.84-5.54-15.11-.74-3.13-5.56-1.8-4.82,1.33.92,3.95,3.13,7.36,4.53,11.12a12.61,12.61,0,0,1-.56,11c-1,1.71-4.28,4.58-5.39,1.6a8.88,8.88,0,0,1,.08-4.9,47.28,47.28,0,0,1,2-6.34c1.56-4.09,2.58-8.35,4.12-12.45a2.52,2.52,0,0,0-1.75-3.07,2.55,2.55,0,0,0-3.07,1.74Z"/></g><path class="cls-7" d="M586.89,637.94c-7-6.71-20-2.05-27.3,4.33s-11.92,15.36-18.71,22.32c-18.54,19-51.23,21.14-65.82,43.34-6.32,9.62-8,21.44-11.09,32.54a256.28,256.28,0,0,1-9,25.44c-3.24,8.21-6.49,16.44-10.48,24.32-2.21,4.36-4.65,8.61-6.88,12.95a158.44,158.44,0,0,0-17.24,65c-.14,3.12-.17,6.34,1,9.26s2.76,2.65,5.88,2.92c4.47.38,9.3-6.23,11.69-10,17.21-27.37,22.35-36.7,32.86-67.29,4-11.55,11.43-40,15.91-51.37,8.47-21.5,12.45-33.13,29-49.31,14.1-13.82,35.65-34.59,51.68-46.12,7.17-5.16,12.49-8.89,18.63-18.32"/><polygon class="cls-8" points="285.91 952.68 275.88 932.55 274.12 894.29 289.96 897.61 301 903.96 303.3 929.19 300.42 943.41 294.04 954.71 285.91 952.68"/><path class="cls-7" d="M408.77,794c-6.83,3.26-11,10.47-13,17.78s-2.16,15-3.39,22.44a82,82,0,0,1-23.6,45.17c-2.34,2.27-4.93,4.55-6,7.66a18.19,18.19,0,0,0-.66,5.56c-.09,6.33.67,9.53.57,15.86-.07,5.24,1.33,7.22,1.92,14.76.1,1.24,1.25,5.87,2.48,6.08a4.83,4.83,0,0,0,2.9-.73,55.38,55.38,0,0,0,27.42-32.14c4.2-13.07,3.34-27.13,3.22-40.86-.17-19.4,5.14-42.41,8.07-61.58"/><polygon class="cls-8" points="248.18 899.04 241.65 892.18 237 849.13 251.5 853.01 257.18 865.32 257.46 888.01 253.6 896.38 248.18 899.04"/><polygon class="cls-8" points="226.27 741.99 223.1 751.32 213.15 760.52 197.91 769.7 183.57 764.07 199.75 746.99 220.4 729.09 225.27 734.96 226.27 741.99"/><path d="M413.14,579.33c-3.24,2.59-7.39,3.73-11.31,4.82a102.71,102.71,0,0,0-13.73,4.76c-4.46,1.94-8.93,4-13.19,6.38a24,24,0,0,0-9.61,9.61c-2.69,4.82-4.69,10.07-6.93,15.1a2.57,2.57,0,0,0,.9,3.42,2.51,2.51,0,0,0,3.42-.89c2-4.5,3.86-9.08,6.06-13.47a20.39,20.39,0,0,1,8.3-9.24A116.91,116.91,0,0,1,403.16,589c4.85-1.35,9.55-2.93,13.52-6.11a2.51,2.51,0,0,0,0-3.53,2.56,2.56,0,0,0-3.54,0Z"/><path d="M241,762.14c1-9.92,1.94-19.85,3.77-29.64a74.27,74.27,0,0,1,1.92-8.22c.3-1,.64-2,1-3,.08-.19.41-.92.05-.13.09-.19.17-.39.26-.58.18-.39.37-.79.57-1.17a21.72,21.72,0,0,1,1.17-2c.18-.28.38-.56.58-.84s.21-.26.3-.4c-.54.76-.1.14,0,0,.94-1.17,2-2.26,3-3.37A78.9,78.9,0,0,0,261.8,702c3-4.67,6.15-9.2,9.25-13.78,2.42-3.57,5.14-7.17,7-11.09a2.57,2.57,0,0,0-.9-3.42,2.53,2.53,0,0,0-3.42.9,75.49,75.49,0,0,1-6,9.63c-2.86,4.24-5.79,8.45-8.6,12.72-1.71,2.59-3.31,5.25-5.17,7.74-.16.21-.32.41-.47.62.47-.62,0,.06-.16.2-.32.4-.64.79-1,1.18-.57.69-1.16,1.36-1.75,2a45.27,45.27,0,0,0-5.91,7.4c-2.3,4-3.46,8.57-4.38,13-2.22,10.86-3.26,22-4.34,33a2.52,2.52,0,0,0,2.5,2.5,2.55,2.55,0,0,0,2.5-2.5Z"/><path d="M219.68,730.85c3.51,3,4.3,7.72,4.12,12.19a17.38,17.38,0,0,1-.73,4.66c-.21.77.19-.24,0,.16a2.25,2.25,0,0,1-.12.21c.83-1.05-.25.15-.38.29-1.37,1.39-2.76,2.77-4.17,4.12a86.68,86.68,0,0,1-11.11,9.4,33.36,33.36,0,0,1-3.81,2.28c-.49.25-1,.47-1.5.71s.59-.22.14-.06l-.34.13-.75.29a33.57,33.57,0,0,0-5.79,2.38c-2.76,1.64-.25,6,2.53,4.31.39-.23.79-.44,1.21-.64l.32-.15c.38-.19-.38.14-.24.1a6,6,0,0,0,.59-.23c.85-.32,1.7-.59,2.55-.89a34.09,34.09,0,0,0,7.44-3.79A93.38,93.38,0,0,0,222,755.87c1.41-1.36,2.81-2.75,4.19-4.15a6.26,6.26,0,0,0,1.55-2.38,19.58,19.58,0,0,0,1-5.53c.41-5.84-.91-12.51-5.54-16.49a2.55,2.55,0,0,0-3.53,0,2.51,2.51,0,0,0,0,3.53Z"/><path d="M243.61,729.73A89,89,0,0,0,255.79,737c4.36,2.09,9.44,4.21,14.36,3.21a2.5,2.5,0,0,0-1.33-4.82c-.06,0-.78.1-.25,0a5.85,5.85,0,0,1-.73,0,10.79,10.79,0,0,1-1.27-.05,20.51,20.51,0,0,1-2.68-.57,37.09,37.09,0,0,1-6.48-2.62,92.24,92.24,0,0,1-11.28-6.8,2.52,2.52,0,0,0-3.42.9,2.55,2.55,0,0,0,.9,3.42Z"/><path d="M287.52,772.93a43.37,43.37,0,0,0,23.39,4.32,2.57,2.57,0,0,0,2.5-2.5,2.52,2.52,0,0,0-2.5-2.5A38.71,38.71,0,0,1,290,768.62a2.56,2.56,0,0,0-3.42.89,2.52,2.52,0,0,0,.9,3.42Z"/><path d="M344,645.67a40.33,40.33,0,0,0-9,18.88,2.58,2.58,0,0,0,1.75,3.08,2.51,2.51,0,0,0,3.07-1.75,35.4,35.4,0,0,1,7.68-16.67,2.58,2.58,0,0,0,0-3.54,2.54,2.54,0,0,0-3.54,0Z"/><path d="M329.32,674.07c-5.26,11.89-13.3,22.17-19.26,33.68-2.06,4-4.1,8-6.18,11.91-1.94,3.67-3.82,7.45-6.11,10.93a154.1,154.1,0,0,0-19,40.29c-4.42,14.78-5.38,30.34-5.88,45.68q-.39,12.41-.22,24.8c.11,8.39.29,16.79.07,25.18-.08,3.22,4.92,3.21,5,0,.39-14.8-.42-29.6,0-44.39.41-15.08.9-30.32,4.53-45a131.29,131.29,0,0,1,7.26-20.85,149,149,0,0,1,10.27-19.69c2.38-3.78,4.69-7.51,6.8-11.44,2.26-4.22,4.45-8.48,6.65-12.73,2.62-5.09,5.46-10,8.52-14.87,4.3-6.8,8.58-13.57,11.85-20.95a2.57,2.57,0,0,0-.9-3.42,2.52,2.52,0,0,0-3.42.9Z"/><path d="M353.92,779.48c4.66,4.27,10.68,7,16.69,8.81,5.64,1.68,11.95,2.74,17.77,1.45,3.14-.7,1.82-5.52-1.32-4.83a14.08,14.08,0,0,1-3.14.37,30.6,30.6,0,0,1-3.71-.13,42.73,42.73,0,0,1-8.27-1.68c-5.17-1.54-10.51-3.88-14.49-7.52-2.37-2.17-5.91,1.35-3.53,3.53Z"/><path d="M238.47,851.7c5.78.13,12.59,4.31,15.1,9.67a22.53,22.53,0,0,1,1.52,7.56c.28,3.32.33,6.66.28,10s-.19,6.65-.49,10a2.53,2.53,0,0,0,2.5,2.5,2.55,2.55,0,0,0,2.5-2.5,113.76,113.76,0,0,0,.18-20.3,28.68,28.68,0,0,0-2-9.47,21.12,21.12,0,0,0-7.52-8.26,22.71,22.71,0,0,0-12-4.17c-3.22-.07-3.22,4.93,0,5Z"/><path d="M275.88,896.8a30.79,30.79,0,0,1,15,4.17c1.38.74,2.79,1.43,4.15,2.19.15.08.29.17.43.26s.2.15.3.21c.39.23-.57-.51-.13-.1s1,1.06,1.56,1.61c.15.15-.36-.53,0,.05.15.21.29.42.43.64a13.94,13.94,0,0,1,.87,1.5c.15.29.29.58.43.87l.21.47c0-.06-.21-.52-.05-.1.31.79.59,1.6.84,2.41a36.56,36.56,0,0,1,1.15,5.46,63.62,63.62,0,0,1,.45,7.95,102.64,102.64,0,0,1-.73,11.35,2.52,2.52,0,0,0,2.5,2.5,2.56,2.56,0,0,0,2.5-2.5c1.13-9.85,1.69-21-2.62-30.21a16.54,16.54,0,0,0-3.74-5.28,23.82,23.82,0,0,0-4.82-2.92,57,57,0,0,0-7.89-3.76,32.78,32.78,0,0,0-10.85-1.77c-3.22,0-3.22,5,0,5Z"/><path d="M363.23,891.14c.37-.19-.12,0-.16.05l.32-.11c.23-.08.47-.15.71-.21l.8-.16c.1,0,.48-.06,0,0l.58-.06a25.17,25.17,0,0,1,4.34.05,26.08,26.08,0,0,1,8.34,2.17,9.26,9.26,0,0,1,3,2.13c.06.07.3.37,0,0,.08.12.17.24.24.36l.21.36.12.25c.3.5-.12-.44,0-.1.2.77.51,1.51.69,2.29.11.52.2,1.05.29,1.57a1.39,1.39,0,0,1,.05.37c.05.42.09.84.13,1.26a56.45,56.45,0,0,1-.81,13.61,2.57,2.57,0,0,0,1.74,3.07,2.52,2.52,0,0,0,3.08-1.74,63.75,63.75,0,0,0,1-14.26,25.75,25.75,0,0,0-1.31-7.34c-2.3-6.15-9.77-8.15-15.65-8.88-3.33-.42-7.16-.56-10.24,1-2.87,1.45-.35,5.76,2.52,4.32Z"/><path d="M438.42,771.72a68,68,0,0,0,7.1,7.4A20,20,0,0,0,458,784a2.5,2.5,0,0,0,0-5c-.52,0-1,0-1.55-.08s.19.06-.33-.05l-.85-.17c-.47-.12-.93-.25-1.39-.41-.23-.07-.45-.16-.67-.24s-.15-.06,0,0l-.32-.15a19.15,19.15,0,0,1-2.54-1.42c-.38-.25-.75-.52-1.12-.79.34.25-.12-.1-.21-.17l-.52-.44a77.36,77.36,0,0,1-6.59-7,2.5,2.5,0,0,0-3.53,3.53Z"/><path d="M423.46,851a20.45,20.45,0,0,1,7-4.26,10.19,10.19,0,0,1,1.89-.53c-.51.08.69,0,.84,0a3.76,3.76,0,0,1,.66.17,6.16,6.16,0,0,1,3.19,2.56c1.38,2.12,1.82,5.05,2.05,7.43a36.5,36.5,0,0,1-.73,11.37c-.68,3.14,4.14,4.48,4.82,1.33a39.12,39.12,0,0,0-.25-19.11,12.57,12.57,0,0,0-5.74-7.56,9.84,9.84,0,0,0-8.8-.21,26,26,0,0,0-8.44,5.25c-2.3,2.27,1.24,5.8,3.53,3.54Z"/><path d="M463.41,676.5a65.17,65.17,0,0,1,10.36-17.28,102.63,102.63,0,0,1,14.09-14.56,2.5,2.5,0,0,0,0-3.53,2.55,2.55,0,0,0-3.53,0,102.52,102.52,0,0,0-14.61,15.21,72.2,72.2,0,0,0-11.14,18.83,2.52,2.52,0,0,0,1.75,3.07,2.56,2.56,0,0,0,3.08-1.74Z"/><path d="M385.85,712.82c3.43-5.88,5.81-12.33,9.24-18.21a2.5,2.5,0,0,0-4.32-2.53c-3.43,5.88-5.8,12.34-9.24,18.22a2.5,2.5,0,0,0,4.32,2.52Z"/><path d="M452.47,711.58c1.88-6.59,2.12-13.8,5.66-19.58,1.68-2.75-2.64-5.27-4.32-2.52-3.88,6.34-4.17,13.78-6.17,20.78-.88,3.09,3.94,4.42,4.83,1.32Z"/><path d="M407.65,662.47c3.4-9.36,6-19.11,10.47-28.05.45-.91.93-1.81,1.45-2.68.25-.43.51-.84.78-1.25l.33-.47c.38-.55-.16.18.23-.31a24.49,24.49,0,0,1,5.55-5.37,25.66,25.66,0,0,1,3.46-2.06A18.32,18.32,0,0,1,434.4,621a35.19,35.19,0,0,0,8.28-2.57,19.73,19.73,0,0,0,4.95-3.4c.51-.47,1-1,1.49-1.45l.75-.69.36-.3c-.58.48,0,0,.13-.07a2.57,2.57,0,0,0,.89-3.43,2.52,2.52,0,0,0-3.42-.89A25.49,25.49,0,0,0,444.6,611c-.53.5-1.06,1-1.63,1.44.46-.36-.36.25-.49.34-.45.3-.92.58-1.4.84a26.81,26.81,0,0,1-7.34,2.4,24.78,24.78,0,0,0-8.53,3.13,27.91,27.91,0,0,0-6.82,5.75,32.88,32.88,0,0,0-3.8,5.43A105.51,105.51,0,0,0,408.44,645c-1.94,5.37-3.66,10.81-5.61,16.18a2.53,2.53,0,0,0,1.74,3.07,2.55,2.55,0,0,0,3.08-1.74Z"/><g class="cls-9"><path d="M701.13,438.33a441.53,441.53,0,0,0-73.3,125.94c-4.64,12.32-8.31,25.07-13.9,37a108.91,108.91,0,0,1-18.74,27.61c-14.5,15.75-32.18,28.05-48.78,41.4-17.11,13.76-32.31,28.94-43.67,47.87-11.67,19.47-19.25,41-26.26,62.48-7.15,21.87-13.93,44.18-23.93,65a105.67,105.67,0,0,1-17,24.84c-2.11,2.36-4.2,4.74-6.38,7-.37.39-2.28,2.91-2.83,2.87-1.29-.11-2.29-3.66-2.57-4.54-1.35-4.3-1.2-8.57-1-13a109.64,109.64,0,0,1,3.38-22c3.5-13.73,7.88-27.16,10.9-41,6.37-29.2,10.07-58.9,15.47-88.28a2.52,2.52,0,0,0-4.17-2.43C438.15,718,430.68,730,424.45,741.86c-6.59,12.55-12.63,26.24-15.84,40.1-4.08,17.62-5.59,36.13-7.22,54.11-1.15,12.79-1.72,25.53-2.47,38.34-.64,10.79-1.52,23.45-7.87,32.63a17.91,17.91,0,0,1-5.31,5.2c-3,1.82-4.15,3.47-6.54,6.17-2.11,2.39-5,5.46-8,6.62s-3.55-1.13-4.24-3.86a54.67,54.67,0,0,1-1.34-8.16c-.83-8.77-.28-17.58-1.36-26.35-1-7.7-2-15.39-3-23.08-2.08-16.27-3.85-32.58-4.35-49a260.66,260.66,0,0,1,.5-30.49c.87-10.16,4.24-19.88,8.42-29.11,6.69-14.75,14.07-29.2,20.88-43.9a2.6,2.6,0,0,0-.9-3.43c-4-2.85-8.34.09-11.2,3.1-5.77,6.09-9.88,14-14,21.19-7.27,12.75-14.21,25.7-21.44,38.48-2.05,3.63-4.84,7.35-6.4,11.21-1.22,3-1.62,6.58-2.28,9.74-1.52,7.22-2.84,14.47-4,21.74-2.58,15.74-4.55,31.57-6.17,47.44q-1.41,13.68-2.47,27.38c-.63,7.92-1.17,15.83-3.19,23.54a42,42,0,0,1-10.2,18.4c-3.12,3.45-4.49,7.54-6,11.88-1,2.8-2.21,7.91-4.76,9.78-3.72,2.72-7.58-2-9.23-4.74-7.11-11.89-7.3-28-7.49-41.43-.18-13,.79-25.89.88-38.84a2.52,2.52,0,0,0-4.66-1.27c-3.3,5.71-6,11.92-10.21,17.06a14.38,14.38,0,0,1-3.11,3.12c-1.06.68-2,.56-3.08,1-2.6,1.18-3.72,4.82-4.75,7.28-.88,2.11-1.74,4.09-4.18,2.27a8,8,0,0,1-2-3.11,46,46,0,0,1-2.94-11c-4.43-25.13-3.37-51.61-3-77,.23-14.26.68-28.5,1.09-42.75a2.52,2.52,0,0,0-3.76-2.16c-16.78,9.15-35.89,11.06-53.65,3.47l.5,3.93c15.61-19.1,35.35-34.26,54-50.21a356.78,356.78,0,0,0,27.88-26c9-9.55,16.36-20,23.66-30.82q6.39-9.5,13.38-18.58c4.27-5.54,9.07-10.74,12.87-16.63,2.36-3.64,4.09-7.72,6.8-11.13a46.91,46.91,0,0,1,13.53-11.44c3-1.67,6.25-2,9.55-2.76a43.15,43.15,0,0,0,15-6.77c3.84-2.78,6.84-6.3,9.93-9.85a32.8,32.8,0,0,1,13.9-9.87c26.62-9.8,53.47-19.33,78.28-33.3,10.28-5.78,20.43-12,28.34-20.91,8.82-9.89,13.15-21.57,19.12-33.15,4.83-9.37,12-15.46,19.94-22,10.1-8.32,17.84-19.52,26.12-29.57,18.71-22.73,37.23-45.68,54.12-69.82,11-15.68,20.88-32,30.7-48.36l33.59-56.17,47.53-79.46,50.1-83.76,41.25-69c7.15-12,15.14-23.73,21.59-36.09.29-.56.65-1.08,1-1.62l-2.16,1.23h21.45l-2.5-2.5-.57,79.73-1,142.48-.36,51.14-.09,12.12a16.76,16.76,0,0,0,0,2c-.86-.23,2-2.78-.45-.46-9.43,9-17.84,19.38-26.65,29l-47.16,51.26L702.45,436.9l-1.32,1.43c-2.17,2.36,1.35,5.91,3.54,3.53l63.93-69.47L851,282.84c1.65-1.79,4.54-4,5-6.46.39-1.95,0-4.36,0-6.33l.3-42.44,1-141.48c.22-31.89,1.06-63.84.68-95.72,0-.51,0-1,0-1.52a2.53,2.53,0,0,0-2.5-2.5H836.81c-2.28,0-3.82-.09-5.19,1.83-2.45,3.46-4.42,7.39-6.59,11L792.47,53.67,744,134.73l-51.65,86.34-42.89,71.7Q638.72,310.71,628,328.64c-26.42,44.05-59.37,84.16-92.5,123.29-6.16,7.28-14.46,12.13-20.88,19.12-8.69,9.47-12.52,22-18.64,33.1-6.52,11.84-16.7,20.14-28,27.12a290.74,290.74,0,0,1-36.31,18.58c-14.43,6.3-29.19,11.82-44,17.12-5.52,2-10.86,3.78-15.41,7.59-3.86,3.23-6.71,7.42-10.26,11a36.86,36.86,0,0,1-16.62,9.27c-3.12.83-6.34,1.08-9.33,2.36-8.9,3.77-16.61,11.72-21.26,20.05-6.84,12.24-16.8,22.58-24.88,34-8.25,11.71-15.66,23.65-25.4,34.25C246.71,704.83,225.59,720.63,206,738a226.68,226.68,0,0,0-25.39,25.81c-.89,1.09-1.12,3.24.5,3.93,19.48,8.31,40.21,6.61,58.7-3.47L236,762.14c-.73,25.3-1.56,50.62-1.16,75.94.18,11.9.57,23.84,1.89,35.68.83,7.48,1.57,16.09,5.32,22.81,1.59,2.83,3.92,4.92,7.29,5.31,6.47.74,7.36-7.75,10.23-11.72l-2.16,1.24c10.31-.52,15.74-16.16,20.05-23.6l-4.66-1.26c-.18,24-3.82,49.42,3.15,72.85,1.48,5,3.57,10.39,7.27,14.16,3.27,3.33,9.38,5.32,13.54,2.17,4.94-3.73,6.07-12.58,8.39-17.92,1.31-3,3.44-4.91,5.53-7.34,5.67-6.59,8.43-14.87,10-23.32,3.13-17,3.29-34.68,5.14-51.86,1.8-16.75,4-33.46,7-50,1.3-7.21,1.9-16.11,5.16-22.72,3.73-7.57,8.42-14.8,12.52-22.18,2.37-4.28,26.33-52.94,32.74-48.36l-.9-3.42c-6.47,14-13.33,27.74-19.85,41.68A116.33,116.33,0,0,0,354,773.66c-2,8.81-2.13,17.92-2.23,26.92-.42,35.77,7.34,70.7,8.48,106.3A84.4,84.4,0,0,0,361.4,919c.59,3.35,1.19,8.64,3.9,11,4.68,4.14,12.27-2.88,15.55-6.07,2.3-2.25,3.95-5.19,6.62-6.93a26.83,26.83,0,0,0,5.49-4.35c3.55-3.88,5.74-8.83,7.26-13.8,3.42-11.21,3.73-23.21,4.14-34.83.58-16.67,2.32-33.39,4.3-49.94,1.32-11,2.44-22.56,5.44-33.28A178.94,178.94,0,0,1,423.17,756c6.95-15.59,15.67-31.9,28.72-43.26l-4.18-2.43c-5,27.08-8.53,54.41-14,81.4-2.68,13.16-6.13,26-9.88,38.91-3.41,11.74-5.88,23.39-6.25,35.64-.17,5.51.62,15.93,6.63,18.59,5.4,2.4,10.25-5.61,13.18-8.89,6.24-7,12.1-13.83,16.62-22.12,5.66-10.39,9.82-21.62,14-32.65,17.12-44.88,26.12-93.88,61.36-129.15,15.71-15.73,34.24-28.19,51.21-42.47,17.26-14.52,31.7-30.91,40.4-51.94,5.73-13.85,10-28.25,15.65-42.14A426.65,426.65,0,0,1,655.56,515a435.42,435.42,0,0,1,49.11-73.17C706.71,439.4,703.19,435.85,701.13,438.33Z"/></g><polygon class="cls-10" points="416.78 770.35 365.12 746.27 375.08 724.9 425.78 749.03 416.78 770.35"/><rect class="cls-11" x="382.95" y="725.8" width="20.14" height="41.02" transform="translate(337.11 -95.31) rotate(23.97)"/></svg>