<?xml version="1.0" encoding="utf-8"?>
<!-- Generator: Adobe Illustrator 25.1.0, SVG Export Plug-In . SVG Version: 6.00 Build 0)  -->
<svg version="1.1" id="Laag_1" xmlns="http://www.w3.org/2000/svg" xmlns:xlink="http://www.w3.org/1999/xlink" x="0px" y="0px"
	 viewBox="0 0 841.9 1190.6" style="enable-background:new 0 0 841.9 1190.6;" xml:space="preserve">
<style type="text/css">
	.st0{fill:#283044;}
	.st1{fill:#E2071A;stroke:#010202;stroke-width:5;stroke-miterlimit:10;}
	.st2{clip-path:url(#SVGID_2_);}
	.st3{clip-path:url(#SVGID_4_);fill:#D1946A;}
	.st4{fill:#CBD6EF;}
	.st5{fill:#E2071A;}
	.st6{fill:#E12C88;}
	.st7{fill:none;stroke:#79B829;stroke-miterlimit:10;}
	.st8{fill:#010202;}
	.st9{clip-path:url(#SVGID_6_);}
	.st10{fill:#CFCCCD;stroke:#010202;stroke-width:5;stroke-linejoin:round;stroke-miterlimit:10;}
	.st11{fill:#4BB164;stroke:#010202;stroke-width:5;stroke-linejoin:round;stroke-miterlimit:10;}
</style>

<defs>
	<style>

		#BloodDrop{
			width: 300%;
			position: relative;
			-webkit-animation: drop 1.5s ease-in;
		}

		#Quote .st4{
			-webkit-animation: colorChange 6s linear 1.5s;
		}

		@-webkit-keyframes drop{
			from{
				transform: translateY(0%);
			}
			to{
				transform: translateY(11%);
			}
		}

		@-webkit-keyframes colorChange{
			0%{ fill: #CBD6EF; }
			10%{ fill: #E2071A; }
			80%{ fill: #E2071A; }
			100%{ fill: #CBD6EF; }
		}
		
	</style>
</defs>

<rect x="0.3" y="-0.7" class="st0" width="841.9" height="1191.9"/>
<path id="BloodDrop" class="st1" d="M380,915.6c0,5.3-3,9.6-6.7,9.6s-6.7-4.3-6.7-9.6s4.1-10.1,5.2-18.5
	C372.3,893.4,380,910.3,380,915.6z"/>
<g>
	<defs>
		<rect id="SVGID_1_" x="151.5" y="-0.7" width="690.6" height="1007.3"/>
	</defs>
	<clipPath id="SVGID_2_">
		<use xlink:href="#SVGID_1_"  style="overflow:visible;"/>
	</clipPath>
	<g class="st2">
		<defs>
			<path id="SVGID_3_" d="M702,440.1c-32.6,39.1-58.2,84-75.3,131.9c-4.5,12.7-8.5,25.8-15.2,37.6c-21.3,38-65.7,56.7-93.6,90.1
				c-30.6,36.6-38.4,82.9-54.3,123.6c-6.6,16.9-12.8,34.1-25.6,47.1c-0.9,0.9-10.3,11.8-11.5,12.2c-5.5,1.9-8.2-12.3-7.1-18
				c0.1-17.9,6.2-32.6,10.8-50.3c8.5-32.5,12.7-69,19.1-103.4c-16.8,14.3-32.8,47.6-39.1,71.7c-4.7,23.7-6.8,47.9-8.8,73
				c-1.2,15.2,1.1,52.3-17.7,60c-4.1,5.7-8.2,9.8-14.7,12.9c-1.4,0.6-3,0-3.6-1.4c-5-13-2.7-26-4.2-38.2
				c-3.9-32.6-9.5-63.3-7.2-103.2c1.2-21.5,12.6-38.7,21.6-58.2c3.8-8.4,3.8-8.4,8.2-17.7c-8.4-6.4-21.3,24.1-49.6,73.1
				c-7.2,30.8-11.9,68.4-15,110.7c-2.2,29.6-10.9,34.5-14.8,39.3c-3.8,4.6-4.3,13.9-9.9,20.9c-6.3,2.8-10.5-0.8-13.7-7
				c-10.6-20.2-6.3-61.7-6.2-80.3c-3.9,6.6-11.1,22.6-17.9,22.4c-4.7,6-3,12.8-10,9.8c-13.5-5.8-10.1-94.2-8.9-136.6
				c-17.7,9.9-37.6,11.7-56.2,3.5c27.6-34.1,75.1-59.8,101.2-100.5c7.7-12,16.2-23.6,25.3-34.6c10-12.1,7.1-15.1,18.4-24.5
				c12.9-10.7,12.1-5.7,24.5-10.8c16.9-7,15.9-18.5,31.4-24c38.6-13.6,72-27.1,96.7-44.8c6.4-4.6,14.7-14,18.3-21
				c2.3-4.4,5.2-9.6,6.9-13.7c9.6-24,21.2-24.7,32.2-38c34.1-41.3,65.6-78.5,92.3-122.8l204.6-342h21.4l-2,287.5L702,440.1z"/>
		</defs>
		<clipPath id="SVGID_4_">
			<use xlink:href="#SVGID_3_"  style="overflow:visible;"/>
		</clipPath>
		<rect x="8.5" y="-42.3" class="st3" width="889.5" height="1042.7"/>
	</g>
</g>
<g>
	<path class="st4" d="M285.9,155.6l1.6,0.9l1.6,0.9c1.2,0.8,2.2,1.4,3,2c2.2,1.6,3.8,3.5,4.8,5.5c1.4,2.9,1.6,6.3,0.8,10.2
		c-0.8,3.4-2.6,6.3-5.6,8.6c-3.6,2.8-9,4.2-16.4,4.2c-5.5,0-10.9-1.5-16.3-4.5l-1.3-0.7c-0.5-0.3-0.9-0.5-1.3-0.6
		c-1-0.4-1.9-0.6-2.8-0.4c-2,0-3,1.7-2.8,5.2h-1.8v-18.6h1.8v0c0.6,2.8,2,5.7,4.2,8.6c1.9,2.5,4.2,4.5,6.9,5.9
		c3.3,1.8,7.2,2.7,11.5,2.7c1.7,0,3.3-0.4,4.6-1.2c1.5-0.9,2.4-2.2,2.8-3.8c0.5-2,0.3-3.9-0.6-5.8c-1.2-2.4-3.4-4.6-6.7-6.6
		c-1.1-0.7-2.6-1.4-4.3-2.3l-2.1-1c-0.9-0.4-1.6-0.8-2.1-1c-2.3-1.1-4.2-2.1-5.7-3c-2.2-1.3-4-2.7-5.4-4c-3.7-3.5-5.1-7.4-4.2-11.6
		c1-4.6,4.2-8.2,9.6-10.8c4.5-2.1,9.3-3.2,14.6-3.2c4.2,0,8.3,0.8,12.3,2.4c1.2,0.5,2.6,1.1,3.9,1.8c0.2,0.1,0.4,0.3,0.7,0.4
		l0.3,0.2l0.3,0.2c0.4,0.2,0.7,0.4,0.9,0.5c1.6,0.7,2.6,0.4,3-0.7c0.1-0.4,0.2-1.8,0.4-4.1h1.8V148h-1.8c-0.1-2.1-0.7-4-1.6-5.8
		c-1.3-2.4-3.2-4.3-5.7-5.6c-4.9-2.4-9.4-3.6-13.3-3.6c-3.3,0-6.1,1.1-8.4,3.4c-1.2,1.2-1.7,2.7-1.5,4.4c0.3,1.6,1.1,3,2.5,4.2
		c0.9,0.9,2.1,1.7,3.6,2.6c0.5,0.3,1.2,0.7,2,1.1l2,1C279.9,152.2,283.5,154.1,285.9,155.6z"/>
	<path class="st4" d="M357.1,186.8h-24.9v-1.6h5.1v-16.8c0-4.5-0.3-7.3-0.9-8.6c-0.9-1.9-2.9-2.9-6-2.9c-3.1,0-5.4,0.8-6.8,2.4v25.9
		h5.1v1.6h-24.9v-1.6h5.1v-56h-5.1v-1.6h19.8v29.1c2.9-2,7-3,12.4-3c5.4,0,9.3,0.9,11.7,2.8c2.9,2.2,4.4,6.1,4.4,11.7v17h5.1V186.8z
		"/>
	<path class="st4" d="M390.3,183.8l-0.3,0.1c-5.6,2.2-10.7,3.4-15.4,3.4c-6.1,0-10.3-1.4-12.5-4.2c-1.1-1.4-1.6-2.8-1.5-4.2
		c0.2-2.2,1.1-4,2.8-5.2c3.2-2.4,11.4-4.6,24.6-6.4v-5.7c0-0.3-0.1-0.5-0.1-0.8c-0.2-0.8-0.6-1.6-1.1-2.3c-1.5-2.2-4.3-3.3-8.2-3.3
		c-1.7,0-3.3,0.2-4.8,0.6c-1.3,0.4-1.8,1-1.6,2c0.1,0.5,0.3,0.9,0.7,1.3c0.9,1,1.3,2.2,1.3,3.4c0,1.5-0.5,2.8-1.6,3.8
		c-1.1,1-2.4,1.6-3.9,1.6c-1.5,0-2.8-0.5-3.8-1.6c-1.1-1.1-1.6-2.3-1.6-3.8c0-1.4,0.5-2.6,1.4-3.6l0.1-0.1l0-0.1l0.5-0.4
		c0.3-0.2,0.5-0.5,0.9-0.7c3.7-2.6,8-3.8,12.9-3.8h1c7.4,0,12.8,0.8,16.2,2.4c4.3,2,6.4,5.5,6.4,10.5v16.4c0,0.9,0.5,1.4,1.4,1.4
		c0.6,0,1-0.3,1.2-0.8c0.1-0.2,0.2-0.5,0.2-0.7l0.1-0.7h1.6c0,1.4-0.5,2.5-1.5,3.4c-0.8,0.6-1.8,1.1-3.1,1.3
		c-0.9,0.2-1.8,0.3-2.8,0.3h0c-0.9,0-1.6,0-2.2-0.1c-0.9-0.1-1.8-0.2-2.6-0.4C393.1,186.2,391.5,185.2,390.3,183.8z M372.9,178.3
		c-0.1,1.3,0.3,2.6,1,3.8c2.3,3.2,7.4,3.2,15.3,0c-0.7-1.4-1.1-3.4-1.1-5.9v-6.9C377.9,171.4,372.9,174.4,372.9,178.3z"/>
	<path class="st4" d="M442.3,186.9v-1.6c-0.2,0.1-0.4,0.2-0.5,0.3c-0.2,0.1-0.4,0.2-0.6,0.3c-0.5,0.3-1.1,0.5-1.7,0.7
		c-1.6,0.5-3.4,0.8-5.5,0.8h-0.4c-5.9,0-10.9-1.6-15.1-4.9c-4.2-3.3-6.2-7.2-6.2-11.8c0-4.6,2.1-8.6,6.2-11.9
		c4.2-3.3,9.2-4.9,15.1-4.9h0.4c2,0,3.9,0.2,5.5,0.7c0.6,0.2,1.2,0.4,1.7,0.7c0.2,0.1,0.4,0.2,0.6,0.4c0.1,0.1,0.3,0.1,0.5,0.3V130
		h-5.1v-1.6H457v56.8h5.4v1.6H442.3z M442.3,157.4c-0.4-0.2-0.8-0.4-1.2-0.6c-0.5-0.2-1.1-0.4-1.7-0.6c-1.5-0.5-3-0.7-4.5-0.7
		c-3.4,0-5.8,1.6-7.3,4.8c-1.1,2.5-1.7,5.9-1.7,10.3c0,4.3,0.6,7.8,1.7,10.3c1.5,3.2,4,4.8,7.3,4.8c1.5,0,3-0.2,4.5-0.7
		c0.6-0.2,1.1-0.4,1.7-0.7c0.4-0.2,0.8-0.3,1.2-0.5V157.4z"/>
	<path class="st4" d="M514.7,170.6c0,4.6-2.1,8.6-6.2,11.8c-4.2,3.3-9.2,4.9-15.1,4.9h-4.8c-5.9,0-10.9-1.6-15.1-4.9
		c-4.2-3.3-6.2-7.2-6.2-11.8c0-4.6,2.1-8.6,6.2-11.9c4.2-3.3,9.2-4.9,15.1-4.9h4.8c5.9,0,10.9,1.6,15.1,4.9
		C512.6,162,514.7,165.9,514.7,170.6z M499.9,170.6c0-4.9-1-8.7-2.9-11.5c-1.6-2.4-3.7-3.6-6.1-3.6c-2.4,0-4.5,1.2-6.2,3.6
		c-1.8,2.7-2.8,6.6-2.8,11.5v1.2c0,4.3,1,7.8,2.9,10.4c1.7,2.4,3.8,3.6,6.1,3.6c2.4,0,4.5-1.2,6.2-3.6c1.8-2.6,2.7-6,2.7-10.4V170.6
		z"/>
	<path class="st4" d="M551.7,168.2l-11,18.6H538l-18.9-31h-3.5v-1.6h23.2v1.6h-3.8l11.1,18.3l4.5-7.4l-6.6-10.9h-3.5v-1.6h23.2v1.6
		h-3.8l11.1,18.3l11.2-18.3h-4v-1.6h10.5v1.6h-4.6l-18.6,31H563L551.7,168.2z"/>
	<path class="st4" d="M253.4,255.6c0,4.6-2.1,8.6-6.2,11.8c-4.2,3.3-9.2,4.9-15.1,4.9h-4.8c-5.9,0-10.9-1.6-15.1-4.9
		c-4.2-3.3-6.2-7.2-6.2-11.8c0-4.6,2.1-8.6,6.2-11.9c4.2-3.3,9.2-4.9,15.1-4.9h4.8c5.9,0,10.9,1.6,15.1,4.9
		C251.3,247,253.4,250.9,253.4,255.6z M238.7,255.6c0-4.9-1-8.7-2.9-11.5c-1.6-2.4-3.7-3.6-6.1-3.6c-2.4,0-4.5,1.2-6.2,3.6
		c-1.8,2.7-2.8,6.6-2.8,11.5v1.2c0,4.3,1,7.8,2.9,10.4c1.7,2.4,3.8,3.6,6.1,3.6c2.4,0,4.5-1.2,6.2-3.6c1.8-2.6,2.7-6,2.7-10.4V255.6
		z"/>
	<path class="st4" d="M258.3,240.8v-1.6h5.2v-5.9c0-6.1,1.3-10.9,4-14.5c3-4.1,7.5-6.1,13.5-6.1c3.8,0,7.2,1.1,10.2,3.3
		c0.6,0.5,1.2,1,1.7,1.4c1.7,1.6,2.9,3,3.5,4.4c0.3,0.8,0.5,1.5,0.6,2.3c0.1,1.5-0.5,2.9-1.6,4.1c-1.1,1.1-2.4,1.7-4,1.7
		c-1.6,0-2.9-0.5-3.9-1.6c-1.1-1.1-1.6-2.4-1.6-3.9c0-1.3,0.4-2.4,1.1-3.3l0.4-0.4l0.4-0.5c0.4-0.4,0.6-0.7,0.8-1
		c0.5-0.8,0.6-1.6,0.2-2.3c-0.3-0.4-0.8-0.8-1.4-0.9c-0.4-0.1-1-0.2-1.7-0.2c-2.1,0-3.9,0.7-5.3,2c-1.5,1.4-2.2,3.2-2.2,5.5v16h5.2
		v1.6h-5.2v29.4h5.2v1.6h-25v-1.6h5.1v-29.4H258.3z"/>
	<path class="st4" d="M349.9,268.8l-0.3,0.1c-5.6,2.2-10.7,3.4-15.4,3.4c-6.1,0-10.3-1.4-12.5-4.2c-1.1-1.4-1.6-2.8-1.5-4.2
		c0.2-2.2,1.1-4,2.8-5.2c3.2-2.4,11.4-4.6,24.6-6.4v-5.7c0-0.3-0.1-0.5-0.1-0.8c-0.2-0.8-0.6-1.6-1.1-2.3c-1.5-2.2-4.3-3.3-8.2-3.3
		c-1.7,0-3.3,0.2-4.8,0.6c-1.3,0.4-1.8,1-1.6,2c0.1,0.5,0.3,0.9,0.7,1.3c0.9,1,1.3,2.2,1.3,3.4c0,1.5-0.5,2.8-1.6,3.8
		c-1.1,1-2.4,1.6-3.9,1.6c-1.5,0-2.8-0.5-3.8-1.6c-1.1-1.1-1.6-2.3-1.6-3.8c0-1.4,0.5-2.6,1.4-3.6l0.1-0.1l0-0.1l0.5-0.4
		c0.3-0.2,0.5-0.5,0.9-0.7c3.7-2.6,8-3.8,12.9-3.8h1c7.4,0,12.8,0.8,16.2,2.4c4.3,2,6.4,5.5,6.4,10.5v16.4c0,0.9,0.5,1.4,1.4,1.4
		c0.6,0,1-0.3,1.2-0.8c0.1-0.2,0.2-0.5,0.2-0.7l0.1-0.7h1.6c0,1.4-0.5,2.5-1.5,3.4c-0.8,0.6-1.8,1.1-3.1,1.3
		c-0.9,0.2-1.8,0.3-2.8,0.3h0c-0.9,0-1.6,0-2.2-0.1c-0.9-0.1-1.8-0.2-2.6-0.4C352.7,271.2,351.1,270.2,349.9,268.8z M332.5,263.3
		c-0.1,1.3,0.3,2.6,1,3.8c2.3,3.2,7.4,3.2,15.3,0c-0.7-1.4-1.1-3.4-1.1-5.9v-6.9C337.5,256.4,332.5,259.4,332.5,263.3z"/>
	<path class="st4" d="M420,271.9v-1.6c-0.2,0.1-0.4,0.2-0.5,0.3c-0.2,0.1-0.4,0.2-0.6,0.3c-0.5,0.3-1.1,0.5-1.7,0.7
		c-1.6,0.5-3.4,0.8-5.5,0.8h-0.4c-5.9,0-10.9-1.6-15.1-4.9c-4.2-3.3-6.2-7.2-6.2-11.8c0-4.6,2.1-8.6,6.2-11.9
		c4.2-3.3,9.2-4.9,15.1-4.9h0.4c2,0,3.9,0.2,5.5,0.7c0.6,0.2,1.2,0.4,1.7,0.7c0.2,0.1,0.4,0.2,0.6,0.4c0.1,0.1,0.3,0.1,0.5,0.3V215
		h-5.1v-1.6h19.8v56.8h5.4v1.6H420z M420,242.4c-0.4-0.2-0.8-0.4-1.2-0.6c-0.5-0.2-1.1-0.4-1.7-0.6c-1.5-0.5-3-0.7-4.5-0.7
		c-3.4,0-5.8,1.6-7.3,4.8c-1.1,2.5-1.7,5.9-1.7,10.3c0,4.3,0.6,7.8,1.7,10.3c1.5,3.2,4,4.8,7.3,4.8c1.5,0,3-0.2,4.5-0.7
		c0.6-0.2,1.1-0.4,1.7-0.7c0.4-0.2,0.8-0.3,1.2-0.5V242.4z"/>
	<path class="st4" d="M492.4,255.6c0,4.6-2.1,8.6-6.2,11.8c-4.2,3.3-9.2,4.9-15.1,4.9h-4.8c-5.9,0-10.9-1.6-15.1-4.9
		c-4.2-3.3-6.2-7.2-6.2-11.8c0-4.6,2.1-8.6,6.2-11.9c4.2-3.3,9.2-4.9,15.1-4.9h4.8c5.9,0,10.9,1.6,15.1,4.9
		C490.3,247,492.4,250.9,492.4,255.6z M477.6,255.6c0-4.9-1-8.7-2.9-11.5c-1.6-2.4-3.7-3.6-6.1-3.6c-2.4,0-4.5,1.2-6.2,3.6
		c-1.8,2.7-2.8,6.6-2.8,11.5v1.2c0,4.3,1,7.8,2.9,10.4c1.7,2.4,3.8,3.6,6.1,3.6c2.4,0,4.5-1.2,6.2-3.6c1.8-2.6,2.7-6,2.7-10.4V255.6
		z"/>
	<path class="st4" d="M528,269.3c-2.8,2-7,3-12.3,3c-5.4,0-9.3-0.9-11.7-2.8c-2.9-2.2-4.3-6.1-4.3-11.7h0v-17h-5.1v-1.6h19.8v18.4
		c0,4.5,0.3,7.4,0.9,8.7c0.9,1.9,2.9,2.8,6,2.8c3.1,0,5.4-0.8,6.8-2.4v-25.9H523v-1.6h19.8v31.1h5.1v1.6H528V269.3z"/>
	<path class="st4" d="M581.5,238.7c5.9,0,10.9,1.6,15.1,4.9c4.2,3.3,6.2,7.2,6.2,11.8c0,4.6-2.1,8.6-6.2,11.8
		c-4.2,3.3-9.2,4.9-15.1,4.9h-0.4c-2,0-3.8-0.3-5.4-0.8c-0.6-0.2-1.2-0.4-1.7-0.6c-0.2-0.1-0.4-0.2-0.6-0.4
		c-0.2-0.1-0.3-0.2-0.5-0.3v1.6h-20v-1.6h5.3V215H553v-1.6h19.8v27.4c0.2-0.1,0.4-0.2,0.5-0.3c0.2-0.1,0.4-0.2,0.6-0.3
		c0.5-0.3,1.1-0.5,1.7-0.7c1.6-0.5,3.4-0.8,5.4-0.8H581.5z M589.2,255.5c0-4.3-0.6-7.8-1.8-10.3c-1.5-3.2-3.9-4.8-7.3-4.8
		c-1.5,0-2.9,0.2-4.5,0.7c-0.6,0.2-1.1,0.4-1.7,0.6c-0.4,0.2-0.8,0.4-1.2,0.6v26.3c0.4,0.2,0.8,0.4,1.2,0.6c0.5,0.2,1.1,0.4,1.7,0.6
		c1.5,0.5,3,0.7,4.5,0.7c3.4,0,5.9-1.6,7.3-4.8C588.7,263.3,589.2,259.8,589.2,255.5z"/>
	<path class="st4" d="M625.5,240.8v27.8c0,0.5,0.1,0.8,0.4,1.1c0.2,0.2,0.5,0.3,0.9,0.3c0.6,0,1-0.3,1.3-0.9
		c0.2-0.4,0.3-0.9,0.3-1.5h1.6c0,1.4-0.5,2.5-1.5,3.4c-0.8,0.7-1.8,1.1-3.1,1.4c-0.8,0.2-1.8,0.2-2.8,0.2c-0.7,0-1.2,0-1.6,0
		c-0.7,0-1.3-0.1-1.9-0.2c-1.5-0.2-2.8-0.7-3.9-1.3c-2.9-1.8-4.4-5.1-4.4-10v-20.2H605v-1.6c2.3-0.7,4.8-1.8,7.5-3.5
		c2.3-1.5,4.4-3.2,6.2-5.2c2.2-2.4,3.8-5.2,5-8.1h1.9v16.8h6.1v1.6H625.5z"/>
</g>
<g>
	<path class="st4" d="M178.1,34.2h1l0.1,0.7h12.5l0.1-0.7h1.1l2.2,6l-1.3,0.5c-0.6-1.6-1.4-2.7-2.3-3.4s-2-1-3.3-1
		c-0.6,0-0.9,0-1,0.1s-0.2,0.1-0.2,0.2s-0.1,0.4-0.1,1v14.2c0,0.7,0,1.1,0.1,1.4s0.2,0.4,0.3,0.5s0.3,0.2,0.6,0.3s0.8,0.1,1.6,0.1
		v1.2h-7.9v-1.2c0.9,0,1.4,0,1.6-0.1c0.3-0.1,0.6-0.3,0.7-0.6s0.2-0.8,0.2-1.5V37.4c0-0.4,0-0.7-0.1-0.8s-0.1-0.2-0.2-0.2
		s-0.4-0.1-0.8-0.1c-1.1,0-1.9,0.1-2.6,0.4s-1.2,0.7-1.8,1.4s-1.1,1.5-1.5,2.5l-1.3-0.5L178.1,34.2z"/>
	<path class="st4" d="M208.5,51.5l0.9,0.8c-0.7,0.8-1.4,1.5-2.1,2s-1.3,0.8-1.9,1s-1.3,0.3-2.1,0.3c-1.4,0-2.7-0.3-3.7-0.9
		c-1.2-0.7-2-1.6-2.7-2.6s-0.9-2.4-0.9-3.8c0-1.5,0.3-2.9,0.9-4s1.4-2,2.5-2.6s2.3-0.9,3.7-0.9c1,0,2,0.2,2.7,0.5
		c0.8,0.3,1.4,0.8,2,1.5c0.5,0.7,0.9,1.4,1.2,2.3c0.1,0.5,0.2,1.1,0.2,1.9h-10.4c0,0.5,0,0.8,0,1.1c0,1.2,0.2,2.3,0.6,3.3
		s1,1.7,1.7,2.1s1.5,0.7,2.4,0.7c0.8,0,1.5-0.2,2.2-0.5S207.4,52.5,208.5,51.5z M206.6,45.6c-0.1-0.9-0.4-1.6-0.6-2s-0.6-0.8-1.1-1
		s-1-0.4-1.7-0.4s-1.2,0.1-1.7,0.4s-1,0.6-1.3,1.1s-0.7,1.1-0.9,2H206.6z"/>
	<path class="st4" d="M211.5,43.2V42c0.7-0.1,1.3-0.2,1.9-0.4c0.6-0.2,1.2-0.5,1.9-0.9h1.1v2.8c0.7-0.8,1.5-1.5,2.4-2
		s1.7-0.7,2.5-0.7c0.7,0,1.3,0.2,1.7,0.5s0.6,0.8,0.6,1.2c0,0.4-0.1,0.7-0.4,0.9s-0.6,0.4-1,0.4c-0.2,0-0.3,0-0.5-0.1
		s-0.3-0.2-0.6-0.3c-0.5-0.4-1-0.5-1.3-0.5c-0.5,0-1,0.2-1.6,0.6c-0.7,0.5-1.3,1-1.7,1.6v6.8c0,0.6,0,1,0.1,1.2s0.2,0.4,0.3,0.5
		s0.3,0.3,0.5,0.3s0.6,0.1,1.1,0.1h0.5v1.2h-7.6v-1.2h0.6c0.6,0,1-0.1,1.2-0.2c0.3-0.1,0.4-0.3,0.6-0.6s0.2-0.7,0.2-1.4v-8.6H211.5z
		"/>
	<path class="st4" d="M237.3,51.5l0.9,0.8c-0.7,0.8-1.4,1.5-2.1,2s-1.3,0.8-1.9,1s-1.3,0.3-2.1,0.3c-1.4,0-2.7-0.3-3.7-0.9
		c-1.2-0.7-2-1.6-2.7-2.6s-0.9-2.4-0.9-3.8c0-1.5,0.3-2.9,0.9-4s1.4-2,2.5-2.6s2.3-0.9,3.7-0.9c1,0,2,0.2,2.7,0.5
		c0.8,0.3,1.4,0.8,2,1.5c0.5,0.7,0.9,1.4,1.2,2.3c0.1,0.5,0.2,1.1,0.2,1.9h-10.4c0,0.5,0,0.8,0,1.1c0,1.2,0.2,2.3,0.6,3.3
		s1,1.7,1.7,2.1s1.5,0.7,2.4,0.7c0.8,0,1.5-0.2,2.2-0.5S236.2,52.5,237.3,51.5z M235.4,45.6c-0.1-0.9-0.4-1.6-0.6-2s-0.6-0.8-1.1-1
		s-1-0.4-1.7-0.4s-1.2,0.1-1.7,0.4s-1,0.6-1.3,1.1s-0.7,1.1-0.9,2H235.4z"/>
	<path class="st4" d="M250.2,41.1h1l1.3,4.5l-1.3,0.4c-0.5-1.2-1.3-2.1-2.2-2.8s-1.9-1-2.9-1c-0.8,0-1.4,0.2-1.8,0.5
		s-0.7,0.8-0.7,1.3c0,0.4,0.2,0.8,0.5,1.2c0.3,0.3,1.1,0.7,2.2,1.1l2.9,1c1.6,0.6,2.7,1.2,3.3,1.8c0.6,0.7,0.9,1.4,0.9,2.3
		c0,0.7-0.2,1.4-0.6,2.1s-1.1,1.2-1.9,1.6s-1.8,0.6-2.8,0.6c-1.6,0-3-0.5-4.2-1.4l-0.3,1.1h-1l-1.8-4.8L242,50
		c0.9,1.4,1.7,2.4,2.5,3c1.1,0.8,2.3,1.2,3.6,1.2c0.9,0,1.6-0.2,2.1-0.7s0.8-1,0.8-1.5c0-0.5-0.2-0.9-0.5-1.3c-0.4-0.4-1-0.7-2-1.1
		l-3.4-1.2c-1.5-0.5-2.5-1.1-3-1.7s-0.8-1.3-0.8-2.2c0-1,0.5-1.9,1.4-2.6s2.1-1.1,3.5-1.1c0.7,0,1.4,0.1,2,0.3
		c0.6,0.2,1.2,0.5,1.7,0.9L250.2,41.1z"/>
	<path class="st4" d="M266.5,46.8l0-1.6c0-1.1-0.3-1.9-0.9-2.3c-0.6-0.5-1.5-0.7-2.6-0.7c-0.5,0-1,0.1-1.4,0.2
		c-0.4,0.1-0.7,0.3-1,0.5s-0.4,0.5-0.6,0.8c0,0.1-0.2,0.5-0.4,1.2c-0.2,0.9-0.7,1.3-1.4,1.3c-0.4,0-0.7-0.1-0.9-0.4s-0.4-0.6-0.4-1
		c0-0.6,0.2-1.3,0.7-1.9s1.2-1.1,2.2-1.5s2.1-0.6,3.5-0.6c1.2,0,2.3,0.2,3.2,0.6c0.9,0.4,1.5,0.9,2,1.7c0.3,0.5,0.4,1.4,0.4,2.7v5.6
		c0,0.8,0,1.3,0.1,1.6c0.1,0.4,0.3,0.7,0.6,0.9c0.3,0.2,0.6,0.3,1,0.3c0.4,0,1-0.1,1.6-0.3v1.3c-0.8,0.2-1.5,0.4-2.2,0.4
		c-0.7,0-1.3-0.1-1.8-0.3s-0.9-0.5-1.2-0.9s-0.5-0.8-0.6-1.3c-1.2,0.9-2.2,1.6-3.2,1.9s-1.9,0.6-2.9,0.6c-1.3,0-2.4-0.4-3.3-1.1
		s-1.3-1.6-1.3-2.6c0-0.6,0.2-1.2,0.5-1.7c0.3-0.5,0.8-1,1.4-1.4s1.6-0.8,3-1.1C262.2,47.3,264.1,47.1,266.5,46.8z M266.5,48.1
		c-2.3,0.3-3.7,0.6-4.2,0.7c-1.1,0.2-1.8,0.5-2.3,0.8s-0.8,0.6-1,0.9s-0.3,0.7-0.3,1.1s0.1,0.8,0.3,1.1s0.5,0.6,0.9,0.8
		c0.4,0.2,0.8,0.3,1.3,0.3c0.6,0,1.4-0.2,2.2-0.5c0.8-0.3,1.8-0.9,3.1-1.8L266.5,48.1z"/>
	<path class="st4" d="M282.2,34.8h7.3v1.2h-0.8c-0.5,0-0.9,0-1,0.1c-0.3,0.2-0.4,0.4-0.4,0.7c0,0.2,0.1,0.6,0.2,1.1l4.2,13.6
		l3.6-11.2l-0.9-2.7c-0.2-0.7-0.5-1.1-0.9-1.4c-0.3-0.2-0.7-0.3-1.3-0.3v-1.2h7.3v1.2h-0.7c-0.6,0-1,0.1-1.2,0.2
		c-0.2,0.1-0.3,0.3-0.3,0.6c0,0.2,0.1,0.6,0.2,1.1l4.2,13.7L306,38c0.1-0.5,0.2-0.8,0.2-1.1c0-0.3-0.1-0.5-0.3-0.6s-0.6-0.2-1.2-0.2
		H304v-1.2h6.2v1.2c-0.5,0-0.9,0-1.2,0.2c-0.3,0.1-0.5,0.3-0.6,0.5c-0.2,0.2-0.3,0.6-0.5,1.3l-5.6,17.3h-2.1L296.2,43l-4,12.3h-2.1
		L284.6,38c-0.3-0.8-0.6-1.4-1-1.7c-0.3-0.2-0.8-0.3-1.4-0.3V34.8z"/>
	<path class="st4" d="M311.7,43.2V42c0.7-0.1,1.3-0.2,1.9-0.4c0.6-0.2,1.2-0.5,1.9-0.9h1.1v2.8c0.7-0.8,1.5-1.5,2.4-2
		s1.7-0.7,2.5-0.7c0.7,0,1.3,0.2,1.7,0.5s0.6,0.8,0.6,1.2c0,0.4-0.1,0.7-0.4,0.9s-0.6,0.4-1,0.4c-0.2,0-0.3,0-0.5-0.1
		s-0.3-0.2-0.6-0.3c-0.5-0.4-1-0.5-1.3-0.5c-0.5,0-1,0.2-1.6,0.6c-0.7,0.5-1.3,1-1.7,1.6v6.8c0,0.6,0,1,0.1,1.2s0.2,0.4,0.3,0.5
		s0.3,0.3,0.5,0.3s0.6,0.1,1.1,0.1h0.5v1.2h-7.6v-1.2h0.6c0.6,0,1-0.1,1.2-0.2c0.3-0.1,0.4-0.3,0.6-0.6s0.2-0.7,0.2-1.4v-8.6H311.7z
		"/>
	<path class="st4" d="M324.8,43.2V42c0.8-0.1,1.5-0.2,2-0.4c0.6-0.2,1.2-0.4,1.9-0.8h1.1v11.7c0,0.4,0.1,0.7,0.2,0.9
		s0.3,0.4,0.5,0.4s0.6,0.1,1.1,0.1h0.7v1.2h-7.5v-1.2h0.6c0.7,0,1.1-0.1,1.3-0.2s0.4-0.3,0.5-0.5s0.1-0.7,0.1-1.5v-8.6H324.8z
		 M328.5,34.2c0.5,0,0.9,0.2,1.2,0.5s0.5,0.7,0.5,1.2s-0.2,0.9-0.5,1.2s-0.7,0.5-1.2,0.5s-0.9-0.2-1.2-0.5s-0.5-0.7-0.5-1.2
		s0.2-0.9,0.5-1.2S328.1,34.2,328.5,34.2z"/>
	<path class="st4" d="M345.3,42.3c0.4-0.5,0.9-0.9,1.3-1.1s0.9-0.4,1.3-0.4c0.4,0,0.6,0.1,0.9,0.3s0.4,0.5,0.4,0.8
		c0,0.3-0.1,0.6-0.3,0.8s-0.5,0.3-0.8,0.3c-0.1,0-0.3,0-0.6-0.1c-0.3-0.1-0.5-0.1-0.7-0.1c-0.2,0-0.5,0.1-0.8,0.3
		c0.6,0.7,0.9,1.6,0.9,2.6c0,1.3-0.6,2.5-1.7,3.5c-1.1,1-2.6,1.5-4.3,1.5c-1,0-1.9-0.2-2.9-0.6c-0.6,0.5-1,0.7-1.1,0.9
		c-0.1,0.2-0.2,0.3-0.2,0.5c0,0.3,0.1,0.5,0.4,0.7c0.4,0.2,1.1,0.5,2.2,0.6l4.2,0.6c0.9,0.1,1.9,0.4,2.8,0.7s1.6,0.8,2.1,1.3
		s0.6,1.2,0.6,2c0,1.3-0.6,2.3-1.8,3.1c-1.5,1-3.8,1.5-6.7,1.5c-1.6,0-2.8-0.2-3.8-0.5c-1-0.3-1.7-0.8-2.3-1.4
		c-0.4-0.4-0.6-0.9-0.6-1.4c0-0.6,0.2-1.2,0.6-1.8s1.3-1.4,2.7-2.5c-0.9-0.2-1.6-0.5-2-0.8c-0.5-0.4-0.8-0.9-0.8-1.4
		c0-0.3,0-0.5,0.1-0.7c0.1-0.2,0.2-0.4,0.5-0.7c0.2-0.2,0.6-0.5,1.2-0.9c0.4-0.2,0.6-0.4,0.7-0.5c-0.7-0.5-1.3-1.1-1.6-1.7
		c-0.4-0.6-0.5-1.3-0.5-2.1c0-1.2,0.5-2.3,1.4-3.2c1.2-1.1,2.7-1.7,4.7-1.7c0.9,0,1.6,0.1,2.3,0.3C343.9,41.3,344.6,41.7,345.3,42.3
		z M338.5,54.9c-0.9,0.8-1.6,1.5-1.9,1.9c-0.3,0.5-0.5,1-0.5,1.4c0,0.4,0.2,0.8,0.5,1.1c0.3,0.4,0.8,0.7,1.6,0.9
		c0.7,0.2,1.7,0.4,2.8,0.4c1.3,0,2.5-0.1,3.4-0.4c1-0.3,1.6-0.7,2-1.1c0.3-0.4,0.5-0.8,0.5-1.2c0-0.4-0.1-0.8-0.4-1
		c-0.2-0.3-0.7-0.5-1.4-0.7s-1.3-0.4-1.9-0.5L338.5,54.9z M340.8,42.2c-1,0-1.8,0.3-2.4,1c-0.7,0.7-1,1.5-1,2.6
		c0,0.7,0.2,1.3,0.5,1.8c0.3,0.6,0.7,1,1.3,1.3c0.5,0.3,1.1,0.5,1.7,0.5c0.6,0,1.2-0.2,1.7-0.5c0.6-0.3,1-0.8,1.3-1.3
		c0.3-0.5,0.4-1.2,0.4-1.8c0-1.1-0.3-1.9-1-2.6S341.8,42.2,340.8,42.2z"/>
	<path class="st4" d="M350.1,36.3V35c0.9-0.1,1.7-0.3,2.2-0.4s1.1-0.4,1.7-0.8h1.1v9.7c1.1-0.9,2.2-1.6,3.1-2s1.9-0.6,2.8-0.6
		c1.3,0,2.4,0.4,3.2,1.2c0.8,0.8,1.3,1.7,1.3,2.9V52c0,0.7,0.1,1.2,0.2,1.4s0.3,0.4,0.6,0.5s0.9,0.2,1.8,0.2v1.2h-7.6v-1.2h0.6
		c0.7,0,1.2-0.1,1.4-0.2s0.4-0.3,0.5-0.6s0.2-0.8,0.2-1.6v-5c0-1.1,0-1.8-0.1-2.2c-0.1-0.6-0.4-1-0.9-1.4s-1-0.5-1.8-0.5
		c-0.8,0-1.6,0.2-2.5,0.6s-1.8,1-2.7,1.8v7.3c0,0.5,0,0.9,0.1,1.1s0.3,0.3,0.5,0.4s0.7,0.1,1.3,0.1h0.6v1.2h-7.6v-1.2h0.5
		c0.7,0,1.2-0.1,1.6-0.3c0.2-0.1,0.3-0.3,0.4-0.5s0.1-1,0.1-2.1V36.3H350.1z"/>
	<path class="st4" d="M373.8,36.2h1v5h4.4v1.5h-4.4v8.8c0,0.8,0.1,1.3,0.2,1.6s0.4,0.6,0.7,0.8s0.7,0.3,1.1,0.3c0.9,0,2-0.4,3.1-1.2
		v1.4c-1.3,0.9-2.6,1.3-3.9,1.3c-0.7,0-1.4-0.2-2-0.5s-1-0.7-1.2-1.2c-0.2-0.4-0.3-1.2-0.3-2.3v-9h-2.6v-1.2c0.8-0.2,1.5-0.5,2-0.9
		c0.5-0.4,0.9-0.9,1.2-1.5C373.3,38.4,373.6,37.4,373.8,36.2z"/>
	<path class="st4" d="M401.5,46.8l0-1.6c0-1.1-0.3-1.9-0.9-2.3c-0.6-0.5-1.5-0.7-2.6-0.7c-0.5,0-1,0.1-1.4,0.2
		c-0.4,0.1-0.7,0.3-1,0.5s-0.4,0.5-0.6,0.8c0,0.1-0.2,0.5-0.4,1.2c-0.2,0.9-0.7,1.3-1.4,1.3c-0.4,0-0.7-0.1-0.9-0.4s-0.4-0.6-0.4-1
		c0-0.6,0.2-1.3,0.7-1.9s1.2-1.1,2.2-1.5s2.1-0.6,3.5-0.6c1.2,0,2.3,0.2,3.2,0.6c0.9,0.4,1.5,0.9,2,1.7c0.3,0.5,0.4,1.4,0.4,2.7v5.6
		c0,0.8,0,1.3,0.1,1.6c0.1,0.4,0.3,0.7,0.6,0.9c0.3,0.2,0.6,0.3,1,0.3c0.4,0,1-0.1,1.6-0.3v1.3c-0.8,0.2-1.5,0.4-2.2,0.4
		c-0.7,0-1.3-0.1-1.8-0.3s-0.9-0.5-1.2-0.9s-0.5-0.8-0.6-1.3c-1.2,0.9-2.2,1.6-3.2,1.9s-1.9,0.6-2.9,0.6c-1.3,0-2.4-0.4-3.3-1.1
		s-1.3-1.6-1.3-2.6c0-0.6,0.2-1.2,0.5-1.7c0.3-0.5,0.8-1,1.4-1.4c0.6-0.4,1.6-0.8,3-1.1S399.1,47.1,401.5,46.8z M401.4,48.1
		c-2.3,0.3-3.7,0.6-4.2,0.7c-1.1,0.2-1.8,0.5-2.3,0.8c-0.5,0.3-0.8,0.6-1,0.9s-0.3,0.7-0.3,1.1s0.1,0.8,0.3,1.1s0.5,0.6,0.9,0.8
		s0.8,0.3,1.3,0.3c0.6,0,1.4-0.2,2.2-0.5c0.8-0.3,1.8-0.9,3.1-1.8L401.4,48.1z"/>
	<path class="st4" d="M408.3,43.2V42c0.9-0.1,1.5-0.2,1.9-0.4s1.1-0.4,1.9-0.9h1.1v2.8c1.3-1.1,2.4-1.8,3.3-2.2
		c0.9-0.4,1.8-0.6,2.8-0.6c0.8,0,1.5,0.1,2.1,0.4c0.6,0.3,1.1,0.6,1.5,1.1s0.6,1,0.8,1.6c0.1,0.4,0.1,0.9,0.1,1.6v6.4
		c0,0.8,0.1,1.3,0.2,1.5s0.3,0.4,0.5,0.5s0.8,0.1,1.8,0.1v1.2h-7.5v-1.2h0.4c0.7,0,1.2-0.1,1.4-0.2s0.4-0.3,0.5-0.6s0.2-0.7,0.2-1.5
		v-5.4c0-1.1-0.1-1.9-0.3-2.3s-0.5-0.8-0.9-1s-1-0.4-1.6-0.4c-0.8,0-1.6,0.2-2.5,0.6s-1.8,1-2.6,1.8v6.8c0,0.8,0.1,1.3,0.2,1.5
		s0.3,0.4,0.5,0.6c0.2,0.1,0.6,0.1,1.4,0.1h0.4v1.2h-7.6v-1.2h0.4c0.7,0,1.2-0.1,1.5-0.2c0.3-0.1,0.5-0.3,0.6-0.7
		c0.1-0.2,0.1-0.7,0.1-1.6v-8.4H408.3z"/>
	<path class="st4" d="M437.2,36.3V35c0.7-0.1,1.3-0.2,1.8-0.3s1.2-0.5,2.1-0.9h1.1v17.8c0,0.8,0,1.3,0.1,1.5
		c0.1,0.4,0.3,0.6,0.5,0.8s0.7,0.2,1.4,0.2h0.6v1.2l-5.1,0.2v-2.3c-1,0.9-1.9,1.5-2.7,1.9s-1.7,0.6-2.6,0.6c-1.8,0-3.2-0.7-4.4-2.1
		s-1.8-3.1-1.8-5.1c0-1.4,0.3-2.7,0.9-3.9s1.4-2.1,2.5-2.7s2.1-0.9,3.3-0.9c0.9,0,1.8,0.2,2.6,0.5s1.5,0.8,2.2,1.5v-6.5H437.2z
		 M439.7,51.7v-5.5c0-0.8-0.1-1.4-0.4-1.9s-0.8-0.9-1.5-1.3s-1.4-0.6-2.1-0.6c-0.8,0-1.6,0.2-2.4,0.7s-1.3,1.1-1.7,2
		s-0.6,1.9-0.6,3.2c0,1.2,0.2,2.2,0.6,3s0.9,1.5,1.5,1.9s1.3,0.7,1.9,0.7c0.7,0,1.4-0.2,2.2-0.6S438.9,52.4,439.7,51.7z"/>
	<path class="st4" d="M464.2,34.8h7.8v1.2h-0.8c-0.5,0-0.9,0.1-1.1,0.2s-0.4,0.3-0.5,0.5s-0.2,0.6-0.2,1.1v10.8
		c0,1.6-0.3,2.9-0.8,3.8s-1.4,1.7-2.5,2.3s-2.5,0.9-4.1,0.9c-2.1,0-3.8-0.6-5-1.7s-1.9-2.4-1.9-3.9c0-0.7,0.2-1.3,0.5-1.7
		s0.7-0.6,1.2-0.6c0.4,0,0.7,0.1,1,0.4s0.4,0.7,0.4,1.1c0,0.1,0,0.4-0.1,0.8c-0.1,0.4-0.1,0.7-0.1,0.9c0,0.7,0.4,1.4,1.1,2
		s1.7,0.9,2.9,0.9c1,0,1.8-0.2,2.6-0.6s1.3-1,1.7-1.6s0.5-1.6,0.5-2.8V38.3c0-0.7-0.1-1.2-0.2-1.5c-0.1-0.2-0.3-0.4-0.5-0.6
		s-0.7-0.2-1.3-0.2h-0.5V34.8z"/>
	<path class="st4" d="M481.7,40.8c1.4,0,2.7,0.3,3.7,0.9s1.9,1.5,2.5,2.6s0.9,2.4,0.9,3.9s-0.3,2.8-0.9,3.9s-1.5,2-2.5,2.6
		s-2.3,0.9-3.8,0.9c-2.4,0-4.1-0.7-5.3-2.2s-1.8-3.2-1.8-5.2c0-1.5,0.3-2.7,0.9-3.9s1.5-2,2.6-2.6S480.3,40.8,481.7,40.8z
		 M481.6,42.2c-1.1,0-2.1,0.4-2.8,1.3c-1,1.1-1.5,2.7-1.5,4.8c0,2,0.4,3.5,1.2,4.6c0.8,0.9,1.8,1.4,3.1,1.4c0.8,0,1.6-0.2,2.2-0.7
		s1.2-1.1,1.6-2.1s0.6-2.1,0.6-3.4c0-1.3-0.2-2.4-0.6-3.4c-0.3-0.8-0.8-1.4-1.5-1.9S482.4,42.2,481.6,42.2z"/>
	<path class="st4" d="M501,41.1h1l1.3,4.5l-1.3,0.4c-0.5-1.2-1.3-2.1-2.2-2.8s-1.9-1-2.9-1c-0.8,0-1.4,0.2-1.8,0.5s-0.7,0.8-0.7,1.3
		c0,0.4,0.2,0.8,0.5,1.2c0.3,0.3,1.1,0.7,2.2,1.1l2.9,1c1.6,0.6,2.7,1.2,3.3,1.8c0.6,0.7,0.9,1.4,0.9,2.3c0,0.7-0.2,1.4-0.6,2.1
		s-1.1,1.2-1.9,1.6s-1.8,0.6-2.8,0.6c-1.6,0-3-0.5-4.2-1.4l-0.3,1.1h-1l-1.8-4.8l1.3-0.5c0.9,1.4,1.7,2.4,2.5,3
		c1.1,0.8,2.3,1.2,3.6,1.2c0.9,0,1.5-0.2,2.1-0.7s0.8-1,0.8-1.5c0-0.5-0.2-0.9-0.5-1.3c-0.4-0.4-1-0.7-2-1.1l-3.4-1.2
		c-1.5-0.5-2.5-1.1-3-1.7s-0.8-1.3-0.8-2.2c0-1,0.5-1.9,1.4-2.6s2.1-1.1,3.5-1.1c0.7,0,1.4,0.1,2,0.3c0.6,0.2,1.2,0.5,1.7,0.9
		L501,41.1z"/>
	<path class="st4" d="M519.3,51.5l0.9,0.8c-0.7,0.8-1.4,1.5-2.1,2s-1.3,0.8-1.9,1s-1.3,0.3-2.1,0.3c-1.4,0-2.7-0.3-3.7-0.9
		c-1.2-0.7-2-1.6-2.7-2.6s-0.9-2.4-0.9-3.8c0-1.5,0.3-2.9,0.9-4s1.4-2,2.5-2.6s2.3-0.9,3.7-0.9c1,0,2,0.2,2.7,0.5
		c0.8,0.3,1.4,0.8,2,1.5c0.5,0.7,0.9,1.4,1.2,2.3c0.1,0.5,0.2,1.1,0.2,1.9h-10.4c0,0.5,0,0.8,0,1.1c0,1.2,0.2,2.3,0.6,3.3
		s1,1.7,1.7,2.1s1.5,0.7,2.4,0.7c0.8,0,1.5-0.2,2.2-0.5S518.2,52.5,519.3,51.5z M517.4,45.6c-0.1-0.9-0.4-1.6-0.6-2s-0.6-0.8-1.1-1
		s-1-0.4-1.7-0.4s-1.2,0.1-1.7,0.4s-1,0.6-1.3,1.1s-0.7,1.1-0.9,2H517.4z"/>
	<path class="st4" d="M522.2,43.2V42c0.7,0,1.4-0.1,1.9-0.3s1.2-0.5,1.9-1h1.2v2.4c1.2-1,2.2-1.6,3-1.9s1.6-0.5,2.4-0.5
		c1.7,0,3.1,0.7,4.3,2s1.8,3,1.8,5.1c0,2.3-0.7,4.2-2,5.7c-1.2,1.4-2.8,2.1-4.7,2.1c-1,0-1.9-0.2-2.7-0.5c-0.6-0.3-1.3-0.7-2.1-1.4
		v4.8c0,0.7,0,1.1,0.1,1.3c0,0.2,0.1,0.3,0.3,0.5s0.3,0.2,0.6,0.2c0.2,0,0.7,0,1.7,0v1.2h-7.5v-1.2h0.7c0.7,0,1.1-0.1,1.3-0.2
		s0.3-0.3,0.4-0.5c0.1-0.2,0.1-0.7,0.1-1.5V43.2H522.2z M527.1,44.7v5c0,0.7,0,1.2,0.1,1.5c0.1,0.5,0.3,0.9,0.7,1.3
		c0.3,0.4,0.8,0.7,1.4,1s1.2,0.4,1.8,0.4c1.3,0,2.4-0.5,3.3-1.4c0.9-1,1.4-2.4,1.4-4.4c0-1.8-0.4-3.2-1.2-4.2
		c-0.8-1-1.7-1.5-2.7-1.5c-0.7,0-1.4,0.2-2.2,0.5S528.1,44,527.1,44.7z"/>
	<path class="st4" d="M540.9,36.3V35c0.9-0.1,1.7-0.3,2.2-0.4s1.1-0.4,1.7-0.8h1.1v9.7c1.1-0.9,2.2-1.6,3.1-2s1.9-0.6,2.8-0.6
		c1.3,0,2.4,0.4,3.2,1.2c0.8,0.8,1.3,1.7,1.3,2.9V52c0,0.7,0.1,1.2,0.2,1.4s0.3,0.4,0.6,0.5s0.9,0.2,1.8,0.2v1.2h-7.6v-1.2h0.6
		c0.7,0,1.2-0.1,1.4-0.2s0.4-0.3,0.5-0.6s0.2-0.8,0.2-1.6v-5c0-1.1,0-1.8-0.1-2.2c-0.1-0.6-0.4-1-0.9-1.4s-1-0.5-1.8-0.5
		c-0.8,0-1.6,0.2-2.5,0.6s-1.8,1-2.7,1.8v7.3c0,0.5,0,0.9,0.1,1.1s0.3,0.3,0.5,0.4s0.7,0.1,1.3,0.1h0.6v1.2h-7.6v-1.2h0.5
		c0.7,0,1.2-0.1,1.6-0.3c0.2-0.1,0.3-0.3,0.4-0.5s0.1-1,0.1-2.1V36.3H540.9z"/>
	<path class="st4" d="M586.9,34.8h1.1l1.9,6.8l-1.4,0.4c-0.7-1.6-1.3-2.6-1.7-3.2c-0.6-0.9-1.4-1.6-2.3-2.1s-2-0.8-3.1-0.8
		c-1.3,0-2.5,0.4-3.6,1.1s-2,1.7-2.7,3.1s-1,2.9-1,4.6c0,1.8,0.3,3.3,1,4.7s1.6,2.4,2.8,3.2c1.2,0.7,2.5,1.1,3.9,1.1
		c1.3,0,2.6-0.4,4-1.1c1.4-0.7,2.5-1.8,3.5-3.1l1.2,0.8c-0.6,0.9-1.3,1.7-2,2.3c-1.1,1-2.3,1.7-3.5,2.2s-2.5,0.7-4,0.7
		c-3.2,0-5.8-1.2-7.7-3.5c-1.6-2-2.5-4.3-2.5-7c0-2,0.5-3.8,1.4-5.4s2.2-2.9,3.8-3.8s3.3-1.4,5.2-1.4c1,0,1.9,0.1,2.7,0.4
		s1.7,0.7,2.6,1.3L586.9,34.8z"/>
	<path class="st4" d="M599.9,40.8c1.4,0,2.7,0.3,3.7,0.9s1.9,1.5,2.5,2.6s0.9,2.4,0.9,3.9s-0.3,2.8-0.9,3.9s-1.5,2-2.5,2.6
		s-2.3,0.9-3.8,0.9c-2.4,0-4.1-0.7-5.3-2.2s-1.8-3.2-1.8-5.2c0-1.5,0.3-2.7,0.9-3.9s1.5-2,2.6-2.6S598.5,40.8,599.9,40.8z
		 M599.8,42.2c-1.1,0-2.1,0.4-2.8,1.3c-1,1.1-1.5,2.7-1.5,4.8c0,2,0.4,3.5,1.2,4.6c0.8,0.9,1.8,1.4,3.1,1.4c0.8,0,1.6-0.2,2.2-0.7
		s1.2-1.1,1.6-2.1s0.6-2.1,0.6-3.4c0-1.3-0.2-2.4-0.6-3.4c-0.3-0.8-0.8-1.4-1.5-1.9S600.6,42.2,599.8,42.2z"/>
	<path class="st4" d="M613.2,36.2h1v5h4.3v1.5h-4.3v8.8c0,0.8,0.1,1.3,0.2,1.6s0.4,0.6,0.7,0.8s0.7,0.3,1.1,0.3c0.9,0,2-0.4,3.1-1.2
		v1.4c-1.3,0.9-2.6,1.3-3.9,1.3c-0.7,0-1.4-0.2-2-0.5s-1-0.7-1.2-1.2c-0.2-0.4-0.3-1.2-0.3-2.3v-9h-2.6v-1.2c0.8-0.2,1.5-0.5,2-0.9
		c0.5-0.4,0.9-0.9,1.2-1.5C612.7,38.4,613,37.4,613.2,36.2z"/>
	<path class="st4" d="M624.6,36.2h1v5h4.3v1.5h-4.3v8.8c0,0.8,0.1,1.3,0.2,1.6s0.4,0.6,0.7,0.8s0.7,0.3,1.1,0.3c0.9,0,2-0.4,3.1-1.2
		v1.4c-1.3,0.9-2.6,1.3-3.9,1.3c-0.7,0-1.4-0.2-2-0.5s-1-0.7-1.2-1.2c-0.2-0.4-0.3-1.2-0.3-2.3v-9h-2.6v-1.2c0.8-0.2,1.5-0.5,2-0.9
		c0.5-0.4,0.9-0.9,1.2-1.5C624.1,38.4,624.4,37.4,624.6,36.2z"/>
	<path class="st4" d="M644.7,51.5l0.9,0.8c-0.7,0.8-1.4,1.5-2.1,2s-1.3,0.8-1.9,1s-1.3,0.3-2.1,0.3c-1.4,0-2.7-0.3-3.7-0.9
		c-1.2-0.7-2-1.6-2.7-2.6s-0.9-2.4-0.9-3.8c0-1.5,0.3-2.9,0.9-4s1.4-2,2.5-2.6s2.3-0.9,3.7-0.9c1,0,2,0.2,2.7,0.5
		c0.8,0.3,1.4,0.8,2,1.5c0.5,0.7,0.9,1.4,1.2,2.3c0.1,0.5,0.2,1.1,0.2,1.9h-10.4c0,0.5,0,0.8,0,1.1c0,1.2,0.2,2.3,0.6,3.3
		s1,1.7,1.7,2.1s1.5,0.7,2.4,0.7c0.8,0,1.5-0.2,2.2-0.5S643.6,52.5,644.7,51.5z M642.8,45.6c-0.1-0.9-0.4-1.6-0.6-2s-0.6-0.8-1.1-1
		s-1-0.4-1.7-0.4s-1.2,0.1-1.7,0.4s-1,0.6-1.3,1.1s-0.7,1.1-0.9,2H642.8z"/>
	<path class="st4" d="M647.7,43.2V42c0.9-0.1,1.5-0.2,1.9-0.4s1-0.4,1.9-0.9h1.1v2.8c1.3-1.1,2.4-1.8,3.3-2.2s1.8-0.6,2.8-0.6
		c0.8,0,1.5,0.1,2.1,0.4s1.1,0.6,1.5,1.1s0.6,1,0.8,1.6c0.1,0.4,0.1,0.9,0.1,1.6v6.4c0,0.8,0.1,1.3,0.2,1.5s0.3,0.4,0.5,0.5
		s0.8,0.1,1.8,0.1v1.2h-7.5v-1.2h0.4c0.7,0,1.2-0.1,1.4-0.2s0.4-0.3,0.5-0.6s0.2-0.7,0.2-1.5v-5.4c0-1.1-0.1-1.9-0.3-2.3
		s-0.5-0.8-0.9-1s-1-0.4-1.6-0.4c-0.8,0-1.6,0.2-2.5,0.6s-1.8,1-2.6,1.8v6.8c0,0.8,0.1,1.3,0.2,1.5s0.3,0.4,0.5,0.6
		c0.2,0.1,0.6,0.1,1.4,0.1h0.4v1.2h-7.6v-1.2h0.4c0.7,0,1.2-0.1,1.5-0.2c0.3-0.1,0.5-0.3,0.6-0.7c0.1-0.2,0.1-0.7,0.1-1.6v-8.4
		H647.7z"/>
	<path class="st4" d="M270.8,79.2V78c0.8-0.1,1.5-0.2,2-0.4c0.6-0.2,1.2-0.4,1.9-0.8h1.1v11.7c0,0.4,0.1,0.7,0.2,0.9
		s0.3,0.4,0.5,0.4s0.6,0.1,1.1,0.1h0.7v1.2h-7.5v-1.2h0.6c0.7,0,1.1-0.1,1.3-0.2s0.4-0.3,0.5-0.5s0.1-0.7,0.1-1.5v-8.6H270.8z
		 M274.5,70.2c0.5,0,0.9,0.2,1.2,0.5s0.5,0.7,0.5,1.2s-0.2,0.9-0.5,1.2s-0.7,0.5-1.2,0.5s-0.9-0.2-1.2-0.5s-0.5-0.7-0.5-1.2
		s0.2-0.9,0.5-1.2S274.1,70.2,274.5,70.2z"/>
	<path class="st4" d="M279.9,79.2V78c0.9-0.1,1.5-0.2,1.9-0.4s1-0.4,1.9-0.9h1.1v2.8c1.3-1.1,2.4-1.8,3.3-2.2s1.8-0.6,2.8-0.6
		c0.8,0,1.5,0.1,2.1,0.4s1.1,0.6,1.5,1.1s0.6,1,0.8,1.6c0.1,0.4,0.1,0.9,0.1,1.6v6.4c0,0.8,0.1,1.3,0.2,1.5s0.3,0.4,0.5,0.5
		s0.8,0.1,1.8,0.1v1.2h-7.5v-1.2h0.4c0.7,0,1.2-0.1,1.4-0.2s0.4-0.3,0.5-0.6s0.2-0.7,0.2-1.5v-5.4c0-1.1-0.1-1.9-0.3-2.3
		s-0.5-0.8-0.9-1s-1-0.4-1.6-0.4c-0.8,0-1.6,0.2-2.5,0.6s-1.8,1-2.6,1.8v6.8c0,0.8,0.1,1.3,0.2,1.5s0.3,0.4,0.5,0.6
		c0.2,0.1,0.6,0.1,1.4,0.1h0.4v1.2h-7.6v-1.2h0.4c0.7,0,1.2-0.1,1.5-0.2c0.3-0.1,0.5-0.3,0.6-0.7c0.1-0.2,0.1-0.7,0.1-1.6v-8.4
		H279.9z"/>
	<path class="st4" d="M317.2,70.8h2.4l6.4,17.1c0.3,0.9,0.6,1.4,0.9,1.7c0.3,0.3,0.7,0.4,1.3,0.4h0.3v1.2h-7.3v-1.2
		c0.2,0,0.5,0,0.7,0c0.5,0,0.8,0,0.9-0.1c0.3-0.2,0.4-0.4,0.4-0.7c0-0.2-0.1-0.7-0.4-1.5l-1.4-4h-7.4l-1.6,4.4
		c-0.2,0.5-0.2,0.8-0.2,1c0,0.2,0.1,0.4,0.2,0.5c0.1,0.1,0.2,0.3,0.4,0.3s0.5,0.1,0.8,0.1c0.3,0,0.5,0,0.6,0v1.2h-6.1v-1.2
		c0.6,0,1-0.1,1.2-0.2s0.5-0.3,0.7-0.5s0.4-0.8,0.7-1.6L317.2,70.8z M314.7,82.3h6.3l-3.1-8.8L314.7,82.3z"/>
	<path class="st4" d="M329.6,72.2V71c1.3-0.1,2.6-0.5,3.9-1.2h1.1v18c0,0.8,0,1.2,0.1,1.4c0.1,0.3,0.3,0.5,0.6,0.6s0.7,0.2,1.4,0.2
		h0.5v1.2h-7.5v-1.2h0.8c0.5,0,0.8-0.1,1.1-0.2s0.4-0.3,0.5-0.6s0.2-0.8,0.2-1.5V72.2H329.6z"/>
	<path class="st4" d="M338.6,77.1h2.5v-2.2c0-1.5,0.5-2.8,1.5-3.7s2.3-1.4,3.9-1.4c1.1,0,1.9,0.2,2.5,0.7s0.9,0.9,0.9,1.5
		c0,0.4-0.1,0.6-0.4,0.9s-0.5,0.4-0.9,0.4c-0.3,0-0.6-0.1-0.8-0.2s-0.6-0.4-1.1-0.9c-0.5-0.5-1-0.7-1.5-0.7c-0.3,0-0.6,0.1-0.9,0.3
		s-0.5,0.5-0.6,0.9s-0.2,1-0.2,1.8v2.8h2.8v1.5h-2.8v9.5c0,0.7,0,1.1,0.1,1.3s0.2,0.4,0.4,0.5s0.7,0.1,1.4,0.1h0.6v1.2h-7.5v-1.2
		h0.5c0.8,0,1.3,0,1.5-0.1s0.4-0.3,0.5-0.5s0.1-0.7,0.1-1.5v-9.3h-2.5V77.1z"/>
	<path class="st4" d="M348.3,79.2V78c0.7-0.1,1.3-0.2,1.9-0.4c0.6-0.2,1.2-0.5,1.9-0.9h1.1v2.8c0.7-0.8,1.5-1.5,2.4-2
		s1.7-0.7,2.5-0.7c0.7,0,1.3,0.2,1.7,0.5s0.6,0.8,0.6,1.2c0,0.4-0.1,0.7-0.4,0.9s-0.6,0.4-1,0.4c-0.2,0-0.3,0-0.5-0.1
		s-0.3-0.2-0.6-0.3c-0.5-0.4-1-0.5-1.3-0.5c-0.5,0-1,0.2-1.6,0.6c-0.7,0.5-1.3,1-1.7,1.6v6.8c0,0.6,0,1,0.1,1.2s0.2,0.4,0.3,0.5
		s0.3,0.3,0.5,0.3s0.6,0.1,1.1,0.1h0.5v1.2h-7.6v-1.2h0.6c0.6,0,1-0.1,1.2-0.2c0.3-0.1,0.4-0.3,0.6-0.6s0.2-0.7,0.2-1.4v-8.6H348.3z
		"/>
	<path class="st4" d="M374.1,87.5l0.9,0.8c-0.7,0.8-1.4,1.5-2.1,2s-1.3,0.8-1.9,1s-1.3,0.3-2.1,0.3c-1.4,0-2.7-0.3-3.7-0.9
		c-1.2-0.7-2-1.6-2.7-2.6s-0.9-2.4-0.9-3.8c0-1.5,0.3-2.9,0.9-4s1.4-2,2.5-2.6s2.3-0.9,3.7-0.9c1,0,2,0.2,2.7,0.5
		c0.8,0.3,1.4,0.8,2,1.5c0.5,0.7,0.9,1.4,1.2,2.3c0.1,0.5,0.2,1.1,0.2,1.9h-10.4c0,0.5,0,0.8,0,1.1c0,1.2,0.2,2.3,0.6,3.3
		s1,1.7,1.7,2.1s1.5,0.7,2.4,0.7c0.8,0,1.5-0.2,2.2-0.5S373,88.5,374.1,87.5z M372.2,81.6c-0.1-0.9-0.4-1.6-0.6-2s-0.6-0.8-1.1-1
		s-1-0.4-1.7-0.4s-1.2,0.1-1.7,0.4s-1,0.6-1.3,1.1s-0.7,1.1-0.9,2H372.2z"/>
	<path class="st4" d="M386.2,72.3V71c0.7-0.1,1.3-0.2,1.8-0.3s1.2-0.5,2.1-0.9h1.1v17.8c0,0.8,0,1.3,0.1,1.5
		c0.1,0.4,0.3,0.6,0.5,0.8s0.7,0.2,1.4,0.2h0.6v1.2l-5.1,0.2v-2.3c-1,0.9-1.9,1.5-2.7,1.9s-1.7,0.6-2.6,0.6c-1.8,0-3.2-0.7-4.4-2.1
		s-1.8-3.1-1.8-5.1c0-1.4,0.3-2.7,0.9-3.9s1.4-2.1,2.5-2.7s2.1-0.9,3.3-0.9c0.9,0,1.8,0.2,2.6,0.5s1.5,0.8,2.2,1.5v-6.5H386.2z
		 M388.7,87.7v-5.5c0-0.8-0.1-1.4-0.4-1.9s-0.8-0.9-1.5-1.3s-1.4-0.6-2.1-0.6c-0.8,0-1.6,0.2-2.4,0.7s-1.3,1.1-1.7,2
		s-0.6,1.9-0.6,3.2c0,1.2,0.2,2.2,0.6,3s0.9,1.5,1.5,1.9s1.3,0.7,1.9,0.7c0.7,0,1.4-0.2,2.2-0.6S387.9,88.4,388.7,87.7z"/>
	<path class="st4" d="M405.6,70.8h7.9v1.2H413c-0.6,0-1.1,0.1-1.3,0.2c-0.3,0.1-0.5,0.3-0.6,0.6c-0.1,0.2-0.1,0.7-0.1,1.4v5.7h10.6
		v-5.6c0-0.8,0-1.2-0.1-1.4c-0.1-0.3-0.2-0.6-0.5-0.7s-0.7-0.2-1.2-0.2H419v-1.2h7.8v1.2h-0.7c-0.5,0-0.9,0.1-1.2,0.2
		s-0.4,0.3-0.5,0.5s-0.1,0.7-0.1,1.4V88c0,0.8,0,1.3,0.1,1.5s0.3,0.4,0.6,0.4c0.2,0.1,0.8,0.1,1.8,0.1v1.2H419v-1.2h0.6
		c0.7,0,1.2,0,1.4-0.1c0.2-0.1,0.4-0.3,0.5-0.5c0.1-0.2,0.1-0.7,0.1-1.6v-6.4h-10.6V88c0,0.8,0.1,1.3,0.2,1.5s0.3,0.4,0.6,0.4
		c0.2,0.1,0.8,0.1,1.8,0.1v1.2h-7.9v-1.2h0.5c0.8,0,1.2,0,1.4-0.1s0.3-0.2,0.5-0.5s0.2-0.7,0.2-1.2V74.1c0-0.6-0.1-1.1-0.2-1.3
		s-0.3-0.4-0.5-0.5s-0.6-0.2-1.1-0.2h-0.8V70.8z"/>
	<path class="st4" d="M429.2,79.2V78c0.8-0.1,1.5-0.2,2-0.4c0.6-0.2,1.2-0.4,1.9-0.8h1.1v11.7c0,0.4,0.1,0.7,0.2,0.9
		s0.3,0.4,0.5,0.4s0.6,0.1,1.1,0.1h0.7v1.2h-7.5v-1.2h0.6c0.7,0,1.1-0.1,1.3-0.2s0.4-0.3,0.5-0.5s0.1-0.7,0.1-1.5v-8.6H429.2z
		 M432.9,70.2c0.5,0,0.9,0.2,1.2,0.5s0.5,0.7,0.5,1.2s-0.2,0.9-0.5,1.2s-0.7,0.5-1.2,0.5s-0.9-0.2-1.2-0.5s-0.5-0.7-0.5-1.2
		s0.2-0.9,0.5-1.2S432.4,70.2,432.9,70.2z"/>
	<path class="st4" d="M442.2,72.2h1v5h4.4v1.5h-4.4v8.8c0,0.8,0.1,1.3,0.2,1.6s0.4,0.6,0.7,0.8s0.7,0.3,1.1,0.3c0.9,0,2-0.4,3.1-1.2
		v1.4c-1.3,0.9-2.6,1.3-3.9,1.3c-0.7,0-1.4-0.2-2-0.5s-1-0.7-1.2-1.2c-0.2-0.4-0.3-1.2-0.3-2.3v-9h-2.6v-1.2c0.8-0.2,1.5-0.5,2-0.9
		c0.5-0.4,0.9-0.9,1.2-1.5C441.7,74.4,442,73.4,442.2,72.2z"/>
	<path class="st4" d="M462.6,87.2l0.9,0.8c-1.8,2.5-4,3.7-6.6,3.7c-2,0-3.7-0.7-5.1-2.1s-2.1-3.2-2.1-5.3c0-1.4,0.3-2.7,1-3.8
		s1.5-2,2.7-2.6s2.4-0.9,3.9-0.9c1.7,0,3.1,0.4,4.2,1.2s1.7,1.7,1.7,2.5c0,0.4-0.1,0.8-0.4,1s-0.6,0.4-0.9,0.4c-0.2,0-0.3,0-0.5-0.1
		s-0.3-0.2-0.5-0.4c-0.1-0.1-0.2-0.4-0.4-0.8c-0.3-0.6-0.5-0.9-0.6-1.1c-0.3-0.4-0.7-0.7-1.1-0.9s-0.9-0.3-1.5-0.3
		c-0.8,0-1.6,0.2-2.3,0.7s-1.3,1.1-1.7,2s-0.6,2-0.6,3.2c0,1.9,0.5,3.5,1.5,4.6c0.9,1,1.9,1.5,3.2,1.5c0.6,0,1.1-0.1,1.7-0.3
		s1.1-0.5,1.6-0.8C461.2,88.7,461.8,88.1,462.6,87.2z"/>
	<path class="st4" d="M465.3,72.3V71c0.9-0.1,1.7-0.3,2.2-0.4s1.1-0.4,1.7-0.8h1.1v9.7c1.1-0.9,2.2-1.6,3.1-2s1.9-0.6,2.8-0.6
		c1.3,0,2.4,0.4,3.2,1.2c0.8,0.8,1.3,1.7,1.3,2.9V88c0,0.7,0.1,1.2,0.2,1.4s0.3,0.4,0.6,0.5s0.9,0.2,1.8,0.2v1.2h-7.6v-1.2h0.6
		c0.7,0,1.2-0.1,1.4-0.2s0.4-0.3,0.5-0.6s0.2-0.8,0.2-1.6v-5c0-1.1,0-1.8-0.1-2.2c-0.1-0.6-0.4-1-0.9-1.4s-1-0.5-1.8-0.5
		c-0.8,0-1.6,0.2-2.5,0.6s-1.8,1-2.7,1.8v7.3c0,0.5,0,0.9,0.1,1.1s0.3,0.3,0.5,0.4s0.7,0.1,1.3,0.1h0.6v1.2h-7.6v-1.2h0.5
		c0.7,0,1.2-0.1,1.6-0.3c0.2-0.1,0.3-0.3,0.4-0.5s0.1-1,0.1-2.1V72.3H465.3z"/>
	<path class="st4" d="M498,87.2L499,88c-1.8,2.5-4,3.7-6.6,3.7c-2,0-3.7-0.7-5.1-2.1s-2.1-3.2-2.1-5.3c0-1.4,0.3-2.7,1-3.8
		s1.5-2,2.7-2.6s2.4-0.9,3.9-0.9c1.7,0,3.1,0.4,4.2,1.2s1.7,1.7,1.7,2.5c0,0.4-0.1,0.8-0.4,1s-0.6,0.4-0.9,0.4c-0.2,0-0.3,0-0.5-0.1
		s-0.3-0.2-0.5-0.4c-0.1-0.1-0.2-0.4-0.4-0.8c-0.3-0.6-0.5-0.9-0.6-1.1c-0.3-0.4-0.7-0.7-1.1-0.9s-0.9-0.3-1.5-0.3
		c-0.8,0-1.6,0.2-2.3,0.7s-1.3,1.1-1.7,2s-0.6,2-0.6,3.2c0,1.9,0.5,3.5,1.5,4.6c0.9,1,1.9,1.5,3.2,1.5c0.6,0,1.1-0.1,1.7-0.3
		s1.1-0.5,1.6-0.8C496.6,88.7,497.2,88.1,498,87.2z"/>
	<path class="st4" d="M508.1,76.8c1.4,0,2.7,0.3,3.7,0.9s1.9,1.5,2.5,2.6s0.9,2.4,0.9,3.9s-0.3,2.8-0.9,3.9s-1.5,2-2.5,2.6
		s-2.3,0.9-3.8,0.9c-2.4,0-4.1-0.7-5.3-2.2s-1.8-3.2-1.8-5.2c0-1.5,0.3-2.7,0.9-3.9s1.5-2,2.6-2.6S506.7,76.8,508.1,76.8z M508,78.2
		c-1.1,0-2.1,0.4-2.8,1.3c-1,1.1-1.5,2.7-1.5,4.8c0,2,0.4,3.5,1.2,4.6c0.8,0.9,1.8,1.4,3.1,1.4c0.8,0,1.6-0.2,2.2-0.7
		s1.2-1.1,1.6-2.1s0.6-2.1,0.6-3.4c0-1.3-0.2-2.4-0.6-3.4c-0.3-0.8-0.8-1.4-1.5-1.9S508.8,78.2,508,78.2z"/>
	<path class="st4" d="M530.5,87.2l0.9,0.8c-1.8,2.5-4,3.7-6.6,3.7c-2,0-3.7-0.7-5.1-2.1s-2.1-3.2-2.1-5.3c0-1.4,0.3-2.7,1-3.8
		s1.5-2,2.7-2.6s2.4-0.9,3.9-0.9c1.7,0,3.1,0.4,4.2,1.2s1.7,1.7,1.7,2.5c0,0.4-0.1,0.8-0.4,1s-0.6,0.4-0.9,0.4c-0.2,0-0.3,0-0.5-0.1
		s-0.3-0.2-0.5-0.4c-0.1-0.1-0.2-0.4-0.4-0.8c-0.3-0.6-0.5-0.9-0.6-1.1c-0.3-0.4-0.7-0.7-1.1-0.9s-0.9-0.3-1.5-0.3
		c-0.8,0-1.6,0.2-2.3,0.7s-1.3,1.1-1.7,2s-0.6,2-0.6,3.2c0,1.9,0.5,3.5,1.5,4.6c0.9,1,1.9,1.5,3.2,1.5c0.6,0,1.1-0.1,1.7-0.3
		s1.1-0.5,1.6-0.8C529,88.7,529.6,88.1,530.5,87.2z"/>
	<path class="st4" d="M532.9,72.2V71c1.2-0.1,2.5-0.5,3.9-1.2h1.1v14.6l5.4-4.3c0.9-0.7,1.3-1.1,1.3-1.4c0-0.1-0.1-0.2-0.3-0.3
		c-0.1,0-0.4-0.1-0.9-0.1h-0.8v-1.2h7.4v1.2c-0.8,0-1.5,0.1-2,0.3s-1.1,0.5-1.7,1l-4.2,3.3l5,5.5c0.5,0.5,0.9,0.9,1.2,1.1
		s0.6,0.4,0.9,0.4s0.8,0.1,1.4,0.1v1.2h-7.8v-1.2h0.6c0.6,0,1,0,1.1-0.1c0.2-0.1,0.2-0.2,0.2-0.4c0-0.2-0.1-0.4-0.4-0.7
		c0,0-0.1-0.1-0.2-0.2l-3.9-4.5l-2.4,1.8V88c0,0.7,0.1,1.2,0.2,1.4s0.3,0.4,0.5,0.5s0.7,0.2,1.3,0.2h0.5v1.2h-7.5v-1.2
		c0.8,0,1.4,0,1.6-0.1c0.3-0.1,0.6-0.3,0.7-0.6s0.2-0.8,0.2-1.6V72.2H532.9z"/>
	<path class="st4" d="M553.9,78.4l-0.8-1c2-1.6,3-3,3-4.1c0-0.1,0-0.3,0-0.5c-0.2,0.1-0.3,0.1-0.5,0.2s-0.3,0.1-0.4,0.1
		c-0.5,0-0.8-0.2-1.1-0.5s-0.4-0.7-0.4-1.2c0-0.5,0.2-0.9,0.5-1.2s0.8-0.5,1.2-0.5c0.7,0,1.2,0.3,1.7,0.8s0.7,1.2,0.7,2.1
		c0,0.5-0.1,1.1-0.3,1.7s-0.6,1.2-1,1.7S555.1,77.3,553.9,78.4z"/>
	<path class="st4" d="M568.2,77.1h1l1.3,4.5l-1.3,0.4c-0.5-1.2-1.3-2.1-2.2-2.8s-1.9-1-2.9-1c-0.8,0-1.4,0.2-1.8,0.5
		s-0.7,0.8-0.7,1.3c0,0.4,0.2,0.8,0.5,1.2c0.3,0.3,1.1,0.7,2.2,1.1l2.9,1c1.6,0.6,2.7,1.2,3.3,1.8c0.6,0.7,0.9,1.4,0.9,2.3
		c0,0.7-0.2,1.4-0.6,2.1s-1.1,1.2-1.9,1.6s-1.8,0.6-2.8,0.6c-1.6,0-3-0.5-4.2-1.4l-0.3,1.1h-1l-1.8-4.8L560,86
		c0.9,1.4,1.7,2.4,2.5,3c1.1,0.8,2.3,1.2,3.6,1.2c0.9,0,1.6-0.2,2.1-0.7s0.8-1,0.8-1.5c0-0.5-0.2-0.9-0.5-1.3c-0.4-0.4-1-0.7-2-1.1
		l-3.4-1.2c-1.5-0.5-2.5-1.1-3-1.7s-0.8-1.3-0.8-2.2c0-1,0.5-1.9,1.4-2.6s2.1-1.1,3.5-1.1c0.7,0,1.4,0.1,2,0.3
		c0.6,0.2,1.2,0.5,1.7,0.9L568.2,77.1z"/>
</g>
<g id="Quote">
	<path class="st4" d="M78,1035h9v2.8c-0.6,0-0.9,0-1.1,0.1s-0.3,0.1-0.4,0.3s-0.2,0.3-0.2,0.4c0,0.1,0.1,0.5,0.2,1l2.7,10.6l2.4-7.5
		l-0.9-3c0-0.1-0.1-0.2-0.1-0.4c-0.1-0.5-0.3-0.8-0.6-1s-0.6-0.3-1.1-0.3v-2.8h8.5v2.8h-0.7c-0.5,0-0.8,0.1-1,0.2
		c-0.2,0.2-0.3,0.4-0.3,0.6c0,0.2,0.1,0.6,0.2,1.1l2.4,9.4l2.5-9.4c0.2-0.7,0.3-1.1,0.3-1.2c0-0.2-0.1-0.4-0.3-0.5s-0.5-0.2-1-0.2
		h-0.7v-2.8h7.8v2.8c-0.6,0-1,0.1-1.2,0.2s-0.4,0.3-0.6,0.5s-0.4,0.7-0.6,1.5l-4.5,15.4h-4.4l-2.4-8.2l-2.5,8.2h-4.6l-4.6-15.7
		c-0.2-0.7-0.4-1.1-0.5-1.3s-0.3-0.4-0.6-0.5s-0.7-0.2-1.2-0.1V1035z"/>
	<path class="st4" d="M114,1034v8.1c1-0.6,1.8-1,2.6-1.2s1.5-0.4,2.2-0.4c0.9,0,1.8,0.2,2.5,0.6s1.3,0.9,1.6,1.5s0.5,1.4,0.5,2.4
		v6.1c0,0.6,0,1,0.1,1.1c0.1,0.2,0.2,0.3,0.4,0.4c0.1,0,0.5,0.1,1,0.1h0.7v2.8h-8.6v-2.8h0.4c0.4,0,0.7,0,0.9-0.1s0.3-0.2,0.3-0.3
		s0.1-0.5,0.1-1v-5.1c0-0.7,0-1.1-0.1-1.3c-0.1-0.2-0.2-0.4-0.4-0.5c-0.2-0.1-0.5-0.2-0.8-0.2c-0.5,0-0.9,0.1-1.4,0.3
		s-1.1,0.5-1.8,1v5.8c0,0.6,0,0.9,0.1,1c0.1,0.1,0.2,0.2,0.3,0.3c0.2,0.1,0.5,0.1,0.9,0.1h0.3v2.8h-8.5v-2.8h0.8
		c0.5,0,0.8,0,0.9-0.1s0.2-0.2,0.3-0.3s0.1-0.5,0.1-0.9V1038h-2.1v-2.8c0.8,0,1.7-0.2,2.7-0.4s1.9-0.5,2.7-0.8H114z"/>
	<path class="st4" d="M136.3,1046.6v-1.1c0-0.6-0.1-1.1-0.2-1.3s-0.3-0.4-0.6-0.6s-0.6-0.2-1.1-0.2c-0.3,0-0.6,0.1-0.9,0.2
		s-0.5,0.2-0.6,0.4s-0.3,0.5-0.5,1c-0.3,0.6-0.6,1-0.9,1.3s-0.8,0.4-1.3,0.4c-0.6,0-1.1-0.2-1.5-0.6s-0.6-0.9-0.6-1.5
		c0-0.7,0.2-1.2,0.6-1.7c0.5-0.7,1.4-1.2,2.4-1.7s2.3-0.6,3.7-0.6s2.5,0.2,3.5,0.7s1.6,1,2,1.6s0.6,1.5,0.6,2.8v5.2
		c0,0.6,0,1.1,0.1,1.2s0.2,0.3,0.4,0.5s0.5,0.2,0.7,0.2s0.6-0.1,1.1-0.2v2.9c-0.8,0.3-1.6,0.4-2.4,0.4c-0.9,0-1.7-0.1-2.3-0.4
		s-1.2-0.7-1.6-1.3c-1,0.6-1.9,1.1-2.7,1.4s-1.6,0.4-2.3,0.4c-1.4,0-2.5-0.4-3.4-1.2c-0.9-0.8-1.3-1.8-1.3-2.9
		c0-0.7,0.1-1.3,0.4-1.8c0.3-0.5,0.7-1,1.3-1.4s1.5-0.8,2.7-1.1S134.5,1046.7,136.3,1046.6z M136.3,1049c-1.3,0.2-2.2,0.4-2.7,0.6
		s-0.9,0.4-1.1,0.7s-0.3,0.6-0.3,0.9c0,0.4,0.1,0.7,0.4,1s0.7,0.4,1.2,0.4c0.3,0,0.7-0.1,1.1-0.2s0.9-0.4,1.4-0.7V1049z"/>
	<path class="st4" d="M151.4,1035.8v5h4.7v3.1h-4.7v5.1c0,1.2,0.1,1.9,0.2,2.2s0.3,0.6,0.7,0.8c0.4,0.3,0.9,0.4,1.5,0.4
		c1,0,2-0.3,3-1v3.1c-0.8,0.4-1.6,0.7-2.3,0.8s-1.4,0.2-2.2,0.2c-0.9,0-1.7-0.1-2.4-0.3s-1.3-0.6-1.8-1s-0.8-0.9-1-1.4
		s-0.3-1.2-0.3-2.1v-7h-2.2v-2.8c0.8-0.3,1.4-0.6,2-1.1s1-1,1.3-1.7s0.6-1.5,0.7-2.5H151.4z"/>
	<path class="st4" d="M184,1034v17c0,0.7,0,1.1,0.1,1.2s0.2,0.2,0.3,0.3s0.5,0.1,1.1,0.1h0.7v2.8l-6.4,0.2v-1.5
		c-0.9,0.6-1.7,1-2.4,1.3s-1.4,0.4-2.1,0.4c-1.1,0-2.2-0.3-3.1-0.9s-1.7-1.5-2.3-2.7s-0.9-2.5-0.9-4c0-1.5,0.3-2.8,0.9-4
		s1.4-2.1,2.4-2.7c1-0.6,2.1-0.9,3.3-0.9c0.6,0,1.2,0.1,1.8,0.2c0.6,0.2,1.2,0.4,1.9,0.8v-3.5h-2.1v-2.8c1.2-0.1,2.2-0.3,2.9-0.4
		c0.8-0.2,1.6-0.4,2.4-0.8H184z M179.3,1051.3v-4.9c0-0.6,0-1-0.1-1.3c-0.1-0.4-0.4-0.7-0.8-1s-0.9-0.4-1.4-0.4
		c-0.5,0-1,0.2-1.5,0.5c-0.5,0.3-0.8,0.8-1.1,1.5s-0.4,1.5-0.4,2.4c0,1.4,0.3,2.4,0.9,3.3c0.5,0.6,1.1,1,1.8,1c0.3,0,0.7-0.1,1-0.2
		S178.6,1051.8,179.3,1051.3z"/>
	<path class="st4" d="M196.2,1040.5c1.7,0,3.1,0.3,4.4,1s2.2,1.5,2.9,2.7s1,2.4,1,4c0,2.3-0.7,4.1-2.2,5.6s-3.5,2.1-5.9,2.1
		c-2.5,0-4.5-0.7-6-2.2c-1.4-1.4-2.2-3.2-2.2-5.6c0-1.5,0.3-2.9,1-4s1.6-2,2.9-2.7S194.6,1040.5,196.2,1040.5z M196.2,1043.7
		c-0.6,0-1.1,0.2-1.6,0.5s-0.9,0.8-1.1,1.5s-0.4,1.5-0.4,2.5c0,1,0.1,1.9,0.4,2.5s0.6,1.2,1.1,1.5s1,0.5,1.5,0.5
		c0.9,0,1.6-0.4,2.2-1.1s0.9-1.9,0.9-3.4c0-1.5-0.3-2.6-0.9-3.3S197.1,1043.7,196.2,1043.7z"/>
	<path class="st4" d="M219.9,1050.1l2,2c-1.2,1.3-2.3,2.3-3.5,2.9s-2.5,0.9-3.9,0.9c-2.2,0-4.1-0.8-5.6-2.3s-2.3-3.3-2.3-5.5
		c0-1.4,0.3-2.7,1-3.9s1.6-2.1,2.8-2.7s2.6-1,4.1-1c1,0,1.9,0.1,2.7,0.4s1.5,0.7,2.1,1.2s1.1,1.2,1.5,1.9s0.6,1.5,0.8,2.3
		c0.1,0.4,0.1,1,0.1,1.9h-9.9c0,1.2,0.4,2.2,1.1,3s1.6,1.1,2.6,1.1c0.7,0,1.4-0.2,2.1-0.6S219.1,1050.9,219.9,1050.1z M217,1045.8
		c-0.1-0.6-0.2-1-0.4-1.4s-0.5-0.6-0.9-0.8c-0.4-0.2-0.7-0.3-1.1-0.3c-0.4,0-0.8,0.1-1.2,0.3c-0.4,0.2-0.7,0.5-0.9,0.8
		c-0.2,0.4-0.4,0.8-0.4,1.3H217z"/>
	<path class="st4" d="M234,1040.9h1.9l1.2,4.1l-2.8,1.1c-0.5-0.8-1.2-1.5-2-2s-1.6-0.7-2.4-0.7c-0.5,0-0.9,0.1-1.2,0.3
		s-0.4,0.4-0.4,0.6c0,0.2,0.1,0.4,0.3,0.6s0.6,0.4,1.1,0.6l4,1.4c0.7,0.3,1.4,0.6,2.1,1s1.1,0.8,1.5,1.4s0.5,1.2,0.5,1.9
		c0,1.3-0.5,2.4-1.5,3.3c-1.2,1-2.7,1.5-4.5,1.5c-1.5,0-2.9-0.4-4-1.2l-0.4,0.8h-1.9l-1.8-4.8l2.8-1.2c0.7,1.1,1.5,1.9,2.6,2.6
		s1.9,0.9,2.8,0.9c0.5,0,1-0.1,1.3-0.4c0.3-0.2,0.4-0.4,0.4-0.7c0-0.2-0.1-0.4-0.3-0.6s-0.7-0.4-1.4-0.7l-3.2-1.1
		c-1.7-0.6-2.9-1.3-3.6-2s-0.9-1.5-0.9-2.5c0-1.2,0.5-2.3,1.5-3.1c1.1-1,2.5-1.4,4.2-1.4c1.5,0,2.7,0.3,3.8,1L234,1040.9z"/>
	<path class="st4" d="M256.8,1034v8.1c1-0.6,1.8-1,2.6-1.2s1.5-0.4,2.2-0.4c0.9,0,1.8,0.2,2.5,0.6s1.3,0.9,1.6,1.5s0.5,1.4,0.5,2.4
		v6.1c0,0.6,0,1,0.1,1.1c0.1,0.2,0.2,0.3,0.4,0.4c0.1,0,0.5,0.1,1,0.1h0.7v2.8h-8.6v-2.8h0.4c0.4,0,0.7,0,0.9-0.1s0.3-0.2,0.3-0.3
		s0.1-0.5,0.1-1v-5.1c0-0.7,0-1.1-0.1-1.3s-0.2-0.4-0.4-0.5s-0.5-0.2-0.8-0.2c-0.5,0-0.9,0.1-1.4,0.3c-0.5,0.2-1.1,0.5-1.8,1v5.8
		c0,0.6,0,0.9,0.1,1c0.1,0.1,0.2,0.2,0.3,0.3c0.2,0.1,0.5,0.1,0.9,0.1h0.3v2.8H250v-2.8h0.8c0.5,0,0.8,0,0.9-0.1s0.2-0.2,0.3-0.3
		s0.1-0.5,0.1-0.9V1038H250v-2.8c0.8,0,1.7-0.2,2.7-0.4s1.9-0.5,2.7-0.8H256.8z"/>
	<path class="st4" d="M283.5,1050.1l2,2c-1.2,1.3-2.3,2.3-3.5,2.9s-2.5,0.9-3.9,0.9c-2.2,0-4.1-0.8-5.6-2.3s-2.3-3.3-2.3-5.5
		c0-1.4,0.3-2.7,1-3.9s1.6-2.1,2.8-2.7s2.6-1,4.1-1c1,0,1.9,0.1,2.7,0.4s1.5,0.7,2.1,1.2s1.1,1.2,1.5,1.9s0.6,1.5,0.8,2.3
		c0.1,0.4,0.1,1,0.1,1.9h-9.9c0,1.2,0.4,2.2,1.1,3s1.6,1.1,2.6,1.1c0.7,0,1.4-0.2,2.1-0.6S282.7,1050.9,283.5,1050.1z M280.6,1045.8
		c-0.1-0.6-0.2-1-0.4-1.4s-0.5-0.6-0.9-0.8c-0.4-0.2-0.7-0.3-1.1-0.3c-0.4,0-0.8,0.1-1.2,0.3c-0.4,0.2-0.7,0.5-0.9,0.8
		c-0.2,0.4-0.4,0.8-0.4,1.3H280.6z"/>
	<path class="st4" d="M313,1034v17c0,0.7,0,1.1,0.1,1.2s0.2,0.2,0.3,0.3s0.5,0.1,1.1,0.1h0.7v2.8l-6.4,0.2v-1.5
		c-0.9,0.6-1.7,1-2.4,1.3s-1.4,0.4-2.1,0.4c-1.1,0-2.2-0.3-3.1-0.9s-1.7-1.5-2.3-2.7s-0.9-2.5-0.9-4c0-1.5,0.3-2.8,0.9-4
		c0.6-1.2,1.4-2.1,2.4-2.7s2.1-0.9,3.3-0.9c0.6,0,1.2,0.1,1.8,0.2s1.2,0.4,1.9,0.8v-3.5h-2.1v-2.8c1.2-0.1,2.2-0.3,2.9-0.4
		c0.8-0.2,1.6-0.4,2.4-0.8H313z M308.3,1051.3v-4.9c0-0.6,0-1-0.1-1.3c-0.1-0.4-0.4-0.7-0.8-1s-0.9-0.4-1.4-0.4
		c-0.5,0-1,0.2-1.5,0.5c-0.4,0.3-0.8,0.8-1.1,1.5s-0.4,1.5-0.4,2.4c0,1.4,0.3,2.4,0.9,3.3c0.5,0.6,1.1,1,1.8,1c0.3,0,0.7-0.1,1-0.2
		C307.1,1052,307.6,1051.8,308.3,1051.3z"/>
	<path class="st4" d="M325.2,1040.5c1.7,0,3.1,0.3,4.4,1s2.2,1.5,2.9,2.7s1,2.4,1,4c0,2.3-0.7,4.1-2.2,5.6s-3.5,2.1-5.9,2.1
		c-2.5,0-4.5-0.7-6-2.2c-1.4-1.4-2.2-3.2-2.2-5.6c0-1.5,0.3-2.9,1-4s1.6-2,2.9-2.7S323.6,1040.5,325.2,1040.5z M325.2,1043.7
		c-0.6,0-1.1,0.2-1.6,0.5s-0.9,0.8-1.1,1.5s-0.4,1.5-0.4,2.5c0,1,0.1,1.9,0.4,2.5s0.6,1.2,1.1,1.5s1,0.5,1.5,0.5
		c0.9,0,1.6-0.4,2.2-1.1s0.9-1.9,0.9-3.4c0-1.5-0.3-2.6-0.9-3.3S326.1,1043.7,325.2,1043.7z"/>
	<path class="st4" d="M343.4,1049.2h-2.8v-5.6h0.9c1.8,0,3.2-0.1,3.9-0.3c0.8-0.2,1.3-0.5,1.7-0.9s0.5-0.8,0.5-1.3
		c0-1-0.5-1.8-1.5-2.5c-0.9-0.6-1.8-0.9-2.8-0.9c-0.5,0-1,0.1-1.4,0.4c-0.4,0.2-0.9,0.7-1.3,1.4c-0.4,0.6-0.8,1-1.1,1.2
		c-0.4,0.2-0.8,0.3-1.2,0.3c-0.6,0-1.1-0.2-1.6-0.6s-0.6-0.9-0.6-1.5c0-1.2,0.7-2.3,2.2-3c1.5-0.8,3.1-1.2,5.1-1.2
		c1.8,0,3.4,0.3,4.9,1s2.6,1.5,3.3,2.6s1.1,2.2,1.1,3.4c0,1.3-0.4,2.4-1.2,3.4s-1.9,1.6-3.3,2.1c-0.9,0.3-2.5,0.4-4.6,0.5V1049.2z
		 M342,1050.2c0.8,0,1.4,0.3,1.9,0.8c0.5,0.5,0.8,1.2,0.8,1.9s-0.3,1.4-0.8,1.9c-0.5,0.5-1.2,0.8-1.9,0.8c-0.8,0-1.4-0.3-1.9-0.8
		c-0.5-0.5-0.8-1.2-0.8-1.9s0.3-1.4,0.8-1.9C340.6,1050.5,341.3,1050.2,342,1050.2z"/>
	<path class="st4" d="M376.6,1034.7c3.2,0,5.9,1,7.9,3s3,4.5,3,7.6c0,2.1-0.5,3.9-1.4,5.5s-2.2,2.9-3.8,3.7s-3.6,1.3-5.9,1.3
		c-3,0-5.5-0.8-7.4-2.5c-2.3-2-3.5-4.7-3.5-8c0-3.1,1-5.7,3.1-7.6S373.3,1034.7,376.6,1034.7z M376.7,1037.9c-1.6,0-2.8,0.6-3.7,1.7
		c-1.2,1.5-1.7,3.4-1.7,5.7s0.5,4.1,1.6,5.5c0.9,1.2,2.2,1.7,3.7,1.7c1.5,0,2.8-0.6,3.7-1.7c1.1-1.4,1.6-3.2,1.6-5.5
		c0-1.6-0.2-3-0.7-4.1s-1.1-1.9-1.9-2.5S377.6,1037.9,376.7,1037.9z"/>
	<path class="st4" d="M396.6,1034v8.1c1-0.6,1.8-1,2.6-1.2s1.5-0.4,2.2-0.4c0.9,0,1.8,0.2,2.5,0.6s1.3,0.9,1.6,1.5s0.5,1.4,0.5,2.4
		v6.1c0,0.6,0,1,0.1,1.1c0.1,0.2,0.2,0.3,0.4,0.4c0.1,0,0.5,0.1,1,0.1h0.7v2.8h-8.6v-2.8h0.4c0.4,0,0.7,0,0.9-0.1s0.3-0.2,0.3-0.3
		s0.1-0.5,0.1-1v-5.1c0-0.7,0-1.1-0.1-1.3s-0.2-0.4-0.4-0.5s-0.5-0.2-0.8-0.2c-0.5,0-0.9,0.1-1.4,0.3c-0.5,0.2-1.1,0.5-1.8,1v5.8
		c0,0.6,0,0.9,0.1,1c0.1,0.1,0.2,0.2,0.3,0.3c0.2,0.1,0.5,0.1,0.9,0.1h0.3v2.8h-8.5v-2.8h0.8c0.5,0,0.8,0,0.9-0.1s0.2-0.2,0.3-0.3
		s0.1-0.5,0.1-0.9V1038h-2.1v-2.8c0.8,0,1.7-0.2,2.7-0.4s1.9-0.5,2.7-0.8H396.6z"/>
	<path class="st4" d="M412.9,1061l-1.7-1.8c1.3-1.2,2.1-2,2.4-2.4s0.6-1,0.8-1.7c-0.2,0.1-0.4,0.2-0.6,0.3s-0.4,0.1-0.6,0.1
		c-0.6,0-1-0.2-1.5-0.7s-0.6-1-0.6-1.7c0-0.8,0.3-1.4,0.8-2s1.2-0.8,2-0.8c0.6,0,1.1,0.2,1.7,0.5s1,0.8,1.2,1.3s0.4,1.2,0.4,2
		c0,1.2-0.4,2.4-1.2,3.6S414.2,1060,412.9,1061z"/>
	<path class="st4" d="M437.4,1034v8.1c1-0.6,1.8-1,2.6-1.2s1.5-0.4,2.2-0.4c0.9,0,1.8,0.2,2.5,0.6s1.3,0.9,1.6,1.5s0.5,1.4,0.5,2.4
		v6.1c0,0.6,0,1,0.1,1.1c0.1,0.2,0.2,0.3,0.4,0.4c0.1,0,0.5,0.1,1,0.1h0.7v2.8h-8.6v-2.8h0.4c0.4,0,0.7,0,0.9-0.1s0.3-0.2,0.3-0.3
		s0.1-0.5,0.1-1v-5.1c0-0.7,0-1.1-0.1-1.3c-0.1-0.2-0.2-0.4-0.4-0.5c-0.2-0.1-0.5-0.2-0.8-0.2c-0.5,0-0.9,0.1-1.4,0.3
		s-1.1,0.5-1.8,1v5.8c0,0.6,0,0.9,0.1,1c0.1,0.1,0.2,0.2,0.3,0.3c0.2,0.1,0.5,0.1,0.9,0.1h0.3v2.8h-8.5v-2.8h0.8
		c0.5,0,0.8,0,0.9-0.1s0.2-0.2,0.3-0.3s0.1-0.5,0.1-0.9V1038h-2.1v-2.8c0.8,0,1.7-0.2,2.7-0.4s1.9-0.5,2.7-0.8H437.4z"/>
	<path class="st4" d="M464.1,1050.1l2,2c-1.2,1.3-2.3,2.3-3.5,2.9s-2.5,0.9-3.9,0.9c-2.2,0-4.1-0.8-5.6-2.3s-2.3-3.3-2.3-5.5
		c0-1.4,0.3-2.7,1-3.9s1.6-2.1,2.8-2.7s2.6-1,4.1-1c1,0,1.9,0.1,2.7,0.4s1.5,0.7,2.1,1.2s1.1,1.2,1.5,1.9s0.6,1.5,0.8,2.3
		c0.1,0.4,0.1,1,0.1,1.9H456c0,1.2,0.4,2.2,1.1,3s1.6,1.1,2.6,1.1c0.7,0,1.4-0.2,2.1-0.6S463.3,1050.9,464.1,1050.1z M461.2,1045.8
		c-0.1-0.6-0.2-1-0.4-1.4c-0.2-0.3-0.5-0.6-0.9-0.8s-0.7-0.3-1.1-0.3c-0.4,0-0.8,0.1-1.2,0.3c-0.4,0.2-0.7,0.5-0.9,0.8
		s-0.4,0.8-0.4,1.3H461.2z"/>
	<path class="st4" d="M470.1,1043.1l-0.9-4.9c-0.1-0.7-0.2-1.1-0.2-1.4c0-0.6,0.2-1.1,0.5-1.5s0.7-0.6,1.2-0.6s0.9,0.2,1.2,0.6
		s0.5,0.9,0.5,1.5c0,0.3,0,0.6-0.1,1l-0.1,0.3l-0.9,4.9H470.1z"/>
	<path class="st4" d="M485.4,1040.9h1.9l1.2,4.1l-2.8,1.1c-0.5-0.8-1.2-1.5-2-2s-1.6-0.7-2.4-0.7c-0.5,0-0.9,0.1-1.2,0.3
		s-0.4,0.4-0.4,0.6c0,0.2,0.1,0.4,0.3,0.6s0.6,0.4,1.1,0.6l4,1.4c0.7,0.3,1.4,0.6,2.1,1s1.1,0.8,1.5,1.4s0.5,1.2,0.5,1.9
		c0,1.3-0.5,2.4-1.5,3.3c-1.2,1-2.7,1.5-4.5,1.5c-1.5,0-2.9-0.4-4-1.2l-0.4,0.8h-1.9l-1.8-4.8l2.8-1.2c0.7,1.1,1.5,1.9,2.6,2.6
		s1.9,0.9,2.8,0.9c0.5,0,1-0.1,1.3-0.4c0.3-0.2,0.4-0.4,0.4-0.7c0-0.2-0.1-0.4-0.3-0.6s-0.7-0.4-1.4-0.7l-3.2-1.1
		c-1.7-0.6-2.9-1.3-3.6-2s-0.9-1.5-0.9-2.5c0-1.2,0.5-2.3,1.5-3.1c1.1-1,2.5-1.4,4.2-1.4c1.5,0,2.7,0.3,3.8,1L485.4,1040.9z"/>
	<path class="st4" d="M508.2,1040.5v15.6c0,1.5-0.2,2.6-0.6,3.4c-0.4,0.8-1.1,1.4-2.1,1.9c-1,0.5-2.2,0.8-3.5,0.8
		c-1,0-1.8-0.1-2.5-0.4s-1.2-0.7-1.6-1.2s-0.5-1-0.5-1.5c0-0.5,0.2-1,0.6-1.4s0.9-0.6,1.5-0.6c0.3,0,0.7,0.1,1.1,0.3
		s0.8,0.6,1.3,1.2c0.3,0.3,0.6,0.5,0.8,0.5c0.3,0,0.6-0.1,0.8-0.4s0.3-0.7,0.3-1.4v-12.8h-2.2v-2.8c1,0,2-0.1,2.8-0.3
		c0.9-0.2,1.8-0.5,2.6-0.9H508.2z M505.8,1034c0.7,0,1.4,0.3,1.9,0.8s0.8,1.2,0.8,1.9c0,0.7-0.3,1.4-0.8,1.9s-1.2,0.8-1.9,0.8
		c-0.7,0-1.4-0.3-1.9-0.8s-0.8-1.2-0.8-1.9s0.3-1.4,0.8-1.9S505.1,1034,505.8,1034z"/>
	<path class="st4" d="M511.1,1040.9l6.8-0.1v9.5c0,0.7,0,1.1,0.1,1.3s0.2,0.4,0.5,0.5s0.5,0.2,0.8,0.2c0.5,0,1-0.1,1.6-0.4
		c0.2-0.1,0.8-0.4,1.7-1v-5.7c0-0.5,0-0.8-0.1-1c-0.1-0.2-0.2-0.3-0.3-0.4c-0.1-0.1-0.4-0.1-0.9-0.1h-0.9v-2.8l6.9-0.1v10.5
		c0,0.5,0,0.9,0.1,1s0.2,0.2,0.3,0.3s0.5,0.1,1,0.1h0.8v2.8l-6.4,0.2v-1.7c-0.9,0.6-1.7,1.1-2.6,1.4c-0.9,0.3-1.7,0.5-2.6,0.5
		c-0.7,0-1.3-0.1-1.9-0.3s-1.1-0.5-1.5-0.9c-0.4-0.4-0.7-0.8-0.9-1.4s-0.3-1.2-0.3-2v-6c0-0.6,0-0.9-0.1-1.1s-0.2-0.3-0.3-0.3
		c-0.1-0.1-0.5-0.1-0.9-0.1h-0.8V1040.9z"/>
	<path class="st4" d="M541.2,1040.9h1.9l1.2,4.1l-2.8,1.1c-0.5-0.8-1.2-1.5-2-2s-1.6-0.7-2.4-0.7c-0.5,0-0.9,0.1-1.2,0.3
		s-0.4,0.4-0.4,0.6c0,0.2,0.1,0.4,0.3,0.6s0.6,0.4,1.1,0.6l4,1.4c0.7,0.3,1.4,0.6,2.1,1s1.1,0.8,1.5,1.4s0.5,1.2,0.5,1.9
		c0,1.3-0.5,2.4-1.5,3.3c-1.2,1-2.7,1.5-4.5,1.5c-1.5,0-2.9-0.4-4-1.2l-0.4,0.8h-1.9l-1.8-4.8l2.8-1.2c0.7,1.1,1.5,1.9,2.6,2.6
		s1.9,0.9,2.8,0.9c0.5,0,1-0.1,1.3-0.4c0.3-0.2,0.4-0.4,0.4-0.7c0-0.2-0.1-0.4-0.3-0.6s-0.7-0.4-1.4-0.7l-3.2-1.1
		c-1.7-0.6-2.9-1.3-3.6-2s-0.9-1.5-0.9-2.5c0-1.2,0.5-2.3,1.5-3.1c1.1-1,2.5-1.4,4.2-1.4c1.5,0,2.7,0.3,3.8,1L541.2,1040.9z"/>
	<path class="st4" d="M553.4,1035.8v5h4.7v3.1h-4.7v5.1c0,1.2,0.1,1.9,0.2,2.2s0.3,0.6,0.7,0.8c0.4,0.3,0.9,0.4,1.5,0.4
		c1,0,2-0.3,3-1v3.1c-0.8,0.4-1.6,0.7-2.3,0.8s-1.4,0.2-2.2,0.2c-0.9,0-1.7-0.1-2.4-0.3s-1.3-0.6-1.8-1s-0.8-0.9-1-1.4
		s-0.3-1.2-0.3-2.1v-7h-2.2v-2.8c0.8-0.3,1.5-0.6,2-1.1s1-1,1.3-1.7s0.6-1.5,0.7-2.5H553.4z"/>
	<path class="st4" d="M577.7,1040.5v10.8c0,0.5,0,0.8,0.1,1s0.2,0.2,0.3,0.3s0.5,0.1,1,0.1h0.8v2.8h-9.1v-2.8h0.8c0.5,0,0.8,0,1-0.1
		s0.2-0.1,0.3-0.3s0.1-0.4,0.1-0.8v-7h-2.2v-2.8c0.8,0,1.5-0.1,2.2-0.2s1.3-0.3,1.9-0.5c0.4-0.1,0.8-0.3,1.3-0.6H577.7z M575.3,1034
		c0.7,0,1.4,0.3,1.9,0.8s0.8,1.2,0.8,1.9c0,0.8-0.3,1.4-0.8,1.9s-1.2,0.8-1.9,0.8s-1.4-0.3-1.9-0.8s-0.8-1.2-0.8-1.9
		c0-0.7,0.3-1.4,0.8-1.9S574.6,1034,575.3,1034z"/>
	<path class="st4" d="M588.1,1040.5v1.9c1.1-0.8,2-1.3,2.8-1.5s1.6-0.4,2.4-0.4c0.9,0,1.8,0.2,2.5,0.6s1.3,0.9,1.6,1.5
		s0.5,1.5,0.5,2.6v6.1c0,0.5,0,0.8,0.1,1s0.2,0.3,0.3,0.3c0.1,0,0.5,0.1,1.1,0.1h0.7v2.8h-8.6v-2.8c0.7,0,1,0,1.1,0
		c0.2-0.1,0.4-0.2,0.5-0.3s0.1-0.5,0.1-1v-5.4c0-0.7-0.1-1.1-0.2-1.3c-0.2-0.3-0.6-0.5-1.1-0.5c-0.4,0-0.9,0.1-1.3,0.3
		s-1.1,0.6-1.9,1.1v5.8c0,0.6,0.1,1,0.2,1.2c0.1,0.1,0.5,0.2,1,0.2h0.5v2.8h-8.5v-2.8h0.4c0.7,0,1.1,0,1.3-0.1s0.3-0.2,0.4-0.3
		s0.1-0.4,0.1-0.9v-6.8h-2.2v-2.8c1.8-0.2,3.4-0.6,4.9-1.2H588.1z"/>
	<path class="st4" d="M617.9,1034v7.9c0.8-0.5,1.5-0.9,2.2-1.1c0.6-0.2,1.3-0.3,1.9-0.3c1.7,0,3,0.6,4.1,1.8
		c1.3,1.4,1.9,3.3,1.9,5.6c0,2.4-0.6,4.3-1.9,5.7c-1.3,1.4-2.8,2.2-4.6,2.2c-0.7,0-1.4-0.1-2.1-0.4c-0.7-0.2-1.4-0.6-2.1-1.2
		l-0.8,1.2h-3.2V1038h-2.1v-2.8c1.9-0.1,3.7-0.6,5.4-1.2H617.9z M617.9,1045v4.5c0,0.9,0.1,1.5,0.2,1.9c0.1,0.3,0.4,0.6,0.7,0.8
		c0.4,0.2,0.8,0.3,1.3,0.3c0.8,0,1.5-0.3,1.9-1c0.6-0.8,0.9-2,0.9-3.4c0-1.4-0.3-2.4-0.8-3.2c-0.4-0.6-1-0.9-1.7-0.9
		c-0.4,0-0.8,0.1-1.2,0.3C618.9,1044.4,618.4,1044.7,617.9,1045z"/>
	<path class="st4" d="M629.9,1040.9l6.8-0.1v9.5c0,0.7,0,1.1,0.1,1.3c0.1,0.2,0.2,0.4,0.5,0.5c0.2,0.1,0.5,0.2,0.8,0.2
		c0.5,0,1-0.1,1.6-0.4c0.2-0.1,0.8-0.4,1.7-1v-5.7c0-0.5,0-0.8-0.1-1c-0.1-0.2-0.2-0.3-0.3-0.4c-0.1-0.1-0.4-0.1-0.9-0.1h-0.9v-2.8
		l6.9-0.1v10.5c0,0.5,0,0.9,0.1,1c0.1,0.1,0.2,0.2,0.3,0.3c0.1,0.1,0.5,0.1,1,0.1h0.8v2.8l-6.4,0.2v-1.7c-0.9,0.6-1.7,1.1-2.6,1.4
		c-0.9,0.3-1.7,0.5-2.6,0.5c-0.7,0-1.3-0.1-1.9-0.3s-1.1-0.5-1.5-0.9c-0.4-0.4-0.7-0.8-0.9-1.4s-0.3-1.2-0.3-2v-6
		c0-0.6,0-0.9-0.1-1.1s-0.2-0.3-0.3-0.3c-0.1-0.1-0.5-0.1-0.9-0.1h-0.8V1040.9z"/>
	<path class="st4" d="M660,1040.9h1.9l1.2,4.1l-2.8,1.1c-0.5-0.8-1.2-1.5-2-2c-0.8-0.5-1.6-0.7-2.4-0.7c-0.5,0-0.9,0.1-1.2,0.3
		s-0.4,0.4-0.4,0.6c0,0.2,0.1,0.4,0.3,0.6c0.2,0.2,0.6,0.4,1.1,0.6l4,1.4c0.7,0.3,1.4,0.6,2.1,1s1.1,0.8,1.5,1.4
		c0.3,0.6,0.5,1.2,0.5,1.9c0,1.3-0.5,2.4-1.5,3.3c-1.2,1-2.7,1.5-4.5,1.5c-1.5,0-2.9-0.4-4-1.2l-0.4,0.8h-1.9l-1.8-4.8l2.8-1.2
		c0.7,1.1,1.5,1.9,2.6,2.6s1.9,0.9,2.8,0.9c0.5,0,1-0.1,1.3-0.4c0.3-0.2,0.4-0.4,0.4-0.7c0-0.2-0.1-0.4-0.3-0.6s-0.7-0.4-1.4-0.7
		l-3.2-1.1c-1.7-0.6-2.9-1.3-3.6-2c-0.6-0.7-0.9-1.5-0.9-2.5c0-1.2,0.5-2.3,1.5-3.1c1.1-1,2.5-1.4,4.2-1.4c1.5,0,2.7,0.3,3.8,1
		L660,1040.9z"/>
	<path class="st4" d="M672.5,1040.5v10.8c0,0.5,0,0.8,0.1,1s0.2,0.2,0.3,0.3c0.2,0.1,0.5,0.1,1,0.1h0.8v2.8h-9.1v-2.8h0.8
		c0.5,0,0.8,0,1-0.1c0.1-0.1,0.2-0.1,0.3-0.3s0.1-0.4,0.1-0.8v-7h-2.2v-2.8c0.8,0,1.5-0.1,2.2-0.2c0.7-0.1,1.3-0.3,1.9-0.5
		c0.4-0.1,0.8-0.3,1.3-0.6H672.5z M670.1,1034c0.7,0,1.4,0.3,1.9,0.8c0.5,0.5,0.8,1.2,0.8,1.9c0,0.8-0.3,1.4-0.8,1.9
		c-0.5,0.5-1.2,0.8-1.9,0.8s-1.4-0.3-1.9-0.8c-0.5-0.5-0.8-1.2-0.8-1.9c0-0.7,0.3-1.4,0.8-1.9S669.4,1034,670.1,1034z"/>
	<path class="st4" d="M682.9,1040.5v1.9c1.1-0.8,2-1.3,2.8-1.5c0.8-0.3,1.6-0.4,2.4-0.4c0.9,0,1.8,0.2,2.5,0.6
		c0.7,0.4,1.3,0.9,1.6,1.5s0.5,1.5,0.5,2.6v6.1c0,0.5,0,0.8,0.1,1c0.1,0.1,0.2,0.3,0.3,0.3c0.1,0,0.5,0.1,1.1,0.1h0.7v2.8h-8.6v-2.8
		c0.7,0,1,0,1.1,0c0.2-0.1,0.4-0.2,0.5-0.3s0.1-0.5,0.1-1v-5.4c0-0.7-0.1-1.1-0.2-1.3c-0.2-0.3-0.6-0.5-1.1-0.5
		c-0.4,0-0.9,0.1-1.3,0.3s-1.1,0.6-1.9,1.1v5.8c0,0.6,0.1,1,0.2,1.2c0.1,0.1,0.5,0.2,1,0.2h0.5v2.8h-8.5v-2.8h0.4
		c0.7,0,1.1,0,1.3-0.1c0.2-0.1,0.3-0.2,0.4-0.3c0.1-0.1,0.1-0.4,0.1-0.9v-6.8h-2.2v-2.8c1.8-0.2,3.4-0.6,4.9-1.2H682.9z"/>
	<path class="st4" d="M710.1,1050.1l2,2c-1.2,1.3-2.3,2.3-3.5,2.9c-1.2,0.6-2.5,0.9-3.9,0.9c-2.2,0-4.1-0.8-5.6-2.3
		s-2.3-3.3-2.3-5.5c0-1.4,0.3-2.7,1-3.9s1.6-2.1,2.8-2.7s2.6-1,4.1-1c1,0,1.9,0.1,2.7,0.4s1.5,0.7,2.1,1.2c0.6,0.5,1.1,1.2,1.5,1.9
		c0.4,0.7,0.6,1.5,0.8,2.3c0.1,0.4,0.1,1,0.1,1.9H702c0,1.2,0.4,2.2,1.1,3c0.7,0.8,1.6,1.1,2.6,1.1c0.7,0,1.4-0.2,2.1-0.6
		S709.3,1050.9,710.1,1050.1z M707.2,1045.8c-0.1-0.6-0.2-1-0.4-1.4s-0.5-0.6-0.9-0.8s-0.7-0.3-1.1-0.3c-0.4,0-0.8,0.1-1.2,0.3
		c-0.4,0.2-0.7,0.5-0.9,0.8c-0.2,0.4-0.4,0.8-0.4,1.3H707.2z"/>
	<path class="st4" d="M724.2,1040.9h1.9l1.2,4.1l-2.8,1.1c-0.5-0.8-1.2-1.5-2-2c-0.8-0.5-1.6-0.7-2.4-0.7c-0.5,0-0.9,0.1-1.2,0.3
		s-0.4,0.4-0.4,0.6c0,0.2,0.1,0.4,0.3,0.6c0.2,0.2,0.6,0.4,1.1,0.6l4,1.4c0.7,0.3,1.4,0.6,2.1,1s1.1,0.8,1.5,1.4
		c0.3,0.6,0.5,1.2,0.5,1.9c0,1.3-0.5,2.4-1.5,3.3c-1.2,1-2.7,1.5-4.5,1.5c-1.5,0-2.9-0.4-4-1.2l-0.4,0.8h-1.9l-1.8-4.8l2.8-1.2
		c0.7,1.1,1.5,1.9,2.6,2.6s1.9,0.9,2.8,0.9c0.5,0,1-0.1,1.3-0.4c0.3-0.2,0.4-0.4,0.4-0.7c0-0.2-0.1-0.4-0.3-0.6s-0.7-0.4-1.4-0.7
		l-3.2-1.1c-1.7-0.6-2.9-1.3-3.6-2c-0.6-0.7-0.9-1.5-0.9-2.5c0-1.2,0.5-2.3,1.5-3.1c1.1-1,2.5-1.4,4.2-1.4c1.5,0,2.7,0.3,3.8,1
		L724.2,1040.9z"/>
	<path class="st4" d="M739.8,1040.9h1.9l1.2,4.1l-2.8,1.1c-0.5-0.8-1.2-1.5-2-2c-0.8-0.5-1.6-0.7-2.4-0.7c-0.5,0-0.9,0.1-1.2,0.3
		s-0.4,0.4-0.4,0.6c0,0.2,0.1,0.4,0.3,0.6c0.2,0.2,0.6,0.4,1.1,0.6l4,1.4c0.7,0.3,1.4,0.6,2.1,1s1.1,0.8,1.5,1.4
		c0.3,0.6,0.5,1.2,0.5,1.9c0,1.3-0.5,2.4-1.5,3.3c-1.2,1-2.7,1.5-4.5,1.5c-1.5,0-2.9-0.4-4-1.2l-0.4,0.8h-1.9l-1.8-4.8l2.8-1.2
		c0.7,1.1,1.5,1.9,2.6,2.6s1.9,0.9,2.8,0.9c0.5,0,1-0.1,1.3-0.4c0.3-0.2,0.4-0.4,0.4-0.7c0-0.2-0.1-0.4-0.3-0.6s-0.7-0.4-1.4-0.7
		l-3.2-1.1c-1.7-0.6-2.9-1.3-3.6-2c-0.6-0.7-0.9-1.5-0.9-2.5c0-1.2,0.5-2.3,1.5-3.1c1.1-1,2.5-1.4,4.2-1.4c1.5,0,2.7,0.3,3.8,1
		L739.8,1040.9z"/>
	<path class="st4" d="M748.2,1061l-1.7-1.8c1.3-1.2,2.1-2,2.4-2.4c0.3-0.5,0.6-1,0.8-1.7c-0.2,0.1-0.4,0.2-0.6,0.3s-0.4,0.1-0.6,0.1
		c-0.6,0-1-0.2-1.5-0.7s-0.6-1-0.6-1.7c0-0.8,0.3-1.4,0.8-2c0.5-0.5,1.2-0.8,2-0.8c0.6,0,1.1,0.2,1.7,0.5s1,0.8,1.2,1.3
		s0.4,1.2,0.4,2c0,1.2-0.4,2.4-1.2,3.6S749.6,1060,748.2,1061z"/>
	<path class="st4" d="M201.8,1076.9h9.1v2.8h-0.6c-0.5,0-0.9,0-1,0.1c-0.1,0.1-0.2,0.2-0.2,0.3c0,0.1,0.1,0.4,0.3,0.9l2.2,5.3
		l2.3-5.3c0.2-0.4,0.3-0.7,0.3-0.9c0-0.2-0.1-0.3-0.2-0.4s-0.5-0.1-1-0.1h-0.8v-2.8h7.9v2.8c-0.7,0-1.1,0-1.2,0.1
		c-0.2,0-0.3,0.1-0.4,0.2s-0.3,0.4-0.5,0.9l-6.6,13.6c-0.7,1.4-1.5,2.4-2.3,3c-0.8,0.6-1.8,0.8-3,0.8c-1.1,0-2-0.3-2.7-0.9
		s-1-1.3-1-2c0-0.6,0.2-1.1,0.6-1.5s0.9-0.6,1.5-0.6c0.4,0,0.8,0.1,1.1,0.3c0.2,0.1,0.5,0.3,0.7,0.6c0.2,0.2,0.3,0.3,0.4,0.4
		s0.2,0.1,0.3,0.1c0.2,0,0.4-0.1,0.6-0.3c0.3-0.3,0.6-0.9,1-1.7l0.6-1.2l-5-10.4c-0.2-0.5-0.4-0.9-0.6-1s-0.3-0.2-0.4-0.3
		s-0.6-0.1-1.2-0.1V1076.9z"/>
	<path class="st4" d="M229.5,1076.5c1.7,0,3.1,0.3,4.4,1s2.2,1.5,2.9,2.7s1,2.4,1,4c0,2.3-0.7,4.1-2.2,5.6s-3.5,2.1-5.9,2.1
		c-2.5,0-4.5-0.7-6-2.2c-1.4-1.4-2.2-3.2-2.2-5.6c0-1.5,0.3-2.9,1-4s1.6-2,2.9-2.7S227.9,1076.5,229.5,1076.5z M229.5,1079.7
		c-0.6,0-1.1,0.2-1.6,0.5s-0.9,0.8-1.1,1.5s-0.4,1.5-0.4,2.5c0,1,0.1,1.9,0.4,2.5s0.6,1.2,1.1,1.5s1,0.5,1.5,0.5
		c0.9,0,1.6-0.4,2.2-1.1s0.9-1.9,0.9-3.4c0-1.5-0.3-2.6-0.9-3.3S230.4,1079.7,229.5,1079.7z"/>
	<path class="st4" d="M239.6,1076.9l6.8-0.1v9.5c0,0.7,0,1.1,0.1,1.3s0.2,0.4,0.5,0.5s0.5,0.2,0.8,0.2c0.5,0,1-0.1,1.6-0.4
		c0.2-0.1,0.8-0.4,1.7-1v-5.7c0-0.5,0-0.8-0.1-1c-0.1-0.2-0.2-0.3-0.3-0.4c-0.1-0.1-0.4-0.1-0.9-0.1h-0.9v-2.8l6.9-0.1v10.5
		c0,0.5,0,0.9,0.1,1s0.2,0.2,0.3,0.3s0.5,0.1,1,0.1h0.8v2.8l-6.4,0.2v-1.7c-0.9,0.6-1.7,1.1-2.6,1.4c-0.9,0.3-1.7,0.5-2.6,0.5
		c-0.7,0-1.3-0.1-1.9-0.3s-1.1-0.5-1.5-0.9c-0.4-0.4-0.7-0.8-0.9-1.4s-0.3-1.2-0.3-2v-6c0-0.6,0-0.9-0.1-1.1s-0.2-0.3-0.3-0.3
		c-0.1-0.1-0.5-0.1-0.9-0.1h-0.8V1076.9z"/>
	<path class="st4" d="M276.9,1070v13.2l2.8-2.4c0.3-0.3,0.5-0.4,0.5-0.5s0.1-0.1,0.1-0.2c0-0.1-0.1-0.2-0.2-0.3s-0.4-0.1-0.8-0.1
		h-0.6v-2.8h9v2.8c-0.6,0-1.1,0-1.3,0.1c-0.3,0.1-0.8,0.4-1.5,1l-2.8,2.1l4,4.7c0.4,0.5,0.7,0.8,1,0.9s0.8,0.2,1.5,0.2v2.8h-9.1
		v-2.8h0.5c0.4,0,0.6,0,0.7-0.1s0.2-0.2,0.2-0.3c0-0.1-0.2-0.4-0.5-0.8l-1.7-2.2l-1.8,1.4v0.8c0,0.4,0,0.6,0.1,0.8s0.2,0.2,0.3,0.3
		s0.4,0.1,0.7,0.1h0.5v2.8h-8.4v-2.8c0.3,0,0.5,0,0.7,0c0.5,0,0.9,0,1.1-0.1s0.3-0.2,0.3-0.4c0-0.1,0.1-0.6,0.1-1.3V1074h-2.1v-2.9
		c1.7-0.1,3.5-0.5,5.4-1.2H276.9z"/>
	<path class="st4" d="M296.2,1076.5v1.9c1.1-0.8,2-1.3,2.8-1.5s1.6-0.4,2.4-0.4c0.9,0,1.8,0.2,2.5,0.6s1.3,0.9,1.6,1.5
		s0.5,1.5,0.5,2.6v6.1c0,0.5,0,0.8,0.1,1s0.2,0.3,0.3,0.3c0.1,0,0.5,0.1,1.1,0.1h0.7v2.8h-8.6v-2.8c0.7,0,1,0,1.1,0
		c0.2-0.1,0.4-0.2,0.5-0.3s0.1-0.5,0.1-1v-5.4c0-0.7-0.1-1.1-0.2-1.3c-0.2-0.3-0.6-0.5-1.1-0.5c-0.4,0-0.9,0.1-1.3,0.3
		s-1.1,0.6-1.9,1.1v5.8c0,0.6,0.1,1,0.2,1.2c0.1,0.1,0.5,0.2,1,0.2h0.5v2.8H290v-2.8h0.4c0.7,0,1.1,0,1.3-0.1s0.3-0.2,0.4-0.3
		s0.1-0.4,0.1-0.9v-6.8H290v-2.8c1.8-0.2,3.4-0.6,4.9-1.2H296.2z"/>
	<path class="st4" d="M318.3,1076.5c1.7,0,3.1,0.3,4.4,1s2.2,1.5,2.9,2.7s1,2.4,1,4c0,2.3-0.7,4.1-2.2,5.6s-3.5,2.1-5.9,2.1
		c-2.5,0-4.5-0.7-6-2.2c-1.4-1.4-2.2-3.2-2.2-5.6c0-1.5,0.3-2.9,1-4s1.6-2,2.9-2.7S316.7,1076.5,318.3,1076.5z M318.3,1079.7
		c-0.6,0-1.1,0.2-1.6,0.5s-0.9,0.8-1.1,1.5s-0.4,1.5-0.4,2.5c0,1,0.1,1.9,0.4,2.5s0.6,1.2,1.1,1.5s1,0.5,1.5,0.5
		c0.9,0,1.6-0.4,2.2-1.1s0.9-1.9,0.9-3.4c0-1.5-0.3-2.6-0.9-3.3S319.2,1079.7,318.3,1079.7z"/>
	<path class="st4" d="M327.9,1076.9h7.7v2.8h-0.3c-0.4,0-0.6,0-0.7,0.1c-0.1,0.1-0.2,0.2-0.2,0.4c0,0.1,0,0.4,0.1,0.6l2,6.3l1.8-4.9
		l-0.5-1.4c-0.1-0.4-0.3-0.7-0.5-0.9s-0.5-0.3-0.9-0.3v-2.8h7.4v2.8h-0.6c-0.3,0-0.6,0-0.7,0.1c-0.1,0.1-0.2,0.2-0.2,0.4
		c0,0.2,0.1,0.4,0.2,0.8l1.8,5.3l1.8-5.3c0.1-0.3,0.2-0.6,0.2-0.8c0-0.2-0.1-0.3-0.2-0.4s-0.4-0.1-0.9-0.1h-0.3v-2.8h6.6v2.8
		c-0.5,0-0.8,0-0.9,0.1c-0.1,0.1-0.3,0.2-0.4,0.3c-0.1,0.2-0.3,0.5-0.5,1l-3.9,10.5h-3.9l-2.2-5.9l-2.2,5.9h-3.9l-3.9-10.5
		c-0.1-0.4-0.3-0.7-0.5-0.9c-0.1-0.2-0.2-0.3-0.4-0.3s-0.4-0.1-0.9-0.1V1076.9z"/>
	<path class="st4" d="M355.6,1097l-1.7-1.8c1.3-1.2,2.1-2,2.4-2.4s0.6-1,0.8-1.7c-0.2,0.1-0.4,0.2-0.6,0.3s-0.4,0.1-0.6,0.1
		c-0.6,0-1-0.2-1.5-0.7s-0.6-1-0.6-1.7c0-0.8,0.3-1.4,0.8-2s1.2-0.8,2-0.8c0.6,0,1.1,0.2,1.7,0.5s1,0.8,1.2,1.3s0.4,1.2,0.4,2
		c0,1.2-0.4,2.4-1.2,3.6S356.9,1096,355.6,1097z"/>
	<path class="st4" d="M379.7,1071.8v5h4.7v3.1h-4.7v5.1c0,1.2,0.1,1.9,0.2,2.2s0.3,0.6,0.7,0.8c0.4,0.3,0.9,0.4,1.5,0.4
		c1,0,2-0.3,3-1v3.1c-0.8,0.4-1.6,0.7-2.3,0.8s-1.4,0.2-2.2,0.2c-0.9,0-1.7-0.1-2.4-0.3s-1.3-0.6-1.8-1s-0.8-0.9-1-1.4
		s-0.3-1.2-0.3-2.1v-7h-2.2v-2.8c0.8-0.3,1.5-0.6,2-1.1s1-1,1.3-1.7s0.6-1.5,0.7-2.5H379.7z"/>
	<path class="st4" d="M393.9,1070v8.1c1-0.6,1.8-1,2.6-1.2s1.5-0.4,2.2-0.4c0.9,0,1.8,0.2,2.5,0.6s1.3,0.9,1.6,1.5s0.5,1.4,0.5,2.4
		v6.1c0,0.6,0,1,0.1,1.1c0.1,0.2,0.2,0.3,0.4,0.4c0.1,0,0.5,0.1,1,0.1h0.7v2.8h-8.6v-2.8h0.4c0.4,0,0.7,0,0.9-0.1s0.3-0.2,0.3-0.3
		s0.1-0.5,0.1-1v-5.1c0-0.7,0-1.1-0.1-1.3c-0.1-0.2-0.2-0.4-0.4-0.5c-0.2-0.1-0.5-0.2-0.8-0.2c-0.5,0-0.9,0.1-1.4,0.3
		s-1.1,0.5-1.8,1v5.8c0,0.6,0,0.9,0.1,1c0.1,0.1,0.2,0.2,0.3,0.3c0.2,0.1,0.5,0.1,0.9,0.1h0.3v2.8H387v-2.8h0.8c0.5,0,0.8,0,0.9-0.1
		s0.2-0.2,0.3-0.3s0.1-0.5,0.1-0.9V1074H387v-2.8c0.8,0,1.7-0.2,2.7-0.4s1.9-0.5,2.7-0.8H393.9z"/>
	<path class="st4" d="M420.6,1086.1l2,2c-1.2,1.3-2.3,2.3-3.5,2.9s-2.5,0.9-3.9,0.9c-2.2,0-4.1-0.8-5.6-2.3s-2.3-3.3-2.3-5.5
		c0-1.4,0.3-2.7,1-3.9s1.6-2.1,2.8-2.7s2.6-1,4.1-1c1,0,1.9,0.1,2.7,0.4s1.5,0.7,2.1,1.2s1.1,1.2,1.5,1.9s0.6,1.5,0.8,2.3
		c0.1,0.4,0.1,1,0.1,1.9h-9.9c0,1.2,0.4,2.2,1.1,3s1.6,1.1,2.6,1.1c0.7,0,1.4-0.2,2.1-0.6S419.8,1086.9,420.6,1086.1z M417.7,1081.8
		c-0.1-0.6-0.2-1-0.4-1.4c-0.2-0.3-0.5-0.6-0.9-0.8s-0.7-0.3-1.1-0.3c-0.4,0-0.8,0.1-1.2,0.3c-0.4,0.2-0.7,0.5-0.9,0.8
		s-0.4,0.8-0.4,1.3H417.7z"/>
	<path class="st4" d="M434.1,1076.9h7.8v2.8h-0.3c-0.4,0-0.6,0-0.7,0.1c-0.1,0.1-0.2,0.2-0.2,0.4c0,0.1,0,0.4,0.1,0.6l2,6.3l1.8-4.9
		l-0.5-1.4c-0.1-0.4-0.3-0.7-0.5-0.9s-0.5-0.3-0.9-0.3v-2.8h7.4v2.8h-0.6c-0.3,0-0.6,0-0.7,0.1c-0.1,0.1-0.2,0.2-0.2,0.4
		c0,0.2,0.1,0.4,0.2,0.8l1.8,5.3l1.8-5.3c0.1-0.3,0.2-0.6,0.2-0.8c0-0.2-0.1-0.3-0.2-0.4s-0.4-0.1-0.9-0.1H451v-2.8h6.6v2.8
		c-0.5,0-0.8,0-0.9,0.1c-0.1,0.1-0.3,0.2-0.4,0.3c-0.1,0.2-0.3,0.5-0.5,1l-3.9,10.5H448l-2.2-5.9l-2.2,5.9h-3.9l-3.9-10.5
		c-0.1-0.4-0.3-0.7-0.5-0.9c-0.1-0.2-0.2-0.3-0.4-0.3s-0.4-0.1-0.9-0.1V1076.9z"/>
	<path class="st4" d="M467.8,1082.6v-1.1c0-0.6-0.1-1.1-0.2-1.3s-0.3-0.4-0.6-0.6s-0.6-0.2-1.1-0.2c-0.3,0-0.6,0.1-0.9,0.2
		s-0.5,0.2-0.6,0.4s-0.3,0.5-0.5,1c-0.3,0.6-0.6,1-0.9,1.3s-0.8,0.4-1.3,0.4c-0.6,0-1.1-0.2-1.5-0.6s-0.6-0.9-0.6-1.5
		c0-0.7,0.2-1.2,0.6-1.7c0.5-0.7,1.4-1.2,2.4-1.7s2.3-0.6,3.7-0.6s2.5,0.2,3.5,0.7s1.6,1,2,1.6s0.6,1.5,0.6,2.8v5.2
		c0,0.6,0,1.1,0.1,1.2s0.2,0.3,0.4,0.5s0.5,0.2,0.7,0.2s0.6-0.1,1.1-0.2v2.9c-0.8,0.3-1.6,0.4-2.4,0.4c-0.9,0-1.7-0.1-2.3-0.4
		s-1.2-0.7-1.6-1.3c-1,0.6-1.9,1.1-2.7,1.4s-1.6,0.4-2.3,0.4c-1.4,0-2.5-0.4-3.4-1.2s-1.3-1.8-1.3-2.9c0-0.7,0.1-1.3,0.4-1.8
		s0.7-1,1.3-1.4s1.5-0.8,2.7-1.1S466,1082.7,467.8,1082.6z M467.8,1085c-1.3,0.2-2.2,0.4-2.7,0.6s-0.9,0.4-1.1,0.7s-0.3,0.6-0.3,0.9
		c0,0.4,0.1,0.7,0.4,1s0.7,0.4,1.2,0.4c0.3,0,0.7-0.1,1.1-0.2s0.9-0.4,1.4-0.7V1085z"/>
	<path class="st4" d="M475.5,1076.9h9.1v2.8H484c-0.5,0-0.9,0-1,0.1c-0.1,0.1-0.2,0.2-0.2,0.3c0,0.1,0.1,0.4,0.3,0.9l2.2,5.3
		l2.3-5.3c0.2-0.4,0.3-0.7,0.3-0.9c0-0.2-0.1-0.3-0.2-0.4s-0.5-0.1-1-0.1h-0.8v-2.8h7.9v2.8c-0.7,0-1.1,0-1.2,0.1
		c-0.2,0-0.3,0.1-0.4,0.2s-0.3,0.4-0.5,0.9l-6.6,13.6c-0.7,1.4-1.5,2.4-2.3,3c-0.8,0.6-1.8,0.8-3,0.8c-1.1,0-2-0.3-2.7-0.9
		s-1-1.3-1-2c0-0.6,0.2-1.1,0.6-1.5s0.9-0.6,1.5-0.6c0.4,0,0.8,0.1,1.1,0.3c0.2,0.1,0.5,0.3,0.7,0.6c0.2,0.2,0.3,0.3,0.4,0.4
		s0.2,0.1,0.3,0.1c0.2,0,0.4-0.1,0.6-0.3c0.3-0.3,0.6-0.9,1-1.7l0.6-1.2l-5-10.4c-0.2-0.5-0.4-0.9-0.6-1s-0.3-0.2-0.4-0.3
		s-0.6-0.1-1.2-0.1V1076.9z"/>
	<path class="st4" d="M511.8,1076.5v1.9c0.8-0.7,1.7-1.1,2.6-1.5c0.9-0.3,1.8-0.5,2.7-0.5c0.6,0,1.1,0.1,1.7,0.3
		c0.5,0.2,1,0.4,1.3,0.7c0.4,0.3,0.7,0.6,1,1.1c0.9-0.7,1.9-1.2,2.7-1.6s1.8-0.5,2.6-0.5c0.8,0,1.5,0.1,2.1,0.4s1.1,0.7,1.5,1.2
		c0.4,0.5,0.7,1,0.8,1.6c0.1,0.4,0.1,0.9,0.1,1.5v6.1c0,0.5,0,0.8,0.1,1s0.2,0.3,0.4,0.3c0.1,0.1,0.5,0.1,1.1,0.1h0.6v2.8h-8.5v-2.8
		c0.6,0,1,0,1.2-0.1c0.2-0.1,0.3-0.2,0.4-0.3c0.1-0.1,0.1-0.5,0.1-0.9v-5.3c0-0.6,0-1-0.1-1.2c-0.1-0.2-0.2-0.4-0.5-0.5
		c-0.2-0.1-0.5-0.2-0.9-0.2c-0.4,0-0.8,0.1-1.2,0.3c-0.4,0.2-1.1,0.5-2,1.1v5.7c0,0.6,0,0.9,0.1,1.1c0.1,0.1,0.2,0.3,0.4,0.3
		c0.1,0,0.5,0.1,1.1,0.1v2.8h-8v-2.8c0.7,0,1.1,0,1.2-0.1s0.3-0.2,0.3-0.3s0.1-0.5,0.1-1.1v-5c0-0.8-0.1-1.3-0.2-1.5
		c-0.2-0.4-0.6-0.6-1.1-0.6c-0.3,0-0.6,0-0.9,0.1c-0.3,0.1-0.6,0.2-0.9,0.3c-0.2,0.1-0.6,0.3-1.2,0.8l-0.3,0.2v5.7
		c0,0.5,0,0.9,0.1,1s0.2,0.2,0.3,0.3c0.2,0.1,0.5,0.1,0.9,0.1h0.4v2.8h-8.6v-2.8h0.6c0.6,0,1,0,1.1-0.1s0.3-0.2,0.3-0.3
		c0.1-0.2,0.1-0.5,0.1-1.1v-6.6h-2.2v-2.8c1.8-0.2,3.4-0.6,5-1.2H511.8z"/>
	<path class="st4" d="M548.4,1086.1l2,2c-1.2,1.3-2.3,2.3-3.5,2.9s-2.5,0.9-3.9,0.9c-2.2,0-4.1-0.8-5.6-2.3s-2.3-3.3-2.3-5.5
		c0-1.4,0.3-2.7,1-3.9s1.6-2.1,2.8-2.7s2.6-1,4.1-1c1,0,1.9,0.1,2.7,0.4s1.5,0.7,2.1,1.2s1.1,1.2,1.5,1.9s0.6,1.5,0.8,2.3
		c0.1,0.4,0.1,1,0.1,1.9h-9.9c0,1.2,0.4,2.2,1.1,3s1.6,1.1,2.6,1.1c0.7,0,1.4-0.2,2.1-0.6S547.6,1086.9,548.4,1086.1z M545.5,1081.8
		c-0.1-0.6-0.2-1-0.4-1.4c-0.2-0.3-0.5-0.6-0.9-0.8s-0.7-0.3-1.1-0.3c-0.4,0-0.8,0.1-1.2,0.3c-0.4,0.2-0.7,0.5-0.9,0.8
		s-0.4,0.8-0.4,1.3H545.5z"/>
	<path class="st4" d="M559,1076.5v1.9c1.1-0.8,2-1.3,2.8-1.5s1.6-0.4,2.4-0.4c0.9,0,1.8,0.2,2.5,0.6s1.3,0.9,1.6,1.5
		s0.5,1.5,0.5,2.6v6.1c0,0.5,0,0.8,0.1,1s0.2,0.3,0.3,0.3c0.1,0,0.5,0.1,1.1,0.1h0.7v2.8h-8.6v-2.8c0.7,0,1,0,1.1,0
		c0.2-0.1,0.4-0.2,0.5-0.3s0.1-0.5,0.1-1v-5.4c0-0.7-0.1-1.1-0.2-1.3c-0.2-0.3-0.6-0.5-1.1-0.5c-0.4,0-0.9,0.1-1.3,0.3
		s-1.1,0.6-1.9,1.1v5.8c0,0.6,0.1,1,0.2,1.2c0.1,0.1,0.5,0.2,1,0.2h0.5v2.8h-8.5v-2.8h0.4c0.7,0,1.1,0,1.3-0.1s0.3-0.2,0.4-0.3
		s0.1-0.4,0.1-0.9v-6.8h-2.2v-2.8c1.8-0.2,3.4-0.6,4.9-1.2H559z"/>
	<path class="st4" d="M592,1082.6v-1.1c0-0.6-0.1-1.1-0.2-1.3s-0.3-0.4-0.6-0.6s-0.6-0.2-1.1-0.2c-0.3,0-0.6,0.1-0.9,0.2
		s-0.5,0.2-0.6,0.4s-0.3,0.5-0.5,1c-0.3,0.6-0.6,1-0.9,1.3s-0.8,0.4-1.3,0.4c-0.6,0-1.1-0.2-1.5-0.6s-0.6-0.9-0.6-1.5
		c0-0.7,0.2-1.2,0.6-1.7c0.5-0.7,1.4-1.2,2.4-1.7s2.3-0.6,3.7-0.6s2.5,0.2,3.5,0.7s1.6,1,2,1.6s0.6,1.5,0.6,2.8v5.2
		c0,0.6,0,1.1,0.1,1.2s0.2,0.3,0.4,0.5s0.5,0.2,0.7,0.2s0.6-0.1,1.1-0.2v2.9c-0.8,0.3-1.6,0.4-2.4,0.4c-0.9,0-1.7-0.1-2.3-0.4
		s-1.2-0.7-1.6-1.3c-1,0.6-1.9,1.1-2.7,1.4s-1.6,0.4-2.3,0.4c-1.4,0-2.5-0.4-3.4-1.2s-1.3-1.8-1.3-2.9c0-0.7,0.1-1.3,0.4-1.8
		s0.7-1,1.3-1.4s1.5-0.8,2.7-1.1S590.2,1082.7,592,1082.6z M592,1085c-1.3,0.2-2.2,0.4-2.7,0.6s-0.9,0.4-1.1,0.7s-0.3,0.6-0.3,0.9
		c0,0.4,0.1,0.7,0.4,1s0.7,0.4,1.2,0.4c0.3,0,0.7-0.1,1.1-0.2s0.9-0.4,1.4-0.7V1085z"/>
	<path class="st4" d="M607,1076.5v2.1c0.8-0.8,1.5-1.4,2-1.7c0.6-0.3,1.1-0.4,1.7-0.4c0.5,0,0.9,0.1,1.3,0.3s0.7,0.5,0.9,0.9
		c0.2,0.4,0.3,0.8,0.3,1.3c0,0.6-0.2,1.2-0.6,1.7s-1,0.7-1.7,0.7c-0.2,0-0.4,0-0.5,0c-0.2,0-0.5-0.1-1-0.3c-0.3-0.1-0.5-0.1-0.6-0.1
		c-0.3,0-0.7,0.2-1.3,0.5v5.7c0,0.5,0,0.8,0.1,1c0.1,0.1,0.2,0.3,0.4,0.3s0.5,0.1,1.1,0.1h0.6v2.8h-9v-2.8h0.8c0.5,0,0.9,0,1-0.1
		s0.2-0.2,0.3-0.3s0.1-0.5,0.1-1v-6.7h-2.2v-2.8c1.6-0.1,3.2-0.5,5-1.2H607z"/>
	<path class="st4" d="M627.6,1086.1l2,2c-1.2,1.3-2.3,2.3-3.5,2.9c-1.2,0.6-2.5,0.9-3.9,0.9c-2.2,0-4.1-0.8-5.6-2.3
		s-2.3-3.3-2.3-5.5c0-1.4,0.3-2.7,1-3.9s1.6-2.1,2.8-2.7s2.6-1,4.1-1c1,0,1.9,0.1,2.7,0.4s1.5,0.7,2.1,1.2c0.6,0.5,1.1,1.2,1.5,1.9
		c0.4,0.7,0.6,1.5,0.8,2.3c0.1,0.4,0.1,1,0.1,1.9h-9.9c0,1.2,0.4,2.2,1.1,3c0.7,0.8,1.6,1.1,2.6,1.1c0.7,0,1.4-0.2,2.1-0.6
		S626.8,1086.9,627.6,1086.1z M624.7,1081.8c-0.1-0.6-0.2-1-0.4-1.4s-0.5-0.6-0.9-0.8s-0.7-0.3-1.1-0.3c-0.4,0-0.8,0.1-1.2,0.3
		c-0.4,0.2-0.7,0.5-0.9,0.8c-0.2,0.4-0.4,0.8-0.4,1.3H624.7z"/>
	<path class="st4" d="M635.7,1086.3c0.8,0,1.4,0.3,1.9,0.8c0.5,0.5,0.8,1.2,0.8,1.9s-0.3,1.4-0.8,1.9c-0.5,0.5-1.2,0.8-1.9,0.8
		c-0.8,0-1.4-0.3-1.9-0.8c-0.5-0.5-0.8-1.2-0.8-1.9s0.3-1.4,0.8-1.9C634.3,1086.5,635,1086.3,635.7,1086.3z"/>
</g>
<g>
	<path class="st4" d="M231.3,1131.5h1.1l1.6,6.3l-1.4,0.4c-0.9-1.8-2-3.2-3.4-4.2c-1.2-0.8-2.5-1.3-3.9-1.3c-0.9,0-1.6,0.2-2.3,0.5
		c-0.7,0.3-1.2,0.7-1.5,1.2c-0.3,0.5-0.5,1-0.5,1.5c0,0.5,0.1,0.9,0.4,1.3s0.7,0.8,1.2,1.1c0.5,0.3,1.4,0.7,2.6,1l3.8,1.1
		c0.5,0.1,1.1,0.4,2,0.8c0.9,0.4,1.6,0.8,2.1,1.2c0.5,0.4,0.9,1,1.2,1.6c0.3,0.6,0.4,1.3,0.4,2c0,1.6-0.7,3-2.1,4.3
		c-1.4,1.2-3.3,1.8-5.5,1.8c-1.2,0-2.2-0.2-3.1-0.5s-1.9-0.9-3-1.8l-0.7,1.9h-1l-1.4-7.3l1.4-0.3c0.5,1.4,1.2,2.5,2,3.5
		c0.8,0.9,1.7,1.7,2.7,2.1c1,0.5,2,0.7,3.1,0.7c1.4,0,2.6-0.4,3.7-1.3c0.9-0.7,1.3-1.6,1.3-2.5c0-0.9-0.3-1.6-1-2.2
		c-0.6-0.6-1.8-1.1-3.5-1.6l-3.7-1.1c-2.1-0.6-3.5-1.4-4.3-2.3s-1.3-2-1.3-3.2c0-0.9,0.3-1.8,0.8-2.6s1.4-1.5,2.5-2s2.4-0.8,3.7-0.8
		c1.1,0,2.2,0.2,3.3,0.6c0.7,0.3,1.4,0.7,2,1.2L231.3,1131.5z"/>
	<path class="st4" d="M236.8,1132.9v-1.2c1.2-0.1,2.5-0.5,3.9-1.2h1.1v14.6l5.4-4.3c0.9-0.7,1.3-1.1,1.3-1.4c0-0.1-0.1-0.2-0.3-0.3
		c-0.1,0-0.4-0.1-0.9-0.1h-0.8v-1.2h7.4v1.2c-0.8,0-1.5,0.1-2,0.3s-1.1,0.5-1.7,1l-4.2,3.3l5,5.5c0.5,0.5,0.9,0.9,1.2,1.1
		c0.3,0.2,0.6,0.4,0.9,0.4c0.3,0.1,0.8,0.1,1.4,0.1v1.2h-7.8v-1.2h0.6c0.6,0,1,0,1.1-0.1s0.2-0.2,0.2-0.4s-0.1-0.4-0.4-0.7
		c0,0-0.1-0.1-0.2-0.2l-3.9-4.5l-2.4,1.8v1.9c0,0.7,0.1,1.2,0.2,1.4s0.3,0.4,0.5,0.5c0.2,0.1,0.7,0.2,1.3,0.2h0.5v1.2h-7.5v-1.2
		c0.8,0,1.4,0,1.6-0.1c0.3-0.1,0.6-0.3,0.7-0.6c0.2-0.3,0.2-0.8,0.2-1.6v-15.6H236.8z"/>
	<path class="st4" d="M255.5,1139.9v-1.2c0.8-0.1,1.5-0.2,2-0.4c0.6-0.2,1.2-0.4,1.9-0.8h1.1v11.7c0,0.4,0.1,0.7,0.2,0.9
		s0.3,0.4,0.5,0.4c0.2,0.1,0.6,0.1,1.1,0.1h0.7v1.2h-7.5v-1.2h0.6c0.7,0,1.1-0.1,1.3-0.2s0.4-0.3,0.5-0.5c0.1-0.2,0.1-0.7,0.1-1.5
		v-8.6H255.5z M259.2,1130.9c0.5,0,0.9,0.2,1.2,0.5s0.5,0.7,0.5,1.2s-0.2,0.9-0.5,1.2s-0.7,0.5-1.2,0.5s-0.9-0.2-1.2-0.5
		s-0.5-0.7-0.5-1.2s0.2-0.9,0.5-1.2S258.8,1130.9,259.2,1130.9z"/>
	<path class="st4" d="M264.6,1139.9v-1.2c0.7-0.1,1.3-0.2,1.9-0.4c0.6-0.2,1.2-0.5,1.9-0.9h1.1v2.8c0.7-0.8,1.5-1.5,2.4-2
		s1.7-0.7,2.5-0.7c0.7,0,1.3,0.2,1.7,0.5s0.6,0.8,0.6,1.2c0,0.4-0.1,0.7-0.4,0.9c-0.3,0.3-0.6,0.4-1,0.4c-0.2,0-0.3,0-0.5-0.1
		s-0.3-0.2-0.6-0.3c-0.5-0.4-1-0.5-1.3-0.5c-0.5,0-1,0.2-1.6,0.6c-0.7,0.5-1.3,1-1.7,1.6v6.8c0,0.6,0,1,0.1,1.2
		c0.1,0.2,0.2,0.4,0.3,0.5s0.3,0.3,0.5,0.3s0.6,0.1,1.1,0.1h0.5v1.2h-7.6v-1.2h0.6c0.6,0,1-0.1,1.2-0.2c0.3-0.1,0.4-0.3,0.6-0.6
		c0.1-0.3,0.2-0.7,0.2-1.4v-8.6H264.6z"/>
	<path class="st4" d="M277.6,1132.9v-1.2c0.6,0,1.3-0.2,1.9-0.4s1.3-0.5,2-0.9h1.1v8.9c0.9-0.6,1.7-1.1,2.7-1.5s1.8-0.5,2.8-0.5
		c1.1,0,2.1,0.3,3,0.9s1.7,1.4,2.2,2.5c0.5,1.1,0.8,2.3,0.8,3.8c0,2.3-0.7,4.2-2,5.6c-1.2,1.4-2.8,2.1-4.7,2.1
		c-1.1,0-2.2-0.2-3.1-0.7c-0.7-0.4-1.3-0.9-1.9-1.6l-0.8,2h-1.4v-19H277.6z M282.5,1140.9v5.6c0,0.9,0.1,1.5,0.2,1.9
		s0.4,0.7,0.8,1.1c0.4,0.4,0.9,0.7,1.4,0.9c0.5,0.2,1.1,0.3,1.6,0.3c0.9,0,1.7-0.2,2.4-0.7s1.3-1.1,1.7-2s0.6-2,0.6-3.2
		c0-1.8-0.4-3.2-1.3-4.2c-0.7-0.9-1.7-1.3-2.9-1.3c-0.6,0-1.3,0.1-2,0.4S283.5,1140.2,282.5,1140.9z"/>
	<path class="st4" d="M307,1143.5l0-1.6c0-1.1-0.3-1.9-0.9-2.3s-1.5-0.7-2.6-0.7c-0.5,0-1,0.1-1.4,0.2s-0.7,0.3-1,0.5
		c-0.2,0.2-0.4,0.5-0.6,0.8c0,0.1-0.2,0.5-0.4,1.2c-0.2,0.9-0.7,1.3-1.4,1.3c-0.4,0-0.7-0.1-0.9-0.4c-0.2-0.3-0.4-0.6-0.4-1
		c0-0.6,0.2-1.3,0.7-1.9s1.2-1.1,2.2-1.5c1-0.4,2.1-0.6,3.5-0.6c1.2,0,2.3,0.2,3.2,0.6c0.9,0.4,1.5,0.9,2,1.7
		c0.3,0.5,0.4,1.4,0.4,2.7v5.6c0,0.8,0,1.3,0.1,1.6c0.1,0.4,0.3,0.7,0.6,0.9c0.3,0.2,0.6,0.3,1,0.3c0.4,0,1-0.1,1.6-0.3v1.3
		c-0.8,0.2-1.5,0.4-2.2,0.4c-0.7,0-1.3-0.1-1.8-0.3c-0.5-0.2-0.9-0.5-1.2-0.9s-0.5-0.8-0.6-1.3c-1.2,0.9-2.2,1.6-3.2,1.9
		s-1.9,0.6-2.9,0.6c-1.3,0-2.4-0.4-3.3-1.1s-1.3-1.6-1.3-2.6c0-0.6,0.2-1.2,0.5-1.7s0.8-1,1.4-1.4s1.6-0.8,3-1.1
		C302.7,1144,304.6,1143.7,307,1143.5z M307,1144.8c-2.3,0.3-3.7,0.6-4.2,0.7c-1.1,0.2-1.8,0.5-2.3,0.8s-0.8,0.6-1,0.9
		s-0.3,0.7-0.3,1.1s0.1,0.7,0.3,1.1c0.2,0.4,0.5,0.6,0.9,0.8c0.4,0.2,0.8,0.3,1.3,0.3c0.6,0,1.4-0.2,2.2-0.5s1.8-0.9,3.1-1.8
		L307,1144.8z"/>
	<path class="st4" d="M313.7,1132.9v-1.2c1.3-0.1,2.6-0.5,3.9-1.2h1.1v18c0,0.8,0,1.2,0.1,1.4c0.1,0.3,0.3,0.5,0.6,0.6
		s0.7,0.2,1.4,0.2h0.5v1.2h-7.5v-1.2h0.8c0.5,0,0.8-0.1,1.1-0.2c0.2-0.1,0.4-0.3,0.5-0.6c0.1-0.3,0.2-0.8,0.2-1.5v-15.5H313.7z"/>
	<path class="st4" d="M322.7,1132.9v-1.2c1.3-0.1,2.6-0.5,3.9-1.2h1.1v18c0,0.8,0,1.2,0.1,1.4c0.1,0.3,0.3,0.5,0.6,0.6
		s0.7,0.2,1.4,0.2h0.5v1.2h-7.5v-1.2h0.8c0.5,0,0.8-0.1,1.1-0.2c0.2-0.1,0.4-0.3,0.5-0.6c0.1-0.3,0.2-0.8,0.2-1.5v-15.5H322.7z"/>
	<path class="st4" d="M341.7,1131.5h8.1c2.5,0,4.1,0.2,5.1,0.5c1.2,0.4,2.1,1,2.9,1.9c0.8,0.9,1.1,2,1.1,3.4c0,1.2-0.3,2.2-0.9,3.1
		c-0.7,1-1.5,1.8-2.5,2.2c-1,0.4-2.6,0.7-4.7,0.7H347v5.2c0,0.8,0,1.3,0.1,1.5c0.1,0.3,0.3,0.5,0.5,0.6s0.6,0.2,1.2,0.2h0.7v1.2
		h-7.9v-1.2h0.5c0.7,0,1.1-0.1,1.4-0.2s0.4-0.3,0.5-0.5c0.1-0.2,0.2-0.7,0.2-1.4v-14c0-0.6-0.1-1.1-0.2-1.3
		c-0.1-0.2-0.3-0.4-0.5-0.5c-0.2-0.1-0.7-0.2-1.4-0.2h-0.5V1131.5z M347,1133.1v8.6h3.2c1.6,0,2.7-0.1,3.4-0.4
		c0.6-0.3,1.2-0.8,1.6-1.5s0.6-1.5,0.6-2.5c0-1-0.2-1.9-0.7-2.6c-0.5-0.7-1.2-1.2-2-1.4c-0.6-0.2-1.7-0.2-3.4-0.2H347z"/>
	<path class="st4" d="M360,1139.9v-1.2c0.7-0.1,1.3-0.2,1.9-0.4c0.6-0.2,1.2-0.5,1.9-0.9h1.1v2.8c0.7-0.8,1.5-1.5,2.4-2
		s1.7-0.7,2.5-0.7c0.7,0,1.3,0.2,1.7,0.5s0.6,0.8,0.6,1.2c0,0.4-0.1,0.7-0.4,0.9c-0.3,0.3-0.6,0.4-1,0.4c-0.2,0-0.3,0-0.5-0.1
		s-0.3-0.2-0.6-0.3c-0.5-0.4-1-0.5-1.3-0.5c-0.5,0-1,0.2-1.6,0.6c-0.7,0.5-1.3,1-1.7,1.6v6.8c0,0.6,0,1,0.1,1.2
		c0.1,0.2,0.2,0.4,0.3,0.5s0.3,0.3,0.5,0.3s0.6,0.1,1.1,0.1h0.5v1.2H360v-1.2h0.6c0.6,0,1-0.1,1.2-0.2c0.3-0.1,0.4-0.3,0.6-0.6
		c0.1-0.3,0.2-0.7,0.2-1.4v-8.6H360z"/>
	<path class="st4" d="M380.6,1137.5c1.4,0,2.7,0.3,3.7,0.9c1,0.6,1.9,1.5,2.5,2.6s0.9,2.4,0.9,3.9s-0.3,2.8-0.9,3.9
		c-0.6,1.1-1.5,2-2.5,2.6c-1.1,0.6-2.3,0.9-3.8,0.9c-2.4,0-4.1-0.7-5.3-2.2c-1.2-1.5-1.8-3.2-1.8-5.2c0-1.5,0.3-2.7,0.9-3.9
		s1.5-2,2.6-2.6C377.9,1137.8,379.2,1137.5,380.6,1137.5z M380.5,1138.9c-1.1,0-2.1,0.4-2.8,1.3c-1,1.1-1.5,2.7-1.5,4.8
		c0,2,0.4,3.5,1.2,4.6c0.8,0.9,1.8,1.4,3.1,1.4c0.8,0,1.6-0.2,2.2-0.7c0.6-0.4,1.2-1.1,1.6-2.1s0.6-2.1,0.6-3.4
		c0-1.3-0.2-2.4-0.6-3.4c-0.3-0.8-0.8-1.4-1.5-1.9C382.1,1139.1,381.3,1138.9,380.5,1138.9z"/>
	<path class="st4" d="M399.1,1132.9v-1.2c0.7-0.1,1.3-0.2,1.8-0.3c0.6-0.2,1.2-0.5,2.1-0.9h1.1v17.8c0,0.8,0,1.3,0.1,1.5
		c0.1,0.4,0.3,0.6,0.5,0.8s0.7,0.2,1.4,0.2h0.6v1.2l-5.1,0.2v-2.3c-1,0.9-1.9,1.5-2.7,1.9c-0.9,0.4-1.7,0.6-2.6,0.6
		c-1.8,0-3.2-0.7-4.4-2.1c-1.2-1.4-1.8-3.1-1.8-5.1c0-1.4,0.3-2.7,0.9-3.9c0.6-1.2,1.4-2.1,2.5-2.7s2.1-0.9,3.3-0.9
		c0.9,0,1.8,0.2,2.6,0.5s1.5,0.8,2.2,1.5v-6.5H399.1z M401.6,1148.4v-5.5c0-0.8-0.1-1.4-0.4-1.9c-0.3-0.5-0.8-0.9-1.5-1.3
		c-0.7-0.4-1.4-0.6-2.1-0.6c-0.8,0-1.6,0.2-2.4,0.7c-0.7,0.5-1.3,1.1-1.7,2c-0.4,0.9-0.6,1.9-0.6,3.2c0,1.2,0.2,2.2,0.6,3
		c0.4,0.9,0.9,1.5,1.5,1.9s1.3,0.7,1.9,0.7c0.7,0,1.4-0.2,2.2-0.6S400.8,1149.1,401.6,1148.4z"/>
	<path class="st4" d="M407.8,1137.8l5.6-0.2v9.4c0,0.8,0.1,1.5,0.3,2c0.2,0.5,0.6,0.9,1.1,1.1c0.5,0.3,1,0.4,1.7,0.4
		c0.8,0,1.7-0.2,2.7-0.6c1-0.4,2-1,3-1.9v-6.8c0-0.7-0.1-1.2-0.2-1.4s-0.3-0.4-0.6-0.5s-0.7-0.2-1.3-0.2H419v-1.2l5.6-0.2v10.9
		c0,0.7,0.1,1.2,0.2,1.5s0.3,0.5,0.5,0.6c0.2,0.1,0.7,0.2,1.4,0.2h0.5v1.2l-4.9,0.2v-2.7c-1.3,1.1-2.5,1.8-3.5,2.2s-2,0.6-3,0.6
		c-0.8,0-1.4-0.1-2-0.3c-0.6-0.2-1.1-0.5-1.5-0.9c-0.4-0.4-0.8-0.9-1-1.5s-0.3-1.2-0.3-1.8v-6.7c0-0.6-0.1-1-0.2-1.3
		s-0.3-0.4-0.5-0.6c-0.2-0.1-0.6-0.2-1-0.2h-1.3V1137.8z"/>
	<path class="st4" d="M442,1147.9l0.9,0.8c-1.8,2.5-4,3.7-6.6,3.7c-2,0-3.7-0.7-5.1-2.1s-2.1-3.2-2.1-5.3c0-1.4,0.3-2.7,1-3.8
		c0.6-1.1,1.5-2,2.7-2.6c1.1-0.6,2.4-0.9,3.9-0.9c1.7,0,3.1,0.4,4.2,1.2s1.7,1.7,1.7,2.5c0,0.4-0.1,0.8-0.4,1s-0.6,0.4-0.9,0.4
		c-0.2,0-0.3,0-0.5-0.1s-0.3-0.2-0.5-0.4c-0.1-0.1-0.2-0.4-0.4-0.8c-0.3-0.6-0.5-0.9-0.6-1.1c-0.3-0.4-0.7-0.7-1.1-0.9
		c-0.4-0.2-0.9-0.3-1.5-0.3c-0.8,0-1.6,0.2-2.3,0.7c-0.7,0.5-1.3,1.1-1.7,2c-0.4,0.9-0.6,2-0.6,3.2c0,1.9,0.5,3.5,1.5,4.6
		c0.9,1,1.9,1.5,3.2,1.5c0.6,0,1.1-0.1,1.7-0.3c0.6-0.2,1.1-0.5,1.6-0.8C440.5,1149.4,441.1,1148.8,442,1147.9z"/>
	<path class="st4" d="M448.5,1132.8h1v5h4.4v1.5h-4.4v8.8c0,0.8,0.1,1.3,0.2,1.6c0.1,0.3,0.4,0.6,0.7,0.8c0.3,0.2,0.7,0.3,1.1,0.3
		c0.9,0,2-0.4,3.1-1.2v1.4c-1.3,0.9-2.6,1.3-3.9,1.3c-0.7,0-1.4-0.2-2-0.5s-1-0.7-1.2-1.2s-0.3-1.2-0.3-2.3v-9h-2.6v-1.2
		c0.8-0.2,1.5-0.5,2-0.9s0.9-0.9,1.2-1.5S448.3,1134.1,448.5,1132.8z"/>
	<path class="st4" d="M455.9,1139.9v-1.2c0.8-0.1,1.5-0.2,2-0.4c0.6-0.2,1.2-0.4,1.9-0.8h1.1v11.7c0,0.4,0.1,0.7,0.2,0.9
		s0.3,0.4,0.5,0.4c0.2,0.1,0.6,0.1,1.1,0.1h0.7v1.2h-7.5v-1.2h0.6c0.7,0,1.1-0.1,1.3-0.2s0.4-0.3,0.5-0.5c0.1-0.2,0.1-0.7,0.1-1.5
		v-8.6H455.9z M459.6,1130.9c0.5,0,0.9,0.2,1.2,0.5s0.5,0.7,0.5,1.2s-0.2,0.9-0.5,1.2s-0.7,0.5-1.2,0.5s-0.9-0.2-1.2-0.5
		s-0.5-0.7-0.5-1.2s0.2-0.9,0.5-1.2S459.2,1130.9,459.6,1130.9z"/>
	<path class="st4" d="M472.4,1137.5c1.4,0,2.7,0.3,3.7,0.9c1.1,0.6,1.9,1.5,2.5,2.6s0.9,2.4,0.9,3.9s-0.3,2.8-0.9,3.9
		c-0.6,1.1-1.5,2-2.5,2.6c-1.1,0.6-2.3,0.9-3.8,0.9c-2.4,0-4.1-0.7-5.3-2.2c-1.2-1.5-1.8-3.2-1.8-5.2c0-1.5,0.3-2.7,0.9-3.9
		s1.5-2,2.6-2.6C469.7,1137.8,471,1137.5,472.4,1137.5z M472.3,1138.9c-1.1,0-2.1,0.4-2.8,1.3c-1,1.1-1.5,2.7-1.5,4.8
		c0,2,0.4,3.5,1.2,4.6c0.8,0.9,1.8,1.4,3.1,1.4c0.8,0,1.6-0.2,2.2-0.7c0.7-0.4,1.2-1.1,1.6-2.1s0.6-2.1,0.6-3.4
		c0-1.3-0.2-2.4-0.6-3.4c-0.3-0.8-0.8-1.4-1.5-1.9C473.9,1139.1,473.1,1138.9,472.3,1138.9z"/>
	<path class="st4" d="M481.8,1139.9v-1.2c0.9-0.1,1.5-0.2,1.9-0.4s1-0.4,1.9-0.9h1.1v2.8c1.3-1.1,2.4-1.8,3.3-2.2s1.8-0.6,2.8-0.6
		c0.8,0,1.5,0.1,2.1,0.4c0.6,0.3,1.1,0.6,1.5,1.1c0.4,0.5,0.6,1,0.8,1.6c0.1,0.4,0.1,0.9,0.1,1.6v6.4c0,0.8,0.1,1.3,0.2,1.5
		c0.1,0.2,0.3,0.4,0.5,0.5s0.8,0.1,1.8,0.1v1.2h-7.5v-1.2h0.4c0.7,0,1.2-0.1,1.4-0.2s0.4-0.3,0.5-0.6c0.1-0.2,0.2-0.7,0.2-1.5v-5.4
		c0-1.1-0.1-1.9-0.3-2.3c-0.2-0.4-0.5-0.8-0.9-1c-0.4-0.3-1-0.4-1.6-0.4c-0.8,0-1.6,0.2-2.5,0.6s-1.8,1-2.6,1.8v6.8
		c0,0.8,0.1,1.3,0.2,1.5c0.1,0.3,0.3,0.4,0.5,0.6c0.2,0.1,0.6,0.1,1.4,0.1h0.4v1.2h-7.6v-1.2h0.4c0.7,0,1.2-0.1,1.5-0.2
		s0.5-0.3,0.6-0.7c0.1-0.2,0.1-0.7,0.1-1.6v-8.4H481.8z"/>
	<path class="st4" d="M511.5,1137.8h1l1.3,4.5l-1.3,0.4c-0.5-1.2-1.3-2.1-2.2-2.8c-1-0.7-1.9-1-2.9-1c-0.8,0-1.4,0.2-1.8,0.5
		s-0.7,0.8-0.7,1.3c0,0.4,0.2,0.8,0.5,1.2c0.3,0.3,1.1,0.7,2.2,1.1l2.9,1c1.6,0.6,2.7,1.2,3.3,1.8c0.6,0.7,0.9,1.4,0.9,2.3
		c0,0.7-0.2,1.4-0.6,2.1s-1.1,1.2-1.9,1.6c-0.8,0.4-1.8,0.6-2.8,0.6c-1.6,0-3-0.5-4.2-1.4l-0.3,1.1h-1l-1.8-4.8l1.3-0.5
		c0.9,1.4,1.7,2.4,2.5,3c1.1,0.8,2.3,1.2,3.6,1.2c0.9,0,1.5-0.2,2.1-0.7c0.5-0.5,0.8-1,0.8-1.5c0-0.5-0.2-0.9-0.5-1.3
		c-0.4-0.4-1-0.7-2-1.1l-3.4-1.2c-1.5-0.5-2.5-1.1-3-1.7s-0.8-1.3-0.8-2.2c0-1,0.5-1.9,1.4-2.6c0.9-0.8,2.1-1.1,3.5-1.1
		c0.7,0,1.4,0.1,2,0.3c0.6,0.2,1.2,0.5,1.7,0.9L511.5,1137.8z"/>
	<path class="st4" d="M535.8,1131.5h1.1v17c0,0.8,0.1,1.3,0.2,1.5c0.1,0.2,0.3,0.4,0.5,0.5s0.7,0.2,1.4,0.2h1.4v1.2h-9.7v-1.2h1.6
		c0.7,0,1.2-0.1,1.4-0.2c0.2-0.1,0.4-0.3,0.5-0.6s0.2-0.8,0.2-1.5v-13.9h-3.7v-1.3C532.8,1133,534.4,1132.4,535.8,1131.5z"/>
	<path class="st4" d="M547.8,1152.3v-1.4c2.4,0,4.4-0.4,5.9-1c1.5-0.7,2.6-1.7,3.3-3c0.7-1.3,1.1-3,1.2-4.9c-0.5,0.8-1,1.3-1.5,1.8
		c-0.5,0.4-1.1,0.7-1.8,1c-0.7,0.2-1.5,0.4-2.3,0.4c-1.3,0-2.5-0.3-3.6-0.9c-1-0.6-1.8-1.4-2.4-2.4s-0.9-2.2-0.9-3.5
		c0-2.1,0.6-3.8,1.9-5.1c1.4-1.3,3.3-2,5.6-2c1.7,0,3,0.3,4.2,1s2,1.7,2.7,3.1s1,3.1,1,5.2s-0.3,3.9-1,5.5s-1.7,2.9-2.9,3.9
		c-1.2,1-2.6,1.6-4.1,1.9s-2.8,0.5-4.1,0.5H547.8z M553.1,1143.5c1.4,0,2.5-0.5,3.4-1.6c0.9-1.1,1.4-2.3,1.4-3.8
		c0-1.1-0.2-2-0.7-2.9s-1-1.6-1.7-2c-0.7-0.4-1.5-0.7-2.4-0.7c-1.3,0-2.5,0.5-3.4,1.5c-0.9,1-1.3,2.4-1.3,4.1c0,1.6,0.4,2.9,1.3,3.9
		C550.7,1143,551.8,1143.5,553.1,1143.5z"/>
	<path class="st4" d="M573.8,1131.5h2.5v11.9h3.8v1.8h-3.8v6.7h-2.5v-6.7h-9.6v-2.6L573.8,1131.5z M573.8,1143.4v-9.6l-8.3,9.6
		H573.8z"/>
	<path class="st4" d="M585.5,1137l-1.4-0.2c0.1-1.1,0.4-1.9,0.8-2.6c0.6-0.9,1.3-1.7,2.4-2.2s2.2-0.8,3.5-0.8c1.3,0,2.4,0.2,3.4,0.7
		c1,0.5,1.7,1.1,2.2,1.8c0.5,0.8,0.8,1.6,0.8,2.5c0,0.8-0.2,1.5-0.6,2.1c-0.4,0.6-0.9,1.2-1.7,1.7c-0.5,0.3-1.2,0.6-2.1,0.9
		c0.9,0.1,1.6,0.3,2.2,0.6c0.9,0.5,1.7,1.1,2.2,2c0.5,0.8,0.8,1.8,0.8,2.8c0,1.6-0.7,3-2.1,4.3s-3.2,1.8-5.5,1.8
		c-2.2,0-4.1-0.6-5.6-1.8c-1.3-1-1.9-2-1.9-3c0-0.4,0.1-0.7,0.4-1c0.3-0.3,0.6-0.4,1-0.4c0.4,0,0.8,0.2,1.1,0.5
		c0.2,0.2,0.4,0.6,0.6,1.3c0.3,1,0.8,1.7,1.5,2.2c0.7,0.5,1.6,0.8,2.7,0.8c1,0,1.8-0.2,2.6-0.6c0.8-0.4,1.4-1,1.8-1.8
		s0.7-1.6,0.7-2.5c0-0.7-0.2-1.4-0.5-2c-0.3-0.6-0.8-1.1-1.4-1.5c-0.4-0.3-1-0.5-1.7-0.7c-0.7-0.1-1.3-0.2-1.9-0.2h-1.4v-1.4h0.9
		c0.9,0,1.7-0.1,2.5-0.3s1.4-0.6,1.9-1.2s0.7-1.3,0.7-2.1c0-0.7-0.2-1.3-0.5-1.8c-0.3-0.5-0.8-1-1.4-1.3c-0.6-0.3-1.4-0.5-2.2-0.5
		c-0.8,0-1.6,0.2-2.2,0.5c-0.7,0.3-1.2,0.8-1.6,1.3C586,1135.3,585.7,1136.1,585.5,1137z"/>
</g>
<g>
	<path class="st5" d="M586,637.9c-7-6.7-20-2.1-27.3,4.3c-7.3,6.4-11.9,15.4-18.7,22.3c-18.5,19-51.2,21.1-65.8,43.3
		c-6.3,9.6-8,21.4-11.1,32.5c-2.4,8.7-5.7,17.1-9,25.4c-3.2,8.2-6.5,16.4-10.5,24.3c-2.2,4.4-4.6,8.6-6.9,13
		c-10.3,20.1-16.2,42.4-17.2,65c-0.1,3.1-0.2,6.3,1,9.3c1.1,2.9,2.8,2.7,5.9,2.9c4.5,0.4,9.3-6.2,11.7-10
		c17.2-27.4,22.4-36.7,32.9-67.3c4-11.6,11.4-40,15.9-51.4c8.5-21.5,12.4-33.1,28.9-49.3c14.1-13.8,35.7-34.6,51.7-46.1
		C574.5,651.1,579.8,647.4,586,637.9"/>
</g>
<polygon class="st6" points="285,952.7 275,932.6 273.2,894.3 289,897.6 300.1,904 302.4,929.2 299.5,943.4 293.1,954.7 "/>
<g>
	<path class="st5" d="M407.9,793.9c-6.8,3.3-11,10.5-13,17.8s-2.2,15-3.4,22.4c-2.8,17-11.2,33.1-23.6,45.2c-2.3,2.3-4.9,4.6-6,7.7
		c-0.6,1.8-0.6,3.7-0.7,5.6c-0.1,6.3,0.7,9.5,0.6,15.9c-0.1,5.2,1.3,7.2,1.9,14.8c0.1,1.2,1.2,5.9,2.5,6.1c1,0.2,2-0.3,2.9-0.7
		c12.9-6.5,23-18.4,27.4-32.1c4.2-13.1,3.3-27.1,3.2-40.9C399.6,836.1,404.9,813.1,407.9,793.9"/>
</g>
<polygon class="st6" points="247.3,899 240.7,892.2 236.1,849.1 250.6,853 256.3,865.3 256.5,888 252.7,896.4 "/>
<polygon class="st6" points="225.4,742 222.2,751.3 212.2,760.5 197,769.7 182.7,764.1 198.8,747 219.5,729.1 224.4,735 "/>
<path class="st7" d="M375.4,727.6"/>
<g>
	<g>
		<path class="st8" d="M412.2,579.3c-3.2,2.6-7.4,3.7-11.3,4.8c-4.7,1.3-9.3,2.8-13.7,4.8c-4.5,1.9-8.9,4-13.2,6.4
			c-4.2,2.3-7.3,5.5-9.6,9.6c-2.7,4.8-4.7,10.1-6.9,15.1c-0.5,1.2-0.4,2.7,0.9,3.4c1.1,0.6,2.9,0.3,3.4-0.9c2-4.5,3.9-9.1,6.1-13.5
			c2-3.9,4.4-7,8.3-9.2c8.2-4.6,17-8.3,26.1-10.9c4.8-1.3,9.5-2.9,13.5-6.1c1.1-0.8,0.9-2.7,0-3.5
			C414.7,578.3,413.3,578.5,412.2,579.3L412.2,579.3z"/>
	</g>
</g>
<g>
	<g>
		<path class="st8" d="M240.1,762.1c1-9.9,1.9-19.8,3.8-29.6c0.5-2.8,1.1-5.5,1.9-8.2c0.3-1,0.6-2,1-3c0.1-0.2,0.4-0.9,0-0.1
			c0.1-0.2,0.2-0.4,0.3-0.6c0.2-0.4,0.4-0.8,0.6-1.2c0.4-0.7,0.7-1.3,1.2-2c0.2-0.3,0.4-0.6,0.6-0.8c0.1-0.1,0.2-0.3,0.3-0.4
			c-0.5,0.8-0.1,0.1,0,0c0.9-1.2,2-2.3,3-3.4c3.1-3.4,5.7-7,8.2-10.8c3-4.7,6.1-9.2,9.2-13.8c2.4-3.6,5.1-7.2,7-11.1
			c0.6-1.2,0.3-2.7-0.9-3.4c-1.1-0.6-2.8-0.3-3.4,0.9c-1.6,3.4-3.9,6.5-6,9.6c-2.9,4.2-5.8,8.4-8.6,12.7c-1.7,2.6-3.3,5.3-5.2,7.7
			c-0.2,0.2-0.3,0.4-0.5,0.6c0.5-0.6,0,0.1-0.2,0.2c-0.3,0.4-0.6,0.8-1,1.2c-0.6,0.7-1.2,1.4-1.8,2c-2.1,2.4-4.3,4.6-5.9,7.4
			c-2.3,4-3.5,8.6-4.4,13c-2.2,10.9-3.3,22-4.3,33c-0.1,1.3,1.2,2.5,2.5,2.5C239,764.6,239.9,763.5,240.1,762.1L240.1,762.1z"/>
	</g>
</g>
<g>
	<g>
		<path class="st8" d="M218.8,730.9c3.5,3,4.3,7.7,4.1,12.2c-0.1,1.9-0.2,2.7-0.7,4.7c-0.2,0.8,0.2-0.2,0,0.2c0,0.1-0.1,0.1-0.1,0.2
			c0.8-1.1-0.2,0.2-0.4,0.3c-1.4,1.4-2.8,2.8-4.2,4.1c-3.6,3.4-7.3,6.8-11.1,9.4c-1.2,0.8-2.5,1.6-3.8,2.3c-0.5,0.3-1,0.5-1.5,0.7
			c-0.4,0.2,0.6-0.2,0.1-0.1c-0.1,0-0.2,0.1-0.3,0.1c-0.3,0.1-0.5,0.2-0.8,0.3c-2,0.7-4,1.3-5.8,2.4c-2.8,1.6-0.3,6,2.5,4.3
			c0.4-0.2,0.8-0.4,1.2-0.6c0.1-0.1,0.2-0.1,0.3-0.1c0.4-0.2-0.4,0.1-0.2,0.1c0.2,0,0.4-0.2,0.6-0.2c0.8-0.3,1.7-0.6,2.5-0.9
			c2.6-1,5.1-2.2,7.4-3.8c4.5-3,8.6-6.7,12.4-10.4c1.4-1.4,2.8-2.8,4.2-4.2c0.7-0.8,1.2-1.4,1.6-2.4c0.6-1.7,0.8-3.7,1-5.5
			c0.4-5.8-0.9-12.5-5.5-16.5c-1-0.9-2.5-1-3.5,0C217.9,728.2,217.7,730,218.8,730.9L218.8,730.9z"/>
	</g>
</g>
<g>
	<g>
		<path class="st8" d="M242.7,729.7c3.9,2.7,7.9,5.2,12.2,7.2c4.4,2.1,9.4,4.2,14.4,3.2c1.3-0.3,2.1-1.8,1.7-3.1
			c-0.4-1.4-1.7-2-3.1-1.7c-0.1,0-0.8,0.1-0.2,0.1c-0.2,0-0.5,0-0.7,0c-0.4,0-0.9,0-1.3-0.1c-0.5,0-1.8-0.3-2.7-0.6
			c-2.3-0.6-4.4-1.6-6.5-2.6c-3.9-2-7.7-4.3-11.3-6.8c-1.1-0.8-2.8-0.2-3.4,0.9C241.1,727.6,241.6,729,242.7,729.7L242.7,729.7z"/>
	</g>
</g>
<g>
	<g>
		<path class="st8" d="M286.6,772.9c7.2,3.5,15.4,5.1,23.4,4.3c1.3-0.1,2.5-1.1,2.5-2.5c0-1.2-1.1-2.6-2.5-2.5
			c-7.2,0.7-14.4-0.5-20.9-3.6c-1.2-0.6-2.7-0.3-3.4,0.9C285.1,770.6,285.4,772.3,286.6,772.9L286.6,772.9z"/>
	</g>
</g>
<g>
	<g>
		<path class="st8" d="M343.1,645.7c-4.6,5.4-7.7,11.9-9,18.9c-0.2,1.3,0.4,2.7,1.7,3.1c1.2,0.3,2.8-0.4,3.1-1.7
			c1.1-6.2,3.7-11.9,7.7-16.7c0.9-1,1-2.5,0-3.5C345.7,644.8,344,644.6,343.1,645.7L343.1,645.7z"/>
	</g>
</g>
<g>
	<g>
		<path class="st8" d="M328.4,674.1c-5.3,11.9-13.3,22.2-19.3,33.7c-2.1,4-4.1,8-6.2,11.9c-1.9,3.7-3.8,7.5-6.1,10.9
			c-8.1,12.4-14.7,26.1-19,40.3c-4.4,14.8-5.4,30.3-5.9,45.7c-0.3,8.3-0.3,16.5-0.2,24.8c0.1,8.4,0.3,16.8,0.1,25.2
			c-0.1,3.2,4.9,3.2,5,0c0.4-14.8-0.4-29.6,0-44.4c0.4-15.1,0.9-30.3,4.5-45c1.8-7.1,4.3-14.1,7.3-20.8c3-6.8,6.3-13.4,10.3-19.7
			c2.4-3.8,4.7-7.5,6.8-11.4c2.3-4.2,4.5-8.5,6.6-12.7c2.6-5.1,5.5-10,8.5-14.9c4.3-6.8,8.6-13.6,11.9-20.9c0.5-1.2,0.4-2.7-0.9-3.4
			C330.8,672.5,329,672.8,328.4,674.1L328.4,674.1z"/>
	</g>
</g>
<g>
	<g>
		<path class="st8" d="M353,779.5c4.7,4.3,10.7,7,16.7,8.8c5.6,1.7,11.9,2.7,17.8,1.4c3.1-0.7,1.8-5.5-1.3-4.8
			c-1.2,0.3-1.8,0.3-3.1,0.4c-1.2,0-2.5,0-3.7-0.1c-2.8-0.3-5.6-0.9-8.3-1.7c-5.2-1.5-10.5-3.9-14.5-7.5
			C354.2,773.8,350.6,777.3,353,779.5L353,779.5z"/>
	</g>
</g>
<g>
	<g>
		<path class="st8" d="M237.6,851.7c5.8,0.1,12.6,4.3,15.1,9.7c1.1,2.3,1.3,5.1,1.5,7.6c0.3,3.3,0.3,6.7,0.3,10
			c0,3.3-0.2,6.7-0.5,10c-0.1,1.3,1.2,2.5,2.5,2.5c1.5,0,2.4-1.1,2.5-2.5c0.6-6.7,0.8-13.6,0.2-20.3c-0.3-3.2-0.7-6.5-2-9.5
			c-1.6-3.4-4.5-6.2-7.5-8.3c-3.5-2.4-7.7-4.1-12-4.2C234.3,846.6,234.3,851.6,237.6,851.7L237.6,851.7z"/>
	</g>
</g>
<g>
	<g>
		<path class="st8" d="M275,896.8c5.5,0,10.2,1.6,15,4.2c1.4,0.7,2.8,1.4,4.1,2.2c0.1,0.1,0.3,0.2,0.4,0.3c0.1,0.1,0.2,0.1,0.3,0.2
			c0.4,0.2-0.6-0.5-0.1-0.1c0.6,0.5,1,1.1,1.6,1.6c0.1,0.2-0.4-0.5,0,0.1c0.1,0.2,0.3,0.4,0.4,0.6c0.3,0.5,0.6,1,0.9,1.5
			c0.1,0.3,0.3,0.6,0.4,0.9c0.1,0.2,0.1,0.3,0.2,0.5c0-0.1-0.2-0.5,0-0.1c0.3,0.8,0.6,1.6,0.8,2.4c0.5,1.8,0.9,3.6,1.2,5.5
			c0.3,2.2,0.5,5.4,0.4,7.9c0,3.8-0.3,7.6-0.7,11.3c-0.2,1.3,1.3,2.5,2.5,2.5c1.5,0,2.3-1.2,2.5-2.5c1.1-9.8,1.7-21-2.6-30.2
			c-0.9-1.9-2.1-3.8-3.7-5.3c-1.4-1.3-3.1-2-4.8-2.9c-2.6-1.4-5.1-2.8-7.9-3.8c-3.5-1.2-7.2-1.8-10.8-1.8
			C271.8,891.8,271.7,896.8,275,896.8L275,896.8z"/>
	</g>
</g>
<g>
	<g>
		<path class="st8" d="M362.3,891.1c0.4-0.2-0.1,0-0.2,0.1c0.1,0,0.2-0.1,0.3-0.1c0.2-0.1,0.5-0.1,0.7-0.2c0.3-0.1,0.5-0.1,0.8-0.2
			c0.1,0,0.5-0.1,0,0c0.2,0,0.4,0,0.6-0.1c1.4-0.1,2.9-0.1,4.3,0c2.6,0.2,6,1,8.3,2.2c1.4,0.7,2,1.1,3,2.1c0.1,0.1,0.3,0.4,0,0
			c0.1,0.1,0.2,0.2,0.2,0.4c0.1,0.1,0.1,0.2,0.2,0.4c0,0.1,0.1,0.2,0.1,0.2c0.3,0.5-0.1-0.4,0-0.1c0.2,0.8,0.5,1.5,0.7,2.3
			c0.1,0.5,0.2,1,0.3,1.6c0.1,0.6,0-0.1,0.1,0.4c0,0.4,0.1,0.8,0.1,1.3c0.4,4.5-0.1,9.1-0.8,13.6c-0.2,1.3,0.3,2.7,1.7,3.1
			c1.2,0.3,2.9-0.4,3.1-1.7c0.8-4.7,1.3-9.5,1-14.3c-0.2-2.5-0.4-5-1.3-7.3c-2.3-6.1-9.8-8.1-15.6-8.9c-3.3-0.4-7.2-0.6-10.2,1
			C356.9,888.3,359.5,892.6,362.3,891.1L362.3,891.1z"/>
	</g>
</g>
<g>
	<g>
		<path class="st8" d="M437.5,771.7c2.3,2.5,4.4,5.2,7.1,7.4c3.6,2.9,7.8,4.9,12.5,4.9c1.4,0,2.5-1.2,2.5-2.5c0-1.4-1.1-2.5-2.5-2.5
			c-0.5,0-1,0-1.6-0.1c-0.6-0.1,0.2,0.1-0.3,0c-0.3-0.1-0.6-0.1-0.8-0.2c-0.5-0.1-0.9-0.2-1.4-0.4c-0.2-0.1-0.4-0.2-0.7-0.2
			c-0.2-0.1-0.1-0.1,0,0c-0.1,0-0.2-0.1-0.3-0.1c-0.9-0.4-1.7-0.9-2.5-1.4c-0.4-0.3-0.8-0.5-1.1-0.8c0.3,0.3-0.1-0.1-0.2-0.2
			c-0.2-0.1-0.3-0.3-0.5-0.4c-2.4-2.1-4.4-4.6-6.6-7c-0.9-1-2.6-0.9-3.5,0C436.5,769.2,436.6,770.7,437.5,771.7L437.5,771.7z"/>
	</g>
</g>
<g>
	<g>
		<path class="st8" d="M422.5,851c1.8-1.8,4.5-3.3,7-4.3c0.6-0.2,1.2-0.4,1.9-0.5c-0.5,0.1,0.7,0,0.8,0c0.2,0,0.5,0.1,0.7,0.2
			c1.3,0.4,2.4,1.4,3.2,2.6c1.4,2.1,1.8,5,2.1,7.4c0.4,3.8,0.1,7.6-0.7,11.4c-0.7,3.1,4.1,4.5,4.8,1.3c1.4-6.3,1.5-12.9-0.3-19.1
			c-0.9-3.1-2.9-6-5.7-7.6c-2.8-1.6-5.9-1.4-8.8-0.2c-3,1.2-6.1,2.9-8.4,5.3C416.7,849.7,420.3,853.2,422.5,851L422.5,851z"/>
	</g>
</g>
<g>
	<g>
		<path class="st8" d="M462.5,676.5c2.4-6.3,6.2-12.1,10.4-17.3c4.2-5.3,8.9-10.2,14.1-14.6c1-0.9,0.9-2.6,0-3.5c-1-1-2.5-0.9-3.5,0
			c-5.4,4.5-10.3,9.7-14.6,15.2c-4.5,5.8-8.5,11.9-11.1,18.8c-0.5,1.3,0.5,2.7,1.7,3.1C460.8,678.6,462,677.8,462.5,676.5
			L462.5,676.5z"/>
	</g>
</g>
<g>
	<g>
		<path class="st8" d="M384.9,712.8c3.4-5.9,5.8-12.3,9.2-18.2c0.7-1.2,0.3-2.7-0.9-3.4c-1.2-0.7-2.7-0.3-3.4,0.9
			c-3.4,5.9-5.8,12.3-9.2,18.2c-0.7,1.2-0.3,2.7,0.9,3.4C382.7,714.4,384.3,714,384.9,712.8L384.9,712.8z"/>
	</g>
</g>
<g>
	<g>
		<path class="st8" d="M451.6,711.6c1.9-6.6,2.1-13.8,5.7-19.6c1.7-2.8-2.6-5.3-4.3-2.5c-3.9,6.3-4.2,13.8-6.2,20.8
			C445.8,713.4,450.7,714.7,451.6,711.6L451.6,711.6z"/>
	</g>
</g>
<g>
	<g>
		<path class="st8" d="M406.7,662.5c3.4-9.4,6-19.1,10.5-28c0.5-0.9,0.9-1.8,1.4-2.7c0.3-0.4,0.5-0.8,0.8-1.2
			c0.1-0.2,0.2-0.3,0.3-0.5c0.4-0.6-0.2,0.2,0.2-0.3c1.7-2.2,3.4-3.9,5.6-5.4c1.1-0.7,2.2-1.5,3.5-2.1c1.4-0.7,2.9-1,4.5-1.3
			c2.9-0.5,5.6-1.3,8.3-2.6c1.8-0.9,3.5-2,5-3.4c0.5-0.5,1-1,1.5-1.4c0.2-0.2,0.5-0.5,0.7-0.7c0.1-0.1,0.2-0.2,0.4-0.3
			c-0.6,0.5,0,0,0.1-0.1c1.1-0.8,1.6-2.2,0.9-3.4c-0.6-1.1-2.3-1.7-3.4-0.9c-1.2,0.8-2.2,1.8-3.2,2.8c-0.5,0.5-1.1,1-1.6,1.4
			c0.5-0.4-0.4,0.3-0.5,0.3c-0.5,0.3-0.9,0.6-1.4,0.8c-2.2,1.2-4.8,1.9-7.3,2.4c-3.1,0.6-5.8,1.4-8.5,3.1c-2.6,1.6-4.8,3.4-6.8,5.7
			c-1.4,1.7-2.7,3.5-3.8,5.4c-2.5,4.6-4.4,9.6-6.2,14.6c-1.9,5.4-3.7,10.8-5.6,16.2c-0.5,1.3,0.5,2.7,1.7,3.1
			C405.1,664.6,406.3,663.7,406.7,662.5L406.7,662.5z"/>
	</g>
</g>
<g>
	<defs>
		<rect id="SVGID_5_" x="127" y="-0.7" width="715.2" height="999.8"/>
	</defs>
	<clipPath id="SVGID_6_">
		<use xlink:href="#SVGID_5_"  style="overflow:visible;"/>
	</clipPath>
	<g class="st9">
		<g>
			<path class="st8" d="M700.2,438.3c-31.2,37.6-56.1,80.2-73.3,125.9c-4.6,12.3-8.3,25.1-13.9,37c-4.8,10.2-11.1,19.4-18.7,27.6
				c-14.5,15.7-32.2,28-48.8,41.4c-17.1,13.8-32.3,28.9-43.7,47.9c-11.7,19.5-19.3,41-26.3,62.5c-7.1,21.9-13.9,44.2-23.9,65
				c-4.5,9.3-10.2,17.1-17,24.8c-2.1,2.4-4.2,4.7-6.4,7c-0.4,0.4-2.3,2.9-2.8,2.9c-1.3-0.1-2.3-3.7-2.6-4.5c-1.4-4.3-1.2-8.6-1-13
				c0.4-7.5,1.5-14.7,3.4-22c3.5-13.7,7.9-27.2,10.9-41c6.4-29.2,10.1-58.9,15.5-88.3c0.5-2.5-2.2-4.1-4.2-2.4
				c-10.2,8.9-17.7,20.8-23.9,32.7c-6.6,12.6-12.6,26.2-15.8,40.1c-4.1,17.6-5.6,36.1-7.2,54.1c-1.2,12.8-1.7,25.5-2.5,38.3
				c-0.6,10.8-1.5,23.5-7.9,32.6c-1.4,2.1-3.2,3.9-5.3,5.2c-3,1.8-4.2,3.5-6.5,6.2c-2.1,2.4-5,5.5-8,6.6c-3.1,1.2-3.5-1.1-4.2-3.9
				c-0.7-2.7-1.1-5.4-1.3-8.2c-0.8-8.8-0.3-17.6-1.4-26.4c-1-7.7-2-15.4-3-23.1c-2.1-16.3-3.9-32.6-4.4-49
				c-0.3-10.1-0.4-20.4,0.5-30.5c0.9-10.2,4.2-19.9,8.4-29.1c6.7-14.7,14.1-29.2,20.9-43.9c0.6-1.3,0.3-2.6-0.9-3.4
				c-4-2.9-8.3,0.1-11.2,3.1c-5.8,6.1-9.9,14-14,21.2c-7.3,12.8-14.2,25.7-21.4,38.5c-2.1,3.6-4.8,7.4-6.4,11.2
				c-1.2,3-1.6,6.6-2.3,9.7c-1.5,7.2-2.8,14.5-4,21.7c-2.6,15.7-4.5,31.6-6.2,47.4c-0.9,9.1-1.7,18.2-2.5,27.4
				c-0.6,7.9-1.2,15.8-3.2,23.5c-1.9,7.4-5.2,12.9-10.2,18.4c-3.1,3.4-4.5,7.5-6,11.9c-1,2.8-2.2,7.9-4.8,9.8
				c-3.7,2.7-7.6-2-9.2-4.7c-7.1-11.9-7.3-28-7.5-41.4c-0.2-13,0.8-25.9,0.9-38.8c0-2.5-3.4-3.4-4.7-1.3c-3.3,5.7-6,11.9-10.2,17.1
				c-0.9,1.1-1.9,2.4-3.1,3.1c-1.1,0.7-2,0.6-3.1,1c-2.6,1.2-3.7,4.8-4.7,7.3c-0.9,2.1-1.7,4.1-4.2,2.3c-0.9-0.7-1.5-2.1-2-3.1
				c-1.6-3.4-2.3-7.3-2.9-11c-4.4-25.1-3.4-51.6-3-77c0.2-14.3,0.7-28.5,1.1-42.7c0.1-2-2.1-3-3.8-2.2c-16.8,9.1-35.9,11.1-53.6,3.5
				c0.2,1.3,0.3,2.6,0.5,3.9c15.6-19.1,35.3-34.3,54-50.2c9.7-8.3,19.2-16.7,27.9-26c9-9.6,16.4-19.9,23.7-30.8
				c4.3-6.3,8.7-12.5,13.4-18.6c4.3-5.5,9.1-10.7,12.9-16.6c2.4-3.6,4.1-7.7,6.8-11.1c3.6-4.5,8.5-8.7,13.5-11.4
				c3-1.7,6.3-2,9.6-2.8c5.3-1.3,10.6-3.6,15-6.8c3.8-2.8,6.8-6.3,9.9-9.8c4-4.6,8.2-7.8,13.9-9.9c26.6-9.8,53.5-19.3,78.3-33.3
				c10.3-5.8,20.4-12,28.3-20.9c8.8-9.9,13.1-21.6,19.1-33.2c4.8-9.4,12-15.5,19.9-22c10.1-8.3,17.8-19.5,26.1-29.6
				c18.7-22.7,37.2-45.7,54.1-69.8c11-15.7,20.9-32,30.7-48.4c11.2-18.7,22.4-37.4,33.6-56.2c15.8-26.5,31.7-53,47.5-79.5
				c16.7-27.9,33.4-55.8,50.1-83.8c13.7-23,27.5-46,41.2-69c7.2-12,15.1-23.7,21.6-36.1c0.3-0.6,0.6-1.1,1-1.6
				c-0.7,0.4-1.4,0.8-2.2,1.2c7.1,0,14.3,0,21.4,0c-0.8-0.8-1.7-1.7-2.5-2.5c-0.2,26.6-0.4,53.2-0.6,79.7c-0.3,47.5-0.7,95-1,142.5
				c-0.1,17-0.2,34.1-0.4,51.1c0,4-0.1,8.1-0.1,12.1c0,0.1-0.1,2,0,2c-0.9-0.2,2-2.8-0.4-0.5c-9.4,9-17.8,19.4-26.7,29
				c-15.7,17.1-31.4,34.2-47.2,51.3c-24.8,26.9-49.6,53.9-74.3,80.8C701.1,437.4,700.7,437.9,700.2,438.3c-2.2,2.4,1.4,5.9,3.5,3.5
				c21.3-23.2,42.6-46.3,63.9-69.5c27.5-29.8,54.9-59.7,82.4-89.5c1.6-1.8,4.5-4,5-6.5c0.4-1.9,0-4.4,0-6.3
				c0.1-14.1,0.2-28.3,0.3-42.4c0.3-47.2,0.7-94.3,1-141.5c0.2-31.9,1.1-63.8,0.7-95.7c0-0.5,0-1,0-1.5c0-1.4-1.2-2.5-2.5-2.5
				c-6.3,0-12.5,0-18.8,0c-2.3,0-3.8-0.1-5.2,1.8c-2.5,3.5-4.4,7.4-6.6,11c-10.9,18.1-21.7,36.3-32.6,54.4
				c-16.2,27-32.3,54-48.5,81.1c-17.2,28.8-34.4,57.6-51.6,86.3c-14.3,23.9-28.6,47.8-42.9,71.7c-7.2,12-14.3,23.9-21.5,35.9
				c-26.4,44.1-59.4,84.2-92.5,123.3c-6.2,7.3-14.5,12.1-20.9,19.1c-8.7,9.5-12.5,22-18.6,33.1c-6.5,11.8-16.7,20.1-28,27.1
				c-11.6,7.1-23.8,13.1-36.3,18.6c-14.4,6.3-29.2,11.8-44,17.1c-5.5,2-10.9,3.8-15.4,7.6c-3.9,3.2-6.7,7.4-10.3,10.9
				c-4.6,4.6-10.4,7.6-16.6,9.3c-3.1,0.8-6.3,1.1-9.3,2.4c-8.9,3.8-16.6,11.7-21.3,20.1c-6.8,12.2-16.8,22.6-24.9,34
				c-8.3,11.7-15.7,23.7-25.4,34.2c-17.8,19.4-38.9,35.2-58.5,52.6c-9,8-17.7,16.4-25.4,25.8c-0.9,1.1-1.1,3.2,0.5,3.9
				c19.5,8.3,40.2,6.6,58.7-3.5c-1.3-0.7-2.5-1.4-3.8-2.2c-0.7,25.3-1.6,50.6-1.2,75.9c0.2,11.9,0.6,23.8,1.9,35.7
				c0.8,7.5,1.6,16.1,5.3,22.8c1.6,2.8,3.9,4.9,7.3,5.3c6.5,0.7,7.4-7.7,10.2-11.7c-0.7,0.4-1.4,0.8-2.2,1.2
				c10.3-0.5,15.7-16.2,20.1-23.6c-1.6-0.4-3.1-0.8-4.7-1.3c-0.2,24-3.8,49.4,3.2,72.9c1.5,5,3.6,10.4,7.3,14.2
				c3.3,3.3,9.4,5.3,13.5,2.2c4.9-3.7,6.1-12.6,8.4-17.9c1.3-3,3.4-4.9,5.5-7.3c5.7-6.6,8.4-14.9,10-23.3c3.1-17,3.3-34.7,5.1-51.9
				c1.8-16.7,4-33.5,7-50c1.3-7.2,1.9-16.1,5.2-22.7c3.7-7.6,8.4-14.8,12.5-22.2c2.4-4.3,26.3-52.9,32.7-48.4
				c-0.3-1.1-0.6-2.3-0.9-3.4c-6.5,14-13.3,27.7-19.9,41.7c-3.5,7.5-6.7,15.3-8.5,23.4c-2,8.8-2.1,17.9-2.2,26.9
				c-0.4,35.8,7.3,70.7,8.5,106.3c0.1,4,0.4,8.1,1.1,12.1c0.6,3.4,1.2,8.6,3.9,11c4.7,4.1,12.3-2.9,15.5-6.1
				c2.3-2.2,3.9-5.2,6.6-6.9c2-1.3,3.9-2.6,5.5-4.3c3.5-3.9,5.7-8.8,7.3-13.8c3.4-11.2,3.7-23.2,4.1-34.8
				c0.6-16.7,2.3-33.4,4.3-49.9c1.3-11,2.4-22.6,5.4-33.3c2.4-8.5,5.5-16.8,9.1-24.9c7-15.6,15.7-31.9,28.7-43.3
				c-1.4-0.8-2.8-1.6-4.2-2.4c-5,27.1-8.5,54.4-14,81.4c-2.7,13.2-6.1,26-9.9,38.9c-3.4,11.7-5.9,23.4-6.3,35.6
				c-0.2,5.5,0.6,15.9,6.6,18.6c5.4,2.4,10.2-5.6,13.2-8.9c6.2-7,12.1-13.8,16.6-22.1c5.7-10.4,9.8-21.6,14-32.6
				c17.1-44.9,26.1-93.9,61.4-129.1c15.7-15.7,34.2-28.2,51.2-42.5c17.3-14.5,31.7-30.9,40.4-51.9c5.7-13.8,10-28.2,15.6-42.1
				c5.6-13.8,11.9-27.3,18.9-40.4c13.8-26,30.3-50.5,49.1-73.2C705.8,439.4,702.3,435.8,700.2,438.3z"/>
		</g>
	</g>
</g>
<polygon class="st10" points="415.9,770.3 364.2,746.3 374.2,724.9 424.9,749 "/>
<rect x="382" y="725.8" transform="matrix(0.9137 0.4063 -0.4063 0.9137 337.0284 -94.9341)" class="st11" width="20.1" height="41"/>
</svg>
